%TF.GenerationSoftware,KiCad,Pcbnew,9.0.6*%
%TF.CreationDate,2026-04-18T19:11:28+02:00*%
%TF.ProjectId,GP_POWER_CIRCUIT,47505f50-4f57-4455-925f-434952435549,rev?*%
%TF.SameCoordinates,Original*%
%TF.FileFunction,Copper,L2,Bot*%
%TF.FilePolarity,Positive*%
%FSLAX46Y46*%
G04 Gerber Fmt 4.6, Leading zero omitted, Abs format (unit mm)*
G04 Created by KiCad (PCBNEW 9.0.6) date 2026-04-18 19:11:28*
%MOMM*%
%LPD*%
G01*
G04 APERTURE LIST*
G04 Aperture macros list*
%AMRoundRect*
0 Rectangle with rounded corners*
0 $1 Rounding radius*
0 $2 $3 $4 $5 $6 $7 $8 $9 X,Y pos of 4 corners*
0 Add a 4 corners polygon primitive as box body*
4,1,4,$2,$3,$4,$5,$6,$7,$8,$9,$2,$3,0*
0 Add four circle primitives for the rounded corners*
1,1,$1+$1,$2,$3*
1,1,$1+$1,$4,$5*
1,1,$1+$1,$6,$7*
1,1,$1+$1,$8,$9*
0 Add four rect primitives between the rounded corners*
20,1,$1+$1,$2,$3,$4,$5,0*
20,1,$1+$1,$4,$5,$6,$7,0*
20,1,$1+$1,$6,$7,$8,$9,0*
20,1,$1+$1,$8,$9,$2,$3,0*%
G04 Aperture macros list end*
%TA.AperFunction,ComponentPad*%
%ADD10C,1.600000*%
%TD*%
%TA.AperFunction,ComponentPad*%
%ADD11C,2.600000*%
%TD*%
%TA.AperFunction,ComponentPad*%
%ADD12RoundRect,0.250000X-1.050000X-1.050000X1.050000X-1.050000X1.050000X1.050000X-1.050000X1.050000X0*%
%TD*%
%TA.AperFunction,ComponentPad*%
%ADD13RoundRect,1.500000X1.500000X1.500000X-1.500000X1.500000X-1.500000X-1.500000X1.500000X-1.500000X0*%
%TD*%
%TA.AperFunction,ComponentPad*%
%ADD14C,6.000000*%
%TD*%
%TA.AperFunction,ComponentPad*%
%ADD15RoundRect,0.250000X-0.750000X0.750000X-0.750000X-0.750000X0.750000X-0.750000X0.750000X0.750000X0*%
%TD*%
%TA.AperFunction,ComponentPad*%
%ADD16C,2.000000*%
%TD*%
%TA.AperFunction,Conductor*%
%ADD17C,3.000000*%
%TD*%
G04 APERTURE END LIST*
D10*
%TO.P,C4,2*%
%TO.N,GND*%
X181203600Y-87000400D03*
%TO.P,C4,1*%
%TO.N,+48V_MCB*%
X181203600Y-84500400D03*
%TD*%
D11*
%TO.P,J3_Motor3,2,Pin_2*%
%TO.N,GND*%
X183551200Y-77642500D03*
D12*
%TO.P,J3_Motor3,1,Pin_1*%
%TO.N,+48V_MCB*%
X178551200Y-77642500D03*
%TD*%
D10*
%TO.P,C2,1*%
%TO.N,+48V_MCB*%
X144190400Y-84810600D03*
%TO.P,C2,2*%
%TO.N,GND*%
X144190400Y-87310600D03*
%TD*%
D13*
%TO.P,J1_Battery_input1,1,Pin_1*%
%TO.N,+48V_RAW*%
X149167400Y-114198400D03*
D14*
%TO.P,J1_Battery_input1,2,Pin_2*%
%TO.N,GND*%
X141967400Y-114198400D03*
%TD*%
D12*
%TO.P,J4_DC-DC_STM1,1,Pin_1*%
%TO.N,+48V_MCB*%
X195620000Y-94177900D03*
D11*
%TO.P,J4_DC-DC_STM1,2,Pin_2*%
%TO.N,GND*%
X200620000Y-94177900D03*
%TD*%
D12*
%TO.P,J3_Motor1,1,Pin_1*%
%TO.N,+48V_MCB*%
X143005800Y-77673200D03*
D11*
%TO.P,J3_Motor1,2,Pin_2*%
%TO.N,GND*%
X148005800Y-77673200D03*
%TD*%
D15*
%TO.P,C1,1*%
%TO.N,+48V_MCB*%
X175818800Y-113888123D03*
D16*
%TO.P,C1,2*%
%TO.N,GND*%
X175818800Y-118888123D03*
%TD*%
D12*
%TO.P,J3_Motor2,1,Pin_1*%
%TO.N,+48V_MCB*%
X160568000Y-77667900D03*
D11*
%TO.P,J3_Motor2,2,Pin_2*%
%TO.N,GND*%
X165568000Y-77667900D03*
%TD*%
D10*
%TO.P,C3,1*%
%TO.N,+48V_MCB*%
X162915600Y-84455000D03*
%TO.P,C3,2*%
%TO.N,GND*%
X162915600Y-86955000D03*
%TD*%
D12*
%TO.P,J2_MCB1,1,Pin_1*%
%TO.N,+48V_RAW*%
X160212400Y-114523300D03*
D11*
%TO.P,J2_MCB1,2,Pin_2*%
%TO.N,+48V_MCB*%
X165212400Y-114523300D03*
%TD*%
D17*
%TO.N,GND*%
X162276800Y-73863200D02*
X165568000Y-77154400D01*
X151815800Y-73863200D02*
X162276800Y-73863200D01*
X187371000Y-87101400D02*
X181203600Y-87101400D01*
X190969900Y-83502500D02*
X200620000Y-93152600D01*
X190969900Y-83502500D02*
X187371000Y-87101400D01*
X184963100Y-118795500D02*
X175818800Y-118795500D01*
X200609200Y-103149400D02*
X184963100Y-118795500D01*
X200620000Y-95924700D02*
X200609200Y-95935500D01*
X200620000Y-94177900D02*
X200620000Y-95924700D01*
X200609200Y-95935500D02*
X200609200Y-103149400D01*
X200620000Y-93152600D02*
X200620000Y-94177900D01*
X188747400Y-81280000D02*
X190969900Y-83502500D01*
X187188700Y-81280000D02*
X188747400Y-81280000D01*
X181742877Y-73995700D02*
X183551200Y-75804023D01*
X183551200Y-75804023D02*
X183551200Y-77642500D01*
X165568000Y-77154400D02*
X168726700Y-73995700D01*
X165568000Y-77667900D02*
X165568000Y-77154400D01*
X168726700Y-73995700D02*
X181742877Y-73995700D01*
X141967400Y-101727000D02*
X141967400Y-114198400D01*
X187188700Y-81280000D02*
X183551200Y-77642500D01*
X140624900Y-73863200D02*
X151815800Y-73863200D01*
X138861800Y-89814400D02*
X138861800Y-75626300D01*
X138861800Y-75626300D02*
X140624900Y-73863200D01*
X141967400Y-92957200D02*
X141967400Y-101727000D01*
X141986000Y-92938600D02*
X141967400Y-92957200D01*
X141264600Y-87411600D02*
X144190400Y-87411600D01*
X141986000Y-92938600D02*
X138861800Y-89814400D01*
X138861800Y-89814400D02*
X141264600Y-87411600D01*
X148005800Y-77673200D02*
X151815800Y-73863200D01*
X141967400Y-101727000D02*
X156638400Y-87056000D01*
X156638400Y-87056000D02*
X162915600Y-87056000D01*
%TD*%
%TA.AperFunction,Conductor*%
%TO.N,GND*%
G36*
X162742340Y-92902806D02*
G01*
X162807472Y-92928089D01*
X162848598Y-92984573D01*
X162855495Y-93035749D01*
X161832595Y-106508093D01*
X161807892Y-106573450D01*
X161751775Y-106615075D01*
X161702128Y-106622517D01*
X146151600Y-105765599D01*
X144519134Y-118875551D01*
X144491316Y-118939645D01*
X144433263Y-118978524D01*
X144363406Y-118979846D01*
X144357893Y-118978201D01*
X132958287Y-115287820D01*
X132920993Y-115268225D01*
X132903192Y-115254566D01*
X132693114Y-115133277D01*
X132693105Y-115133273D01*
X132469004Y-115040447D01*
X132234685Y-114977661D01*
X131994189Y-114946000D01*
X131994188Y-114946000D01*
X131921971Y-114946000D01*
X131883781Y-114939972D01*
X130776088Y-114581380D01*
X129601936Y-114201273D01*
X129544218Y-114161898D01*
X129516951Y-114097569D01*
X129516145Y-114081226D01*
X129917519Y-90249625D01*
X129938329Y-90182930D01*
X129991896Y-90138071D01*
X130051984Y-90128161D01*
X162742340Y-92902806D01*
G37*
%TD.AperFunction*%
%TD*%
%TA.AperFunction,Conductor*%
%TO.N,+48V_MCB*%
G36*
X146753843Y-75883385D02*
G01*
X146799598Y-75936189D01*
X146809542Y-76005347D01*
X146780517Y-76068903D01*
X146774485Y-76075381D01*
X146498520Y-76351344D01*
X146498515Y-76351350D01*
X146338875Y-76559398D01*
X146207758Y-76786499D01*
X146207754Y-76786509D01*
X146107402Y-77028780D01*
X146039528Y-77282087D01*
X146005301Y-77542079D01*
X146005301Y-77804320D01*
X146039528Y-78064312D01*
X146107402Y-78317619D01*
X146207754Y-78559890D01*
X146207758Y-78559900D01*
X146338875Y-78787001D01*
X146498515Y-78995049D01*
X146498521Y-78995056D01*
X146683943Y-79180478D01*
X146683950Y-79180484D01*
X146891998Y-79340124D01*
X147119099Y-79471241D01*
X147119100Y-79471241D01*
X147119103Y-79471243D01*
X147361381Y-79571598D01*
X147614684Y-79639471D01*
X147809681Y-79665142D01*
X147874679Y-79673699D01*
X147874680Y-79673699D01*
X148136921Y-79673699D01*
X148188919Y-79666853D01*
X148396916Y-79639471D01*
X148650219Y-79571598D01*
X148892497Y-79471243D01*
X149119602Y-79340124D01*
X149327651Y-79180483D01*
X152608115Y-75900019D01*
X152669438Y-75866534D01*
X152695796Y-75863700D01*
X161396804Y-75863700D01*
X161463843Y-75883385D01*
X161484485Y-75900019D01*
X163565635Y-77981169D01*
X163599120Y-78042492D01*
X163600892Y-78052655D01*
X163601728Y-78059006D01*
X163601729Y-78059012D01*
X163601730Y-78059016D01*
X163645533Y-78222493D01*
X163669602Y-78312318D01*
X163669605Y-78312328D01*
X163769953Y-78554590D01*
X163769958Y-78554600D01*
X163901075Y-78781703D01*
X164060718Y-78989751D01*
X164060726Y-78989760D01*
X164246140Y-79175174D01*
X164246148Y-79175181D01*
X164246149Y-79175182D01*
X164253059Y-79180484D01*
X164454196Y-79334824D01*
X164681299Y-79465941D01*
X164681309Y-79465946D01*
X164923571Y-79566294D01*
X164923581Y-79566298D01*
X165176884Y-79634170D01*
X165436880Y-79668400D01*
X165436887Y-79668400D01*
X165699113Y-79668400D01*
X165699120Y-79668400D01*
X165959116Y-79634170D01*
X166212419Y-79566298D01*
X166389340Y-79493014D01*
X166454690Y-79465946D01*
X166454691Y-79465945D01*
X166454697Y-79465943D01*
X166681803Y-79334824D01*
X166889851Y-79175182D01*
X166889855Y-79175177D01*
X166889860Y-79175174D01*
X167075274Y-78989760D01*
X167075277Y-78989755D01*
X167075282Y-78989751D01*
X167234924Y-78781703D01*
X167366043Y-78554597D01*
X167466398Y-78312319D01*
X167534270Y-78059016D01*
X167535105Y-78052669D01*
X167563365Y-77988776D01*
X167570351Y-77981181D01*
X169519016Y-76032519D01*
X169580339Y-75999034D01*
X169606697Y-75996200D01*
X180862881Y-75996200D01*
X180929920Y-76015885D01*
X180950562Y-76032519D01*
X181514381Y-76596338D01*
X181547866Y-76657661D01*
X181550700Y-76684019D01*
X181550700Y-77773627D01*
X181567815Y-77903618D01*
X181567815Y-77903619D01*
X181584928Y-78033612D01*
X181635539Y-78222493D01*
X181652802Y-78286919D01*
X181753151Y-78529185D01*
X181753158Y-78529200D01*
X181770883Y-78559900D01*
X181884276Y-78756303D01*
X181953588Y-78846631D01*
X182043915Y-78964349D01*
X182043921Y-78964356D01*
X185866843Y-82787278D01*
X185866850Y-82787284D01*
X185959114Y-82858080D01*
X185959115Y-82858082D01*
X186074897Y-82946924D01*
X186301999Y-83078041D01*
X186302014Y-83078048D01*
X186406421Y-83121294D01*
X186544281Y-83178398D01*
X186797585Y-83246271D01*
X186910466Y-83261130D01*
X186910467Y-83261131D01*
X186910468Y-83261131D01*
X187057580Y-83280500D01*
X187867404Y-83280500D01*
X187896844Y-83289144D01*
X187926831Y-83295668D01*
X187931846Y-83299422D01*
X187934443Y-83300185D01*
X187955085Y-83316819D01*
X188053085Y-83414819D01*
X188086570Y-83476142D01*
X188081586Y-83545834D01*
X188053085Y-83590181D01*
X186578685Y-85064581D01*
X186517362Y-85098066D01*
X186491004Y-85100900D01*
X181072472Y-85100900D01*
X180841372Y-85131326D01*
X180812484Y-85135130D01*
X180728606Y-85157605D01*
X180559181Y-85203002D01*
X180559171Y-85203005D01*
X180316909Y-85303353D01*
X180316899Y-85303358D01*
X180089796Y-85434475D01*
X179881748Y-85594118D01*
X179696318Y-85779548D01*
X179536675Y-85987596D01*
X179405558Y-86214699D01*
X179405553Y-86214709D01*
X179305205Y-86456971D01*
X179305202Y-86456981D01*
X179287003Y-86524903D01*
X179237330Y-86710285D01*
X179203100Y-86970272D01*
X179203100Y-87232527D01*
X179229723Y-87434739D01*
X179237330Y-87492516D01*
X179250784Y-87542727D01*
X179305202Y-87745818D01*
X179305205Y-87745828D01*
X179405553Y-87988090D01*
X179405558Y-87988100D01*
X179536675Y-88215203D01*
X179696318Y-88423251D01*
X179696326Y-88423260D01*
X179881740Y-88608674D01*
X179881747Y-88608680D01*
X179881749Y-88608682D01*
X179930154Y-88645824D01*
X180089796Y-88768324D01*
X180316899Y-88899441D01*
X180316909Y-88899446D01*
X180559171Y-88999794D01*
X180559181Y-88999798D01*
X180812484Y-89067670D01*
X181072480Y-89101900D01*
X181072487Y-89101900D01*
X187502113Y-89101900D01*
X187502120Y-89101900D01*
X187632118Y-89084785D01*
X187762116Y-89067671D01*
X188015419Y-88999798D01*
X188257697Y-88899443D01*
X188484803Y-88768324D01*
X188575131Y-88699011D01*
X188692851Y-88608683D01*
X190882219Y-86419315D01*
X190943542Y-86385830D01*
X191013234Y-86390814D01*
X191057581Y-86419315D01*
X198020960Y-93382694D01*
X198054445Y-93444017D01*
X198049461Y-93513709D01*
X198007589Y-93569642D01*
X197942125Y-93594059D01*
X197935391Y-93594357D01*
X197662800Y-93599000D01*
X197662799Y-93599001D01*
X197383565Y-101925262D01*
X197382841Y-101935112D01*
X197181047Y-103710267D01*
X197153917Y-103774654D01*
X197145522Y-103783942D01*
X184752771Y-116176693D01*
X184691448Y-116210178D01*
X184664896Y-116213012D01*
X163476711Y-116179802D01*
X163409702Y-116160012D01*
X163364030Y-116107137D01*
X163353022Y-116050412D01*
X164465000Y-90500200D01*
X164464998Y-90500199D01*
X164464999Y-90500199D01*
X156425281Y-90395995D01*
X156358502Y-90375443D01*
X156313436Y-90322050D01*
X156304389Y-90252769D01*
X156334235Y-90189595D01*
X156339164Y-90184369D01*
X157430715Y-89092819D01*
X157492038Y-89059334D01*
X157518396Y-89056500D01*
X163046713Y-89056500D01*
X163046720Y-89056500D01*
X163306716Y-89022270D01*
X163560019Y-88954398D01*
X163802297Y-88854043D01*
X164029403Y-88722924D01*
X164237451Y-88563282D01*
X164237455Y-88563277D01*
X164237460Y-88563274D01*
X164422874Y-88377860D01*
X164422877Y-88377855D01*
X164422882Y-88377851D01*
X164582524Y-88169803D01*
X164713643Y-87942697D01*
X164813998Y-87700419D01*
X164881870Y-87447116D01*
X164916100Y-87187120D01*
X164916100Y-86924880D01*
X164881870Y-86664884D01*
X164813998Y-86411581D01*
X164732451Y-86214709D01*
X164713646Y-86169309D01*
X164713641Y-86169299D01*
X164582524Y-85942196D01*
X164422881Y-85734148D01*
X164422874Y-85734140D01*
X164237460Y-85548726D01*
X164237451Y-85548718D01*
X164029403Y-85389075D01*
X163802300Y-85257958D01*
X163802290Y-85257953D01*
X163560028Y-85157605D01*
X163560021Y-85157603D01*
X163560019Y-85157602D01*
X163306716Y-85089730D01*
X163248939Y-85082123D01*
X163046727Y-85055500D01*
X163046720Y-85055500D01*
X156507280Y-85055500D01*
X156507272Y-85055500D01*
X156377282Y-85072615D01*
X156377281Y-85072615D01*
X156247287Y-85089728D01*
X155993980Y-85157602D01*
X155751709Y-85257954D01*
X155751699Y-85257958D01*
X155524593Y-85389077D01*
X155499551Y-85408294D01*
X155495894Y-85411101D01*
X155316550Y-85548715D01*
X155316543Y-85548721D01*
X150582463Y-90282800D01*
X150521140Y-90316285D01*
X150493175Y-90319109D01*
X142137104Y-90210805D01*
X142070325Y-90190253D01*
X142051030Y-90174496D01*
X141778615Y-89902081D01*
X141745130Y-89840758D01*
X141750114Y-89771066D01*
X141778615Y-89726719D01*
X142056916Y-89448419D01*
X142118239Y-89414934D01*
X142144597Y-89412100D01*
X144321513Y-89412100D01*
X144321520Y-89412100D01*
X144581516Y-89377870D01*
X144834819Y-89309998D01*
X145077097Y-89209643D01*
X145304203Y-89078524D01*
X145512251Y-88918882D01*
X145512255Y-88918877D01*
X145512260Y-88918874D01*
X145697674Y-88733460D01*
X145697677Y-88733455D01*
X145697682Y-88733451D01*
X145857324Y-88525403D01*
X145988443Y-88298297D01*
X146088798Y-88056019D01*
X146156670Y-87802716D01*
X146190900Y-87542720D01*
X146190900Y-87280480D01*
X146156670Y-87020484D01*
X146088798Y-86767181D01*
X146065231Y-86710285D01*
X145988446Y-86524909D01*
X145988441Y-86524899D01*
X145857324Y-86297796D01*
X145697681Y-86089748D01*
X145697674Y-86089740D01*
X145512260Y-85904326D01*
X145512251Y-85904318D01*
X145304203Y-85744675D01*
X145077100Y-85613558D01*
X145077090Y-85613553D01*
X144834828Y-85513205D01*
X144834821Y-85513203D01*
X144834819Y-85513202D01*
X144581516Y-85445330D01*
X144523739Y-85437723D01*
X144321527Y-85411100D01*
X144321520Y-85411100D01*
X141133480Y-85411100D01*
X141133472Y-85411100D01*
X141003482Y-85428215D01*
X141003466Y-85428217D01*
X141002470Y-85428348D01*
X140933436Y-85417574D01*
X140881186Y-85371187D01*
X140862300Y-85305407D01*
X140862300Y-76506296D01*
X140881985Y-76439257D01*
X140898619Y-76418615D01*
X141417215Y-75900019D01*
X141478538Y-75866534D01*
X141504896Y-75863700D01*
X146686804Y-75863700D01*
X146753843Y-75883385D01*
G37*
%TD.AperFunction*%
%TD*%
%TA.AperFunction,Conductor*%
%TO.N,+48V_RAW*%
G36*
X163078373Y-106670431D02*
G01*
X163134820Y-106711607D01*
X163160045Y-106776765D01*
X163160283Y-106794133D01*
X162490310Y-118655140D01*
X162466876Y-118720963D01*
X162411575Y-118763667D01*
X162368369Y-118772133D01*
X145691646Y-119022534D01*
X145624318Y-119003858D01*
X145577776Y-118951747D01*
X145565794Y-118900153D01*
X145515112Y-114977333D01*
X145516049Y-114960459D01*
X146391756Y-107927859D01*
X146419574Y-107863767D01*
X146477627Y-107824888D01*
X146513497Y-107819190D01*
X150965724Y-107772325D01*
X150989278Y-107774330D01*
X155016200Y-108508800D01*
X161120342Y-107101614D01*
X161155008Y-107098634D01*
X161674314Y-107127251D01*
X161777064Y-107122432D01*
X161820239Y-107115959D01*
X161826712Y-107114990D01*
X161847024Y-107109787D01*
X161926345Y-107089475D01*
X162052928Y-107021076D01*
X162109045Y-106979451D01*
X162109054Y-106979444D01*
X162114133Y-106974408D01*
X162217537Y-106871908D01*
X162218946Y-106873330D01*
X162265801Y-106838563D01*
X162280766Y-106834102D01*
X163008626Y-106666309D01*
X163078373Y-106670431D01*
G37*
%TD.AperFunction*%
%TD*%
M02*
