%TF.GenerationSoftware,KiCad,Pcbnew,9.0.6*%
%TF.CreationDate,2026-04-18T17:21:17+02:00*%
%TF.ProjectId,GP_POWER_CIRCUIT,47505f50-4f57-4455-925f-434952435549,rev?*%
%TF.SameCoordinates,Original*%
%TF.FileFunction,Legend,Top*%
%TF.FilePolarity,Positive*%
%FSLAX46Y46*%
G04 Gerber Fmt 4.6, Leading zero omitted, Abs format (unit mm)*
G04 Created by KiCad (PCBNEW 9.0.6) date 2026-04-18 17:21:17*
%MOMM*%
%LPD*%
G01*
G04 APERTURE LIST*
G04 Aperture macros list*
%AMRoundRect*
0 Rectangle with rounded corners*
0 $1 Rounding radius*
0 $2 $3 $4 $5 $6 $7 $8 $9 X,Y pos of 4 corners*
0 Add a 4 corners polygon primitive as box body*
4,1,4,$2,$3,$4,$5,$6,$7,$8,$9,$2,$3,0*
0 Add four circle primitives for the rounded corners*
1,1,$1+$1,$2,$3*
1,1,$1+$1,$4,$5*
1,1,$1+$1,$6,$7*
1,1,$1+$1,$8,$9*
0 Add four rect primitives between the rounded corners*
20,1,$1+$1,$2,$3,$4,$5,0*
20,1,$1+$1,$4,$5,$6,$7,0*
20,1,$1+$1,$6,$7,$8,$9,0*
20,1,$1+$1,$8,$9,$2,$3,0*%
G04 Aperture macros list end*
%ADD10C,0.150000*%
%ADD11C,0.120000*%
%ADD12C,1.600000*%
%ADD13RoundRect,1.500000X1.500000X1.500000X-1.500000X1.500000X-1.500000X-1.500000X1.500000X-1.500000X0*%
%ADD14C,6.000000*%
%ADD15C,3.200000*%
%ADD16RoundRect,0.250000X-1.050000X-1.050000X1.050000X-1.050000X1.050000X1.050000X-1.050000X1.050000X0*%
%ADD17C,2.600000*%
%ADD18RoundRect,0.250000X-1.050000X1.050000X-1.050000X-1.050000X1.050000X-1.050000X1.050000X1.050000X0*%
%ADD19RoundRect,0.250000X-0.750000X0.750000X-0.750000X-0.750000X0.750000X-0.750000X0.750000X0.750000X0*%
%ADD20C,2.000000*%
G04 APERTURE END LIST*
D10*
X147049980Y-86227266D02*
X147097600Y-86274885D01*
X147097600Y-86274885D02*
X147145219Y-86417742D01*
X147145219Y-86417742D02*
X147145219Y-86512980D01*
X147145219Y-86512980D02*
X147097600Y-86655837D01*
X147097600Y-86655837D02*
X147002361Y-86751075D01*
X147002361Y-86751075D02*
X146907123Y-86798694D01*
X146907123Y-86798694D02*
X146716647Y-86846313D01*
X146716647Y-86846313D02*
X146573790Y-86846313D01*
X146573790Y-86846313D02*
X146383314Y-86798694D01*
X146383314Y-86798694D02*
X146288076Y-86751075D01*
X146288076Y-86751075D02*
X146192838Y-86655837D01*
X146192838Y-86655837D02*
X146145219Y-86512980D01*
X146145219Y-86512980D02*
X146145219Y-86417742D01*
X146145219Y-86417742D02*
X146192838Y-86274885D01*
X146192838Y-86274885D02*
X146240457Y-86227266D01*
X146240457Y-85846313D02*
X146192838Y-85798694D01*
X146192838Y-85798694D02*
X146145219Y-85703456D01*
X146145219Y-85703456D02*
X146145219Y-85465361D01*
X146145219Y-85465361D02*
X146192838Y-85370123D01*
X146192838Y-85370123D02*
X146240457Y-85322504D01*
X146240457Y-85322504D02*
X146335695Y-85274885D01*
X146335695Y-85274885D02*
X146430933Y-85274885D01*
X146430933Y-85274885D02*
X146573790Y-85322504D01*
X146573790Y-85322504D02*
X147145219Y-85893932D01*
X147145219Y-85893932D02*
X147145219Y-85274885D01*
X139065760Y-106922219D02*
X139065760Y-107636504D01*
X139065760Y-107636504D02*
X139018141Y-107779361D01*
X139018141Y-107779361D02*
X138922903Y-107874600D01*
X138922903Y-107874600D02*
X138780046Y-107922219D01*
X138780046Y-107922219D02*
X138684808Y-107922219D01*
X140065760Y-107922219D02*
X139494332Y-107922219D01*
X139780046Y-107922219D02*
X139780046Y-106922219D01*
X139780046Y-106922219D02*
X139684808Y-107065076D01*
X139684808Y-107065076D02*
X139589570Y-107160314D01*
X139589570Y-107160314D02*
X139494332Y-107207933D01*
X140256237Y-108017457D02*
X141018141Y-108017457D01*
X141589570Y-107398409D02*
X141732427Y-107446028D01*
X141732427Y-107446028D02*
X141780046Y-107493647D01*
X141780046Y-107493647D02*
X141827665Y-107588885D01*
X141827665Y-107588885D02*
X141827665Y-107731742D01*
X141827665Y-107731742D02*
X141780046Y-107826980D01*
X141780046Y-107826980D02*
X141732427Y-107874600D01*
X141732427Y-107874600D02*
X141637189Y-107922219D01*
X141637189Y-107922219D02*
X141256237Y-107922219D01*
X141256237Y-107922219D02*
X141256237Y-106922219D01*
X141256237Y-106922219D02*
X141589570Y-106922219D01*
X141589570Y-106922219D02*
X141684808Y-106969838D01*
X141684808Y-106969838D02*
X141732427Y-107017457D01*
X141732427Y-107017457D02*
X141780046Y-107112695D01*
X141780046Y-107112695D02*
X141780046Y-107207933D01*
X141780046Y-107207933D02*
X141732427Y-107303171D01*
X141732427Y-107303171D02*
X141684808Y-107350790D01*
X141684808Y-107350790D02*
X141589570Y-107398409D01*
X141589570Y-107398409D02*
X141256237Y-107398409D01*
X142684808Y-107922219D02*
X142684808Y-107398409D01*
X142684808Y-107398409D02*
X142637189Y-107303171D01*
X142637189Y-107303171D02*
X142541951Y-107255552D01*
X142541951Y-107255552D02*
X142351475Y-107255552D01*
X142351475Y-107255552D02*
X142256237Y-107303171D01*
X142684808Y-107874600D02*
X142589570Y-107922219D01*
X142589570Y-107922219D02*
X142351475Y-107922219D01*
X142351475Y-107922219D02*
X142256237Y-107874600D01*
X142256237Y-107874600D02*
X142208618Y-107779361D01*
X142208618Y-107779361D02*
X142208618Y-107684123D01*
X142208618Y-107684123D02*
X142256237Y-107588885D01*
X142256237Y-107588885D02*
X142351475Y-107541266D01*
X142351475Y-107541266D02*
X142589570Y-107541266D01*
X142589570Y-107541266D02*
X142684808Y-107493647D01*
X143018142Y-107255552D02*
X143399094Y-107255552D01*
X143160999Y-106922219D02*
X143160999Y-107779361D01*
X143160999Y-107779361D02*
X143208618Y-107874600D01*
X143208618Y-107874600D02*
X143303856Y-107922219D01*
X143303856Y-107922219D02*
X143399094Y-107922219D01*
X143589571Y-107255552D02*
X143970523Y-107255552D01*
X143732428Y-106922219D02*
X143732428Y-107779361D01*
X143732428Y-107779361D02*
X143780047Y-107874600D01*
X143780047Y-107874600D02*
X143875285Y-107922219D01*
X143875285Y-107922219D02*
X143970523Y-107922219D01*
X144684809Y-107874600D02*
X144589571Y-107922219D01*
X144589571Y-107922219D02*
X144399095Y-107922219D01*
X144399095Y-107922219D02*
X144303857Y-107874600D01*
X144303857Y-107874600D02*
X144256238Y-107779361D01*
X144256238Y-107779361D02*
X144256238Y-107398409D01*
X144256238Y-107398409D02*
X144303857Y-107303171D01*
X144303857Y-107303171D02*
X144399095Y-107255552D01*
X144399095Y-107255552D02*
X144589571Y-107255552D01*
X144589571Y-107255552D02*
X144684809Y-107303171D01*
X144684809Y-107303171D02*
X144732428Y-107398409D01*
X144732428Y-107398409D02*
X144732428Y-107493647D01*
X144732428Y-107493647D02*
X144256238Y-107588885D01*
X145161000Y-107922219D02*
X145161000Y-107255552D01*
X145161000Y-107446028D02*
X145208619Y-107350790D01*
X145208619Y-107350790D02*
X145256238Y-107303171D01*
X145256238Y-107303171D02*
X145351476Y-107255552D01*
X145351476Y-107255552D02*
X145446714Y-107255552D01*
X145684810Y-107255552D02*
X145922905Y-107922219D01*
X146161000Y-107255552D02*
X145922905Y-107922219D01*
X145922905Y-107922219D02*
X145827667Y-108160314D01*
X145827667Y-108160314D02*
X145780048Y-108207933D01*
X145780048Y-108207933D02*
X145684810Y-108255552D01*
X146303858Y-108017457D02*
X147065762Y-108017457D01*
X147303858Y-107922219D02*
X147303858Y-107255552D01*
X147303858Y-106922219D02*
X147256239Y-106969838D01*
X147256239Y-106969838D02*
X147303858Y-107017457D01*
X147303858Y-107017457D02*
X147351477Y-106969838D01*
X147351477Y-106969838D02*
X147303858Y-106922219D01*
X147303858Y-106922219D02*
X147303858Y-107017457D01*
X147780048Y-107255552D02*
X147780048Y-107922219D01*
X147780048Y-107350790D02*
X147827667Y-107303171D01*
X147827667Y-107303171D02*
X147922905Y-107255552D01*
X147922905Y-107255552D02*
X148065762Y-107255552D01*
X148065762Y-107255552D02*
X148161000Y-107303171D01*
X148161000Y-107303171D02*
X148208619Y-107398409D01*
X148208619Y-107398409D02*
X148208619Y-107922219D01*
X148684810Y-107255552D02*
X148684810Y-108255552D01*
X148684810Y-107303171D02*
X148780048Y-107255552D01*
X148780048Y-107255552D02*
X148970524Y-107255552D01*
X148970524Y-107255552D02*
X149065762Y-107303171D01*
X149065762Y-107303171D02*
X149113381Y-107350790D01*
X149113381Y-107350790D02*
X149161000Y-107446028D01*
X149161000Y-107446028D02*
X149161000Y-107731742D01*
X149161000Y-107731742D02*
X149113381Y-107826980D01*
X149113381Y-107826980D02*
X149065762Y-107874600D01*
X149065762Y-107874600D02*
X148970524Y-107922219D01*
X148970524Y-107922219D02*
X148780048Y-107922219D01*
X148780048Y-107922219D02*
X148684810Y-107874600D01*
X150018143Y-107255552D02*
X150018143Y-107922219D01*
X149589572Y-107255552D02*
X149589572Y-107779361D01*
X149589572Y-107779361D02*
X149637191Y-107874600D01*
X149637191Y-107874600D02*
X149732429Y-107922219D01*
X149732429Y-107922219D02*
X149875286Y-107922219D01*
X149875286Y-107922219D02*
X149970524Y-107874600D01*
X149970524Y-107874600D02*
X150018143Y-107826980D01*
X150351477Y-107255552D02*
X150732429Y-107255552D01*
X150494334Y-106922219D02*
X150494334Y-107779361D01*
X150494334Y-107779361D02*
X150541953Y-107874600D01*
X150541953Y-107874600D02*
X150637191Y-107922219D01*
X150637191Y-107922219D02*
X150732429Y-107922219D01*
X151589572Y-107922219D02*
X151018144Y-107922219D01*
X151303858Y-107922219D02*
X151303858Y-106922219D01*
X151303858Y-106922219D02*
X151208620Y-107065076D01*
X151208620Y-107065076D02*
X151113382Y-107160314D01*
X151113382Y-107160314D02*
X151018144Y-107207933D01*
X159950495Y-107658119D02*
X159950495Y-108372404D01*
X159950495Y-108372404D02*
X159902876Y-108515261D01*
X159902876Y-108515261D02*
X159807638Y-108610500D01*
X159807638Y-108610500D02*
X159664781Y-108658119D01*
X159664781Y-108658119D02*
X159569543Y-108658119D01*
X160379067Y-107753357D02*
X160426686Y-107705738D01*
X160426686Y-107705738D02*
X160521924Y-107658119D01*
X160521924Y-107658119D02*
X160760019Y-107658119D01*
X160760019Y-107658119D02*
X160855257Y-107705738D01*
X160855257Y-107705738D02*
X160902876Y-107753357D01*
X160902876Y-107753357D02*
X160950495Y-107848595D01*
X160950495Y-107848595D02*
X160950495Y-107943833D01*
X160950495Y-107943833D02*
X160902876Y-108086690D01*
X160902876Y-108086690D02*
X160331448Y-108658119D01*
X160331448Y-108658119D02*
X160950495Y-108658119D01*
X161140972Y-108753357D02*
X161902876Y-108753357D01*
X162140972Y-108658119D02*
X162140972Y-107658119D01*
X162140972Y-107658119D02*
X162474305Y-108372404D01*
X162474305Y-108372404D02*
X162807638Y-107658119D01*
X162807638Y-107658119D02*
X162807638Y-108658119D01*
X163855257Y-108562880D02*
X163807638Y-108610500D01*
X163807638Y-108610500D02*
X163664781Y-108658119D01*
X163664781Y-108658119D02*
X163569543Y-108658119D01*
X163569543Y-108658119D02*
X163426686Y-108610500D01*
X163426686Y-108610500D02*
X163331448Y-108515261D01*
X163331448Y-108515261D02*
X163283829Y-108420023D01*
X163283829Y-108420023D02*
X163236210Y-108229547D01*
X163236210Y-108229547D02*
X163236210Y-108086690D01*
X163236210Y-108086690D02*
X163283829Y-107896214D01*
X163283829Y-107896214D02*
X163331448Y-107800976D01*
X163331448Y-107800976D02*
X163426686Y-107705738D01*
X163426686Y-107705738D02*
X163569543Y-107658119D01*
X163569543Y-107658119D02*
X163664781Y-107658119D01*
X163664781Y-107658119D02*
X163807638Y-107705738D01*
X163807638Y-107705738D02*
X163855257Y-107753357D01*
X164617162Y-108134309D02*
X164760019Y-108181928D01*
X164760019Y-108181928D02*
X164807638Y-108229547D01*
X164807638Y-108229547D02*
X164855257Y-108324785D01*
X164855257Y-108324785D02*
X164855257Y-108467642D01*
X164855257Y-108467642D02*
X164807638Y-108562880D01*
X164807638Y-108562880D02*
X164760019Y-108610500D01*
X164760019Y-108610500D02*
X164664781Y-108658119D01*
X164664781Y-108658119D02*
X164283829Y-108658119D01*
X164283829Y-108658119D02*
X164283829Y-107658119D01*
X164283829Y-107658119D02*
X164617162Y-107658119D01*
X164617162Y-107658119D02*
X164712400Y-107705738D01*
X164712400Y-107705738D02*
X164760019Y-107753357D01*
X164760019Y-107753357D02*
X164807638Y-107848595D01*
X164807638Y-107848595D02*
X164807638Y-107943833D01*
X164807638Y-107943833D02*
X164760019Y-108039071D01*
X164760019Y-108039071D02*
X164712400Y-108086690D01*
X164712400Y-108086690D02*
X164617162Y-108134309D01*
X164617162Y-108134309D02*
X164283829Y-108134309D01*
X165807638Y-108658119D02*
X165236210Y-108658119D01*
X165521924Y-108658119D02*
X165521924Y-107658119D01*
X165521924Y-107658119D02*
X165426686Y-107800976D01*
X165426686Y-107800976D02*
X165331448Y-107896214D01*
X165331448Y-107896214D02*
X165236210Y-107943833D01*
X196112419Y-99034947D02*
X196826704Y-99034947D01*
X196826704Y-99034947D02*
X196969561Y-99082566D01*
X196969561Y-99082566D02*
X197064800Y-99177804D01*
X197064800Y-99177804D02*
X197112419Y-99320661D01*
X197112419Y-99320661D02*
X197112419Y-99415899D01*
X196445752Y-98130185D02*
X197112419Y-98130185D01*
X196064800Y-98368280D02*
X196779085Y-98606375D01*
X196779085Y-98606375D02*
X196779085Y-97987328D01*
X197207657Y-97844471D02*
X197207657Y-97082566D01*
X197112419Y-96844470D02*
X196112419Y-96844470D01*
X196112419Y-96844470D02*
X196112419Y-96606375D01*
X196112419Y-96606375D02*
X196160038Y-96463518D01*
X196160038Y-96463518D02*
X196255276Y-96368280D01*
X196255276Y-96368280D02*
X196350514Y-96320661D01*
X196350514Y-96320661D02*
X196540990Y-96273042D01*
X196540990Y-96273042D02*
X196683847Y-96273042D01*
X196683847Y-96273042D02*
X196874323Y-96320661D01*
X196874323Y-96320661D02*
X196969561Y-96368280D01*
X196969561Y-96368280D02*
X197064800Y-96463518D01*
X197064800Y-96463518D02*
X197112419Y-96606375D01*
X197112419Y-96606375D02*
X197112419Y-96844470D01*
X197017180Y-95273042D02*
X197064800Y-95320661D01*
X197064800Y-95320661D02*
X197112419Y-95463518D01*
X197112419Y-95463518D02*
X197112419Y-95558756D01*
X197112419Y-95558756D02*
X197064800Y-95701613D01*
X197064800Y-95701613D02*
X196969561Y-95796851D01*
X196969561Y-95796851D02*
X196874323Y-95844470D01*
X196874323Y-95844470D02*
X196683847Y-95892089D01*
X196683847Y-95892089D02*
X196540990Y-95892089D01*
X196540990Y-95892089D02*
X196350514Y-95844470D01*
X196350514Y-95844470D02*
X196255276Y-95796851D01*
X196255276Y-95796851D02*
X196160038Y-95701613D01*
X196160038Y-95701613D02*
X196112419Y-95558756D01*
X196112419Y-95558756D02*
X196112419Y-95463518D01*
X196112419Y-95463518D02*
X196160038Y-95320661D01*
X196160038Y-95320661D02*
X196207657Y-95273042D01*
X196731466Y-94844470D02*
X196731466Y-94082566D01*
X197112419Y-93606375D02*
X196112419Y-93606375D01*
X196112419Y-93606375D02*
X196112419Y-93368280D01*
X196112419Y-93368280D02*
X196160038Y-93225423D01*
X196160038Y-93225423D02*
X196255276Y-93130185D01*
X196255276Y-93130185D02*
X196350514Y-93082566D01*
X196350514Y-93082566D02*
X196540990Y-93034947D01*
X196540990Y-93034947D02*
X196683847Y-93034947D01*
X196683847Y-93034947D02*
X196874323Y-93082566D01*
X196874323Y-93082566D02*
X196969561Y-93130185D01*
X196969561Y-93130185D02*
X197064800Y-93225423D01*
X197064800Y-93225423D02*
X197112419Y-93368280D01*
X197112419Y-93368280D02*
X197112419Y-93606375D01*
X197017180Y-92034947D02*
X197064800Y-92082566D01*
X197064800Y-92082566D02*
X197112419Y-92225423D01*
X197112419Y-92225423D02*
X197112419Y-92320661D01*
X197112419Y-92320661D02*
X197064800Y-92463518D01*
X197064800Y-92463518D02*
X196969561Y-92558756D01*
X196969561Y-92558756D02*
X196874323Y-92606375D01*
X196874323Y-92606375D02*
X196683847Y-92653994D01*
X196683847Y-92653994D02*
X196540990Y-92653994D01*
X196540990Y-92653994D02*
X196350514Y-92606375D01*
X196350514Y-92606375D02*
X196255276Y-92558756D01*
X196255276Y-92558756D02*
X196160038Y-92463518D01*
X196160038Y-92463518D02*
X196112419Y-92320661D01*
X196112419Y-92320661D02*
X196112419Y-92225423D01*
X196112419Y-92225423D02*
X196160038Y-92082566D01*
X196160038Y-92082566D02*
X196207657Y-92034947D01*
X197207657Y-91844471D02*
X197207657Y-91082566D01*
X197064800Y-90892089D02*
X197112419Y-90749232D01*
X197112419Y-90749232D02*
X197112419Y-90511137D01*
X197112419Y-90511137D02*
X197064800Y-90415899D01*
X197064800Y-90415899D02*
X197017180Y-90368280D01*
X197017180Y-90368280D02*
X196921942Y-90320661D01*
X196921942Y-90320661D02*
X196826704Y-90320661D01*
X196826704Y-90320661D02*
X196731466Y-90368280D01*
X196731466Y-90368280D02*
X196683847Y-90415899D01*
X196683847Y-90415899D02*
X196636228Y-90511137D01*
X196636228Y-90511137D02*
X196588609Y-90701613D01*
X196588609Y-90701613D02*
X196540990Y-90796851D01*
X196540990Y-90796851D02*
X196493371Y-90844470D01*
X196493371Y-90844470D02*
X196398133Y-90892089D01*
X196398133Y-90892089D02*
X196302895Y-90892089D01*
X196302895Y-90892089D02*
X196207657Y-90844470D01*
X196207657Y-90844470D02*
X196160038Y-90796851D01*
X196160038Y-90796851D02*
X196112419Y-90701613D01*
X196112419Y-90701613D02*
X196112419Y-90463518D01*
X196112419Y-90463518D02*
X196160038Y-90320661D01*
X196112419Y-90034946D02*
X196112419Y-89463518D01*
X197112419Y-89749232D02*
X196112419Y-89749232D01*
X197112419Y-89130184D02*
X196112419Y-89130184D01*
X196112419Y-89130184D02*
X196826704Y-88796851D01*
X196826704Y-88796851D02*
X196112419Y-88463518D01*
X196112419Y-88463518D02*
X197112419Y-88463518D01*
X197112419Y-87463518D02*
X197112419Y-88034946D01*
X197112419Y-87749232D02*
X196112419Y-87749232D01*
X196112419Y-87749232D02*
X196255276Y-87844470D01*
X196255276Y-87844470D02*
X196350514Y-87939708D01*
X196350514Y-87939708D02*
X196398133Y-88034946D01*
X184063180Y-85917066D02*
X184110800Y-85964685D01*
X184110800Y-85964685D02*
X184158419Y-86107542D01*
X184158419Y-86107542D02*
X184158419Y-86202780D01*
X184158419Y-86202780D02*
X184110800Y-86345637D01*
X184110800Y-86345637D02*
X184015561Y-86440875D01*
X184015561Y-86440875D02*
X183920323Y-86488494D01*
X183920323Y-86488494D02*
X183729847Y-86536113D01*
X183729847Y-86536113D02*
X183586990Y-86536113D01*
X183586990Y-86536113D02*
X183396514Y-86488494D01*
X183396514Y-86488494D02*
X183301276Y-86440875D01*
X183301276Y-86440875D02*
X183206038Y-86345637D01*
X183206038Y-86345637D02*
X183158419Y-86202780D01*
X183158419Y-86202780D02*
X183158419Y-86107542D01*
X183158419Y-86107542D02*
X183206038Y-85964685D01*
X183206038Y-85964685D02*
X183253657Y-85917066D01*
X183491752Y-85059923D02*
X184158419Y-85059923D01*
X183110800Y-85298018D02*
X183825085Y-85536113D01*
X183825085Y-85536113D02*
X183825085Y-84917066D01*
X142243894Y-70808019D02*
X142243894Y-71522304D01*
X142243894Y-71522304D02*
X142196275Y-71665161D01*
X142196275Y-71665161D02*
X142101037Y-71760400D01*
X142101037Y-71760400D02*
X141958180Y-71808019D01*
X141958180Y-71808019D02*
X141862942Y-71808019D01*
X142624847Y-70808019D02*
X143243894Y-70808019D01*
X143243894Y-70808019D02*
X142910561Y-71188971D01*
X142910561Y-71188971D02*
X143053418Y-71188971D01*
X143053418Y-71188971D02*
X143148656Y-71236590D01*
X143148656Y-71236590D02*
X143196275Y-71284209D01*
X143196275Y-71284209D02*
X143243894Y-71379447D01*
X143243894Y-71379447D02*
X143243894Y-71617542D01*
X143243894Y-71617542D02*
X143196275Y-71712780D01*
X143196275Y-71712780D02*
X143148656Y-71760400D01*
X143148656Y-71760400D02*
X143053418Y-71808019D01*
X143053418Y-71808019D02*
X142767704Y-71808019D01*
X142767704Y-71808019D02*
X142672466Y-71760400D01*
X142672466Y-71760400D02*
X142624847Y-71712780D01*
X143434371Y-71903257D02*
X144196275Y-71903257D01*
X144434371Y-71808019D02*
X144434371Y-70808019D01*
X144434371Y-70808019D02*
X144767704Y-71522304D01*
X144767704Y-71522304D02*
X145101037Y-70808019D01*
X145101037Y-70808019D02*
X145101037Y-71808019D01*
X145720085Y-71808019D02*
X145624847Y-71760400D01*
X145624847Y-71760400D02*
X145577228Y-71712780D01*
X145577228Y-71712780D02*
X145529609Y-71617542D01*
X145529609Y-71617542D02*
X145529609Y-71331828D01*
X145529609Y-71331828D02*
X145577228Y-71236590D01*
X145577228Y-71236590D02*
X145624847Y-71188971D01*
X145624847Y-71188971D02*
X145720085Y-71141352D01*
X145720085Y-71141352D02*
X145862942Y-71141352D01*
X145862942Y-71141352D02*
X145958180Y-71188971D01*
X145958180Y-71188971D02*
X146005799Y-71236590D01*
X146005799Y-71236590D02*
X146053418Y-71331828D01*
X146053418Y-71331828D02*
X146053418Y-71617542D01*
X146053418Y-71617542D02*
X146005799Y-71712780D01*
X146005799Y-71712780D02*
X145958180Y-71760400D01*
X145958180Y-71760400D02*
X145862942Y-71808019D01*
X145862942Y-71808019D02*
X145720085Y-71808019D01*
X146339133Y-71141352D02*
X146720085Y-71141352D01*
X146481990Y-70808019D02*
X146481990Y-71665161D01*
X146481990Y-71665161D02*
X146529609Y-71760400D01*
X146529609Y-71760400D02*
X146624847Y-71808019D01*
X146624847Y-71808019D02*
X146720085Y-71808019D01*
X147196276Y-71808019D02*
X147101038Y-71760400D01*
X147101038Y-71760400D02*
X147053419Y-71712780D01*
X147053419Y-71712780D02*
X147005800Y-71617542D01*
X147005800Y-71617542D02*
X147005800Y-71331828D01*
X147005800Y-71331828D02*
X147053419Y-71236590D01*
X147053419Y-71236590D02*
X147101038Y-71188971D01*
X147101038Y-71188971D02*
X147196276Y-71141352D01*
X147196276Y-71141352D02*
X147339133Y-71141352D01*
X147339133Y-71141352D02*
X147434371Y-71188971D01*
X147434371Y-71188971D02*
X147481990Y-71236590D01*
X147481990Y-71236590D02*
X147529609Y-71331828D01*
X147529609Y-71331828D02*
X147529609Y-71617542D01*
X147529609Y-71617542D02*
X147481990Y-71712780D01*
X147481990Y-71712780D02*
X147434371Y-71760400D01*
X147434371Y-71760400D02*
X147339133Y-71808019D01*
X147339133Y-71808019D02*
X147196276Y-71808019D01*
X147958181Y-71808019D02*
X147958181Y-71141352D01*
X147958181Y-71331828D02*
X148005800Y-71236590D01*
X148005800Y-71236590D02*
X148053419Y-71188971D01*
X148053419Y-71188971D02*
X148148657Y-71141352D01*
X148148657Y-71141352D02*
X148243895Y-71141352D01*
X149101038Y-71808019D02*
X148529610Y-71808019D01*
X148815324Y-71808019D02*
X148815324Y-70808019D01*
X148815324Y-70808019D02*
X148720086Y-70950876D01*
X148720086Y-70950876D02*
X148624848Y-71046114D01*
X148624848Y-71046114D02*
X148529610Y-71093733D01*
X169356952Y-118030980D02*
X170023619Y-118030980D01*
X168976000Y-118269075D02*
X169690285Y-118507170D01*
X169690285Y-118507170D02*
X169690285Y-117888123D01*
X169023619Y-117602408D02*
X169023619Y-116935742D01*
X169023619Y-116935742D02*
X170023619Y-117364313D01*
X169023619Y-116364313D02*
X169023619Y-116269075D01*
X169023619Y-116269075D02*
X169071238Y-116173837D01*
X169071238Y-116173837D02*
X169118857Y-116126218D01*
X169118857Y-116126218D02*
X169214095Y-116078599D01*
X169214095Y-116078599D02*
X169404571Y-116030980D01*
X169404571Y-116030980D02*
X169642666Y-116030980D01*
X169642666Y-116030980D02*
X169833142Y-116078599D01*
X169833142Y-116078599D02*
X169928380Y-116126218D01*
X169928380Y-116126218D02*
X169976000Y-116173837D01*
X169976000Y-116173837D02*
X170023619Y-116269075D01*
X170023619Y-116269075D02*
X170023619Y-116364313D01*
X170023619Y-116364313D02*
X169976000Y-116459551D01*
X169976000Y-116459551D02*
X169928380Y-116507170D01*
X169928380Y-116507170D02*
X169833142Y-116554789D01*
X169833142Y-116554789D02*
X169642666Y-116602408D01*
X169642666Y-116602408D02*
X169404571Y-116602408D01*
X169404571Y-116602408D02*
X169214095Y-116554789D01*
X169214095Y-116554789D02*
X169118857Y-116507170D01*
X169118857Y-116507170D02*
X169071238Y-116459551D01*
X169071238Y-116459551D02*
X169023619Y-116364313D01*
X169356952Y-115173837D02*
X170023619Y-115173837D01*
X169356952Y-115602408D02*
X169880761Y-115602408D01*
X169880761Y-115602408D02*
X169976000Y-115554789D01*
X169976000Y-115554789D02*
X170023619Y-115459551D01*
X170023619Y-115459551D02*
X170023619Y-115316694D01*
X170023619Y-115316694D02*
X169976000Y-115221456D01*
X169976000Y-115221456D02*
X169928380Y-115173837D01*
X169499809Y-114364313D02*
X169499809Y-114697646D01*
X170023619Y-114697646D02*
X169023619Y-114697646D01*
X169023619Y-114697646D02*
X169023619Y-114221456D01*
X159806094Y-70802719D02*
X159806094Y-71517004D01*
X159806094Y-71517004D02*
X159758475Y-71659861D01*
X159758475Y-71659861D02*
X159663237Y-71755100D01*
X159663237Y-71755100D02*
X159520380Y-71802719D01*
X159520380Y-71802719D02*
X159425142Y-71802719D01*
X160187047Y-70802719D02*
X160806094Y-70802719D01*
X160806094Y-70802719D02*
X160472761Y-71183671D01*
X160472761Y-71183671D02*
X160615618Y-71183671D01*
X160615618Y-71183671D02*
X160710856Y-71231290D01*
X160710856Y-71231290D02*
X160758475Y-71278909D01*
X160758475Y-71278909D02*
X160806094Y-71374147D01*
X160806094Y-71374147D02*
X160806094Y-71612242D01*
X160806094Y-71612242D02*
X160758475Y-71707480D01*
X160758475Y-71707480D02*
X160710856Y-71755100D01*
X160710856Y-71755100D02*
X160615618Y-71802719D01*
X160615618Y-71802719D02*
X160329904Y-71802719D01*
X160329904Y-71802719D02*
X160234666Y-71755100D01*
X160234666Y-71755100D02*
X160187047Y-71707480D01*
X160996571Y-71897957D02*
X161758475Y-71897957D01*
X161996571Y-71802719D02*
X161996571Y-70802719D01*
X161996571Y-70802719D02*
X162329904Y-71517004D01*
X162329904Y-71517004D02*
X162663237Y-70802719D01*
X162663237Y-70802719D02*
X162663237Y-71802719D01*
X163282285Y-71802719D02*
X163187047Y-71755100D01*
X163187047Y-71755100D02*
X163139428Y-71707480D01*
X163139428Y-71707480D02*
X163091809Y-71612242D01*
X163091809Y-71612242D02*
X163091809Y-71326528D01*
X163091809Y-71326528D02*
X163139428Y-71231290D01*
X163139428Y-71231290D02*
X163187047Y-71183671D01*
X163187047Y-71183671D02*
X163282285Y-71136052D01*
X163282285Y-71136052D02*
X163425142Y-71136052D01*
X163425142Y-71136052D02*
X163520380Y-71183671D01*
X163520380Y-71183671D02*
X163567999Y-71231290D01*
X163567999Y-71231290D02*
X163615618Y-71326528D01*
X163615618Y-71326528D02*
X163615618Y-71612242D01*
X163615618Y-71612242D02*
X163567999Y-71707480D01*
X163567999Y-71707480D02*
X163520380Y-71755100D01*
X163520380Y-71755100D02*
X163425142Y-71802719D01*
X163425142Y-71802719D02*
X163282285Y-71802719D01*
X163901333Y-71136052D02*
X164282285Y-71136052D01*
X164044190Y-70802719D02*
X164044190Y-71659861D01*
X164044190Y-71659861D02*
X164091809Y-71755100D01*
X164091809Y-71755100D02*
X164187047Y-71802719D01*
X164187047Y-71802719D02*
X164282285Y-71802719D01*
X164758476Y-71802719D02*
X164663238Y-71755100D01*
X164663238Y-71755100D02*
X164615619Y-71707480D01*
X164615619Y-71707480D02*
X164568000Y-71612242D01*
X164568000Y-71612242D02*
X164568000Y-71326528D01*
X164568000Y-71326528D02*
X164615619Y-71231290D01*
X164615619Y-71231290D02*
X164663238Y-71183671D01*
X164663238Y-71183671D02*
X164758476Y-71136052D01*
X164758476Y-71136052D02*
X164901333Y-71136052D01*
X164901333Y-71136052D02*
X164996571Y-71183671D01*
X164996571Y-71183671D02*
X165044190Y-71231290D01*
X165044190Y-71231290D02*
X165091809Y-71326528D01*
X165091809Y-71326528D02*
X165091809Y-71612242D01*
X165091809Y-71612242D02*
X165044190Y-71707480D01*
X165044190Y-71707480D02*
X164996571Y-71755100D01*
X164996571Y-71755100D02*
X164901333Y-71802719D01*
X164901333Y-71802719D02*
X164758476Y-71802719D01*
X165520381Y-71802719D02*
X165520381Y-71136052D01*
X165520381Y-71326528D02*
X165568000Y-71231290D01*
X165568000Y-71231290D02*
X165615619Y-71183671D01*
X165615619Y-71183671D02*
X165710857Y-71136052D01*
X165710857Y-71136052D02*
X165806095Y-71136052D01*
X166091810Y-70897957D02*
X166139429Y-70850338D01*
X166139429Y-70850338D02*
X166234667Y-70802719D01*
X166234667Y-70802719D02*
X166472762Y-70802719D01*
X166472762Y-70802719D02*
X166568000Y-70850338D01*
X166568000Y-70850338D02*
X166615619Y-70897957D01*
X166615619Y-70897957D02*
X166663238Y-70993195D01*
X166663238Y-70993195D02*
X166663238Y-71088433D01*
X166663238Y-71088433D02*
X166615619Y-71231290D01*
X166615619Y-71231290D02*
X166044191Y-71802719D01*
X166044191Y-71802719D02*
X166663238Y-71802719D01*
X165775180Y-85871666D02*
X165822800Y-85919285D01*
X165822800Y-85919285D02*
X165870419Y-86062142D01*
X165870419Y-86062142D02*
X165870419Y-86157380D01*
X165870419Y-86157380D02*
X165822800Y-86300237D01*
X165822800Y-86300237D02*
X165727561Y-86395475D01*
X165727561Y-86395475D02*
X165632323Y-86443094D01*
X165632323Y-86443094D02*
X165441847Y-86490713D01*
X165441847Y-86490713D02*
X165298990Y-86490713D01*
X165298990Y-86490713D02*
X165108514Y-86443094D01*
X165108514Y-86443094D02*
X165013276Y-86395475D01*
X165013276Y-86395475D02*
X164918038Y-86300237D01*
X164918038Y-86300237D02*
X164870419Y-86157380D01*
X164870419Y-86157380D02*
X164870419Y-86062142D01*
X164870419Y-86062142D02*
X164918038Y-85919285D01*
X164918038Y-85919285D02*
X164965657Y-85871666D01*
X164870419Y-85538332D02*
X164870419Y-84919285D01*
X164870419Y-84919285D02*
X165251371Y-85252618D01*
X165251371Y-85252618D02*
X165251371Y-85109761D01*
X165251371Y-85109761D02*
X165298990Y-85014523D01*
X165298990Y-85014523D02*
X165346609Y-84966904D01*
X165346609Y-84966904D02*
X165441847Y-84919285D01*
X165441847Y-84919285D02*
X165679942Y-84919285D01*
X165679942Y-84919285D02*
X165775180Y-84966904D01*
X165775180Y-84966904D02*
X165822800Y-85014523D01*
X165822800Y-85014523D02*
X165870419Y-85109761D01*
X165870419Y-85109761D02*
X165870419Y-85395475D01*
X165870419Y-85395475D02*
X165822800Y-85490713D01*
X165822800Y-85490713D02*
X165775180Y-85538332D01*
X177789294Y-70777319D02*
X177789294Y-71491604D01*
X177789294Y-71491604D02*
X177741675Y-71634461D01*
X177741675Y-71634461D02*
X177646437Y-71729700D01*
X177646437Y-71729700D02*
X177503580Y-71777319D01*
X177503580Y-71777319D02*
X177408342Y-71777319D01*
X178170247Y-70777319D02*
X178789294Y-70777319D01*
X178789294Y-70777319D02*
X178455961Y-71158271D01*
X178455961Y-71158271D02*
X178598818Y-71158271D01*
X178598818Y-71158271D02*
X178694056Y-71205890D01*
X178694056Y-71205890D02*
X178741675Y-71253509D01*
X178741675Y-71253509D02*
X178789294Y-71348747D01*
X178789294Y-71348747D02*
X178789294Y-71586842D01*
X178789294Y-71586842D02*
X178741675Y-71682080D01*
X178741675Y-71682080D02*
X178694056Y-71729700D01*
X178694056Y-71729700D02*
X178598818Y-71777319D01*
X178598818Y-71777319D02*
X178313104Y-71777319D01*
X178313104Y-71777319D02*
X178217866Y-71729700D01*
X178217866Y-71729700D02*
X178170247Y-71682080D01*
X178979771Y-71872557D02*
X179741675Y-71872557D01*
X179979771Y-71777319D02*
X179979771Y-70777319D01*
X179979771Y-70777319D02*
X180313104Y-71491604D01*
X180313104Y-71491604D02*
X180646437Y-70777319D01*
X180646437Y-70777319D02*
X180646437Y-71777319D01*
X181265485Y-71777319D02*
X181170247Y-71729700D01*
X181170247Y-71729700D02*
X181122628Y-71682080D01*
X181122628Y-71682080D02*
X181075009Y-71586842D01*
X181075009Y-71586842D02*
X181075009Y-71301128D01*
X181075009Y-71301128D02*
X181122628Y-71205890D01*
X181122628Y-71205890D02*
X181170247Y-71158271D01*
X181170247Y-71158271D02*
X181265485Y-71110652D01*
X181265485Y-71110652D02*
X181408342Y-71110652D01*
X181408342Y-71110652D02*
X181503580Y-71158271D01*
X181503580Y-71158271D02*
X181551199Y-71205890D01*
X181551199Y-71205890D02*
X181598818Y-71301128D01*
X181598818Y-71301128D02*
X181598818Y-71586842D01*
X181598818Y-71586842D02*
X181551199Y-71682080D01*
X181551199Y-71682080D02*
X181503580Y-71729700D01*
X181503580Y-71729700D02*
X181408342Y-71777319D01*
X181408342Y-71777319D02*
X181265485Y-71777319D01*
X181884533Y-71110652D02*
X182265485Y-71110652D01*
X182027390Y-70777319D02*
X182027390Y-71634461D01*
X182027390Y-71634461D02*
X182075009Y-71729700D01*
X182075009Y-71729700D02*
X182170247Y-71777319D01*
X182170247Y-71777319D02*
X182265485Y-71777319D01*
X182741676Y-71777319D02*
X182646438Y-71729700D01*
X182646438Y-71729700D02*
X182598819Y-71682080D01*
X182598819Y-71682080D02*
X182551200Y-71586842D01*
X182551200Y-71586842D02*
X182551200Y-71301128D01*
X182551200Y-71301128D02*
X182598819Y-71205890D01*
X182598819Y-71205890D02*
X182646438Y-71158271D01*
X182646438Y-71158271D02*
X182741676Y-71110652D01*
X182741676Y-71110652D02*
X182884533Y-71110652D01*
X182884533Y-71110652D02*
X182979771Y-71158271D01*
X182979771Y-71158271D02*
X183027390Y-71205890D01*
X183027390Y-71205890D02*
X183075009Y-71301128D01*
X183075009Y-71301128D02*
X183075009Y-71586842D01*
X183075009Y-71586842D02*
X183027390Y-71682080D01*
X183027390Y-71682080D02*
X182979771Y-71729700D01*
X182979771Y-71729700D02*
X182884533Y-71777319D01*
X182884533Y-71777319D02*
X182741676Y-71777319D01*
X183503581Y-71777319D02*
X183503581Y-71110652D01*
X183503581Y-71301128D02*
X183551200Y-71205890D01*
X183551200Y-71205890D02*
X183598819Y-71158271D01*
X183598819Y-71158271D02*
X183694057Y-71110652D01*
X183694057Y-71110652D02*
X183789295Y-71110652D01*
X184027391Y-70777319D02*
X184646438Y-70777319D01*
X184646438Y-70777319D02*
X184313105Y-71158271D01*
X184313105Y-71158271D02*
X184455962Y-71158271D01*
X184455962Y-71158271D02*
X184551200Y-71205890D01*
X184551200Y-71205890D02*
X184598819Y-71253509D01*
X184598819Y-71253509D02*
X184646438Y-71348747D01*
X184646438Y-71348747D02*
X184646438Y-71586842D01*
X184646438Y-71586842D02*
X184598819Y-71682080D01*
X184598819Y-71682080D02*
X184551200Y-71729700D01*
X184551200Y-71729700D02*
X184455962Y-71777319D01*
X184455962Y-71777319D02*
X184170248Y-71777319D01*
X184170248Y-71777319D02*
X184075010Y-71729700D01*
X184075010Y-71729700D02*
X184027391Y-71682080D01*
D11*
%TO.C,C2*%
X142820400Y-83440600D02*
X145560400Y-83440600D01*
X142820400Y-88680600D02*
X142820400Y-83440600D01*
X145560400Y-83440600D02*
X145560400Y-88680600D01*
X145560400Y-88680600D02*
X142820400Y-88680600D01*
%TO.C,J1_Battery_input1*%
X137717400Y-110048400D02*
X137717400Y-118348400D01*
X137717400Y-118348400D02*
X150567400Y-118348400D01*
X150567400Y-110048400D02*
X137717400Y-110048400D01*
X150567400Y-118348400D02*
X153417400Y-115798400D01*
X153417400Y-112648400D02*
X150567400Y-110048400D01*
X153417400Y-115798400D02*
X153417400Y-112648400D01*
%TO.C,J2_MCB1*%
X157592400Y-109203300D02*
X167832400Y-109203300D01*
X157592400Y-112223300D02*
X167832400Y-112223300D01*
X157592400Y-117123300D02*
X167832400Y-117123300D01*
X157592400Y-118623300D02*
X167832400Y-118623300D01*
X157592400Y-119243300D02*
X157592400Y-109203300D01*
X159912400Y-119243300D02*
X157592400Y-119243300D01*
X167832400Y-109203300D02*
X167832400Y-119243300D01*
X167832400Y-119243300D02*
X160512400Y-119243300D01*
X160652400Y-119853300D02*
X159772400Y-119853300D01*
X160212400Y-119243300D01*
X160652400Y-119853300D01*
G36*
X160652400Y-119853300D02*
G01*
X159772400Y-119853300D01*
X160212400Y-119243300D01*
X160652400Y-119853300D01*
G37*
%TO.C,J4_DC-DC_STM1*%
X198459900Y-88174200D02*
X208499900Y-88174200D01*
X198459900Y-90494200D02*
X198459900Y-88174200D01*
X198459900Y-98414200D02*
X198459900Y-91094200D01*
X199079900Y-88174200D02*
X199079900Y-98414200D01*
X200579900Y-88174200D02*
X200579900Y-98414200D01*
X205479900Y-88174200D02*
X205479900Y-98414200D01*
X208499900Y-88174200D02*
X208499900Y-98414200D01*
X208499900Y-98414200D02*
X198459900Y-98414200D01*
X198459900Y-90794200D02*
X197849900Y-91234200D01*
X197849900Y-90354200D01*
X198459900Y-90794200D01*
G36*
X198459900Y-90794200D02*
G01*
X197849900Y-91234200D01*
X197849900Y-90354200D01*
X198459900Y-90794200D01*
G37*
%TO.C,C4*%
X179833600Y-83130400D02*
X182573600Y-83130400D01*
X179833600Y-88370400D02*
X179833600Y-83130400D01*
X182573600Y-83130400D02*
X182573600Y-88370400D01*
X182573600Y-88370400D02*
X179833600Y-88370400D01*
%TO.C,J3_Motor1*%
X140385800Y-72353200D02*
X150625800Y-72353200D01*
X140385800Y-75373200D02*
X150625800Y-75373200D01*
X140385800Y-80273200D02*
X150625800Y-80273200D01*
X140385800Y-81773200D02*
X150625800Y-81773200D01*
X140385800Y-82393200D02*
X140385800Y-72353200D01*
X142705800Y-82393200D02*
X140385800Y-82393200D01*
X150625800Y-72353200D02*
X150625800Y-82393200D01*
X150625800Y-82393200D02*
X143305800Y-82393200D01*
X143445800Y-83003200D02*
X142565800Y-83003200D01*
X143005800Y-82393200D01*
X143445800Y-83003200D01*
G36*
X143445800Y-83003200D02*
G01*
X142565800Y-83003200D01*
X143005800Y-82393200D01*
X143445800Y-83003200D01*
G37*
%TO.C,C1*%
X174578800Y-117668123D02*
X170901800Y-117668123D01*
X174578800Y-117708123D02*
X170911800Y-117708123D01*
X174578800Y-117748123D02*
X170922800Y-117748123D01*
X174578800Y-117788123D02*
X170933800Y-117788123D01*
X174578800Y-117828123D02*
X170945800Y-117828123D01*
X174578800Y-117868123D02*
X170957800Y-117868123D01*
X174578800Y-117908123D02*
X170969800Y-117908123D01*
X174578800Y-117948123D02*
X170981800Y-117948123D01*
X174578800Y-117988123D02*
X170994800Y-117988123D01*
X174578800Y-118028123D02*
X171008800Y-118028123D01*
X174578800Y-118068123D02*
X171021800Y-118068123D01*
X174578800Y-118108123D02*
X171036800Y-118108123D01*
X174578800Y-118148123D02*
X171050800Y-118148123D01*
X174578800Y-118188123D02*
X171065800Y-118188123D01*
X174578800Y-118228123D02*
X171080800Y-118228123D01*
X174578800Y-118268123D02*
X171096800Y-118268123D01*
X174578800Y-118308123D02*
X171112800Y-118308123D01*
X174578800Y-118348123D02*
X171128800Y-118348123D01*
X174578800Y-118388123D02*
X171145800Y-118388123D01*
X174578800Y-118428123D02*
X171162800Y-118428123D01*
X174578800Y-118468123D02*
X171180800Y-118468123D01*
X174578800Y-118508123D02*
X171198800Y-118508123D01*
X174578800Y-118548123D02*
X171216800Y-118548123D01*
X174578800Y-118588123D02*
X171235800Y-118588123D01*
X174578800Y-118628123D02*
X171254800Y-118628123D01*
X174578800Y-118668123D02*
X171274800Y-118668123D01*
X174578800Y-118708123D02*
X171294800Y-118708123D01*
X174578800Y-118748123D02*
X171314800Y-118748123D01*
X174578800Y-118788123D02*
X171335800Y-118788123D01*
X174578800Y-118828123D02*
X171357800Y-118828123D01*
X174578800Y-118868123D02*
X171379800Y-118868123D01*
X174578800Y-118908123D02*
X171401800Y-118908123D01*
X174578800Y-118948123D02*
X171424800Y-118948123D01*
X174578800Y-118988123D02*
X171447800Y-118988123D01*
X174578800Y-119028123D02*
X171471800Y-119028123D01*
X174578800Y-119068123D02*
X171495800Y-119068123D01*
X174578800Y-119108123D02*
X171520800Y-119108123D01*
X174578800Y-119148123D02*
X171546800Y-119148123D01*
X174578800Y-119188123D02*
X171571800Y-119188123D01*
X174578800Y-119228123D02*
X171598800Y-119228123D01*
X174578800Y-119268123D02*
X171625800Y-119268123D01*
X174578800Y-119308123D02*
X171652800Y-119308123D01*
X174578800Y-119348123D02*
X171680800Y-119348123D01*
X174578800Y-119388123D02*
X171709800Y-119388123D01*
X174578800Y-119428123D02*
X171738800Y-119428123D01*
X174578800Y-119468123D02*
X171768800Y-119468123D01*
X174578800Y-119508123D02*
X171798800Y-119508123D01*
X174578800Y-119548123D02*
X171830800Y-119548123D01*
X174578800Y-119588123D02*
X171861800Y-119588123D01*
X174578800Y-119628123D02*
X171894800Y-119628123D01*
X174578800Y-119668123D02*
X171927800Y-119668123D01*
X174578800Y-119708123D02*
X171960800Y-119708123D01*
X174578800Y-119748123D02*
X171995800Y-119748123D01*
X174578800Y-119788123D02*
X172030800Y-119788123D01*
X174578800Y-119828123D02*
X172066800Y-119828123D01*
X174578800Y-119868123D02*
X172102800Y-119868123D01*
X174578800Y-119908123D02*
X172140800Y-119908123D01*
X174578800Y-119948123D02*
X172178800Y-119948123D01*
X174578800Y-119988123D02*
X172217800Y-119988123D01*
X174578800Y-120028123D02*
X172257800Y-120028123D01*
X174578800Y-120068123D02*
X172298800Y-120068123D01*
X174578800Y-120108123D02*
X172340800Y-120108123D01*
X176417800Y-121468123D02*
X175219800Y-121468123D01*
X176680800Y-121428123D02*
X174956800Y-121428123D01*
X176880800Y-121388123D02*
X174756800Y-121388123D01*
X177048800Y-121348123D02*
X174588800Y-121348123D01*
X177195800Y-121308123D02*
X174441800Y-121308123D01*
X177327800Y-121268123D02*
X174309800Y-121268123D01*
X177448800Y-121228123D02*
X174188800Y-121228123D01*
X177560800Y-121188123D02*
X174076800Y-121188123D01*
X177664800Y-121148123D02*
X173972800Y-121148123D01*
X177762800Y-121108123D02*
X173874800Y-121108123D01*
X177855800Y-121068123D02*
X173781800Y-121068123D01*
X177942800Y-121028123D02*
X173694800Y-121028123D01*
X178026800Y-120988123D02*
X173610800Y-120988123D01*
X178106800Y-120948123D02*
X173530800Y-120948123D01*
X178183800Y-120908123D02*
X173453800Y-120908123D01*
X178257800Y-120868123D02*
X173379800Y-120868123D01*
X178328800Y-120828123D02*
X173308800Y-120828123D01*
X178396800Y-120788123D02*
X173240800Y-120788123D01*
X178462800Y-120748123D02*
X173174800Y-120748123D01*
X178526800Y-120708123D02*
X173110800Y-120708123D01*
X178588800Y-120668123D02*
X173048800Y-120668123D01*
X178648800Y-120628123D02*
X172988800Y-120628123D01*
X178693800Y-110908477D02*
X178693800Y-111908477D01*
X178706800Y-120588123D02*
X172930800Y-120588123D01*
X178763800Y-120548123D02*
X172873800Y-120548123D01*
X178818800Y-120508123D02*
X172818800Y-120508123D01*
X178871800Y-120468123D02*
X172765800Y-120468123D01*
X178923800Y-120428123D02*
X172713800Y-120428123D01*
X178974800Y-120388123D02*
X172662800Y-120388123D01*
X179023800Y-120348123D02*
X172613800Y-120348123D01*
X179072800Y-120308123D02*
X172564800Y-120308123D01*
X179119800Y-120268123D02*
X172517800Y-120268123D01*
X179165800Y-120228123D02*
X172471800Y-120228123D01*
X179193800Y-111408477D02*
X178193800Y-111408477D01*
X179209800Y-120188123D02*
X172427800Y-120188123D01*
X179253800Y-120148123D02*
X172383800Y-120148123D01*
X179296800Y-120108123D02*
X177058800Y-120108123D01*
X179338800Y-120068123D02*
X177058800Y-120068123D01*
X179379800Y-120028123D02*
X177058800Y-120028123D01*
X179419800Y-119988123D02*
X177058800Y-119988123D01*
X179458800Y-119948123D02*
X177058800Y-119948123D01*
X179496800Y-119908123D02*
X177058800Y-119908123D01*
X179534800Y-119868123D02*
X177058800Y-119868123D01*
X179570800Y-119828123D02*
X177058800Y-119828123D01*
X179606800Y-119788123D02*
X177058800Y-119788123D01*
X179641800Y-119748123D02*
X177058800Y-119748123D01*
X179676800Y-119708123D02*
X177058800Y-119708123D01*
X179709800Y-119668123D02*
X177058800Y-119668123D01*
X179742800Y-119628123D02*
X177058800Y-119628123D01*
X179775800Y-119588123D02*
X177058800Y-119588123D01*
X179806800Y-119548123D02*
X177058800Y-119548123D01*
X179838800Y-119508123D02*
X177058800Y-119508123D01*
X179868800Y-119468123D02*
X177058800Y-119468123D01*
X179898800Y-119428123D02*
X177058800Y-119428123D01*
X179927800Y-119388123D02*
X177058800Y-119388123D01*
X179956800Y-119348123D02*
X177058800Y-119348123D01*
X179984800Y-119308123D02*
X177058800Y-119308123D01*
X180011800Y-119268123D02*
X177058800Y-119268123D01*
X180038800Y-119228123D02*
X177058800Y-119228123D01*
X180065800Y-119188123D02*
X177058800Y-119188123D01*
X180090800Y-119148123D02*
X177058800Y-119148123D01*
X180116800Y-119108123D02*
X177058800Y-119108123D01*
X180141800Y-119068123D02*
X177058800Y-119068123D01*
X180165800Y-119028123D02*
X177058800Y-119028123D01*
X180189800Y-118988123D02*
X177058800Y-118988123D01*
X180212800Y-118948123D02*
X177058800Y-118948123D01*
X180235800Y-118908123D02*
X177058800Y-118908123D01*
X180257800Y-118868123D02*
X177058800Y-118868123D01*
X180279800Y-118828123D02*
X177058800Y-118828123D01*
X180301800Y-118788123D02*
X177058800Y-118788123D01*
X180322800Y-118748123D02*
X177058800Y-118748123D01*
X180342800Y-118708123D02*
X177058800Y-118708123D01*
X180362800Y-118668123D02*
X177058800Y-118668123D01*
X180382800Y-118628123D02*
X177058800Y-118628123D01*
X180401800Y-118588123D02*
X177058800Y-118588123D01*
X180420800Y-118548123D02*
X177058800Y-118548123D01*
X180438800Y-118508123D02*
X177058800Y-118508123D01*
X180456800Y-118468123D02*
X177058800Y-118468123D01*
X180474800Y-118428123D02*
X177058800Y-118428123D01*
X180491800Y-118388123D02*
X177058800Y-118388123D01*
X180508800Y-118348123D02*
X177058800Y-118348123D01*
X180524800Y-118308123D02*
X177058800Y-118308123D01*
X180540800Y-118268123D02*
X177058800Y-118268123D01*
X180556800Y-118228123D02*
X177058800Y-118228123D01*
X180571800Y-118188123D02*
X177058800Y-118188123D01*
X180586800Y-118148123D02*
X177058800Y-118148123D01*
X180600800Y-118108123D02*
X177058800Y-118108123D01*
X180615800Y-118068123D02*
X177058800Y-118068123D01*
X180628800Y-118028123D02*
X177058800Y-118028123D01*
X180642800Y-117988123D02*
X177058800Y-117988123D01*
X180655800Y-117948123D02*
X177058800Y-117948123D01*
X180667800Y-117908123D02*
X177058800Y-117908123D01*
X180679800Y-117868123D02*
X177058800Y-117868123D01*
X180691800Y-117828123D02*
X177058800Y-117828123D01*
X180703800Y-117788123D02*
X177058800Y-117788123D01*
X180714800Y-117748123D02*
X177058800Y-117748123D01*
X180725800Y-117708123D02*
X177058800Y-117708123D01*
X180735800Y-117668123D02*
X177058800Y-117668123D01*
X180746800Y-117628123D02*
X170890800Y-117628123D01*
X180755800Y-117588123D02*
X170881800Y-117588123D01*
X180765800Y-117548123D02*
X170871800Y-117548123D01*
X180774800Y-117508123D02*
X170862800Y-117508123D01*
X180783800Y-117468123D02*
X170853800Y-117468123D01*
X180791800Y-117428123D02*
X170845800Y-117428123D01*
X180799800Y-117388123D02*
X170837800Y-117388123D01*
X180807800Y-117348123D02*
X170829800Y-117348123D01*
X180815800Y-117308123D02*
X170821800Y-117308123D01*
X180822800Y-117268123D02*
X170814800Y-117268123D01*
X180829800Y-117228123D02*
X170807800Y-117228123D01*
X180835800Y-117188123D02*
X170801800Y-117188123D01*
X180841800Y-117148123D02*
X170795800Y-117148123D01*
X180847800Y-117108123D02*
X170789800Y-117108123D01*
X180853800Y-117068123D02*
X170783800Y-117068123D01*
X180858800Y-117028123D02*
X170778800Y-117028123D01*
X180863800Y-116988123D02*
X170773800Y-116988123D01*
X180867800Y-116948123D02*
X170769800Y-116948123D01*
X180872800Y-116908123D02*
X170764800Y-116908123D01*
X180875800Y-116868123D02*
X170761800Y-116868123D01*
X180879800Y-116828123D02*
X170757800Y-116828123D01*
X180882800Y-116788123D02*
X170754800Y-116788123D01*
X180885800Y-116748123D02*
X170751800Y-116748123D01*
X180888800Y-116708123D02*
X170748800Y-116708123D01*
X180890800Y-116668123D02*
X170746800Y-116668123D01*
X180892800Y-116628123D02*
X170744800Y-116628123D01*
X180894800Y-116588123D02*
X170742800Y-116588123D01*
X180895800Y-116548123D02*
X170741800Y-116548123D01*
X180897800Y-116468123D02*
X170739800Y-116468123D01*
X180897800Y-116508123D02*
X170739800Y-116508123D01*
X180898800Y-116388123D02*
X170738800Y-116388123D01*
X180898800Y-116428123D02*
X170738800Y-116428123D01*
X180938800Y-116388123D02*
G75*
G02*
X170698800Y-116388123I-5120000J0D01*
G01*
X170698800Y-116388123D02*
G75*
G02*
X180938800Y-116388123I5120000J0D01*
G01*
%TO.C,J3_Motor2*%
X157948000Y-72347900D02*
X168188000Y-72347900D01*
X157948000Y-75367900D02*
X168188000Y-75367900D01*
X157948000Y-80267900D02*
X168188000Y-80267900D01*
X157948000Y-81767900D02*
X168188000Y-81767900D01*
X157948000Y-82387900D02*
X157948000Y-72347900D01*
X160268000Y-82387900D02*
X157948000Y-82387900D01*
X168188000Y-72347900D02*
X168188000Y-82387900D01*
X168188000Y-82387900D02*
X160868000Y-82387900D01*
X161008000Y-82997900D02*
X160128000Y-82997900D01*
X160568000Y-82387900D01*
X161008000Y-82997900D01*
G36*
X161008000Y-82997900D02*
G01*
X160128000Y-82997900D01*
X160568000Y-82387900D01*
X161008000Y-82997900D01*
G37*
%TO.C,C3*%
X161545600Y-83085000D02*
X164285600Y-83085000D01*
X161545600Y-88325000D02*
X161545600Y-83085000D01*
X164285600Y-83085000D02*
X164285600Y-88325000D01*
X164285600Y-88325000D02*
X161545600Y-88325000D01*
%TO.C,J3_Motor3*%
X175931200Y-72322500D02*
X186171200Y-72322500D01*
X175931200Y-75342500D02*
X186171200Y-75342500D01*
X175931200Y-80242500D02*
X186171200Y-80242500D01*
X175931200Y-81742500D02*
X186171200Y-81742500D01*
X175931200Y-82362500D02*
X175931200Y-72322500D01*
X178251200Y-82362500D02*
X175931200Y-82362500D01*
X186171200Y-72322500D02*
X186171200Y-82362500D01*
X186171200Y-82362500D02*
X178851200Y-82362500D01*
X178991200Y-82972500D02*
X178111200Y-82972500D01*
X178551200Y-82362500D01*
X178991200Y-82972500D01*
G36*
X178991200Y-82972500D02*
G01*
X178111200Y-82972500D01*
X178551200Y-82362500D01*
X178991200Y-82972500D01*
G37*
%TD*%
%LPC*%
D12*
%TO.C,C2*%
X144190400Y-84810600D03*
X144190400Y-87310600D03*
%TD*%
D13*
%TO.C,J1_Battery_input1*%
X149167400Y-114198400D03*
D14*
X141967400Y-114198400D03*
%TD*%
D15*
%TO.C,REF\u002A\u002A*%
X131872900Y-116796500D03*
%TD*%
D16*
%TO.C,J2_MCB1*%
X160212400Y-114523300D03*
D17*
X165212400Y-114523300D03*
%TD*%
D18*
%TO.C,J4_DC-DC_STM1*%
X203179900Y-90794200D03*
D17*
X203179900Y-95794200D03*
%TD*%
D15*
%TO.C,REF\u002A\u002A*%
X131872900Y-73383500D03*
%TD*%
D12*
%TO.C,C4*%
X181203600Y-84500400D03*
X181203600Y-87000400D03*
%TD*%
D16*
%TO.C,J3_Motor1*%
X143005800Y-77673200D03*
D17*
X148005800Y-77673200D03*
%TD*%
D19*
%TO.C,C1*%
X175818800Y-113888123D03*
D20*
X175818800Y-118888123D03*
%TD*%
D15*
%TO.C,REF\u002A\u002A*%
X205872900Y-116796500D03*
%TD*%
D16*
%TO.C,J3_Motor2*%
X160568000Y-77667900D03*
D17*
X165568000Y-77667900D03*
%TD*%
D12*
%TO.C,C3*%
X162915600Y-84455000D03*
X162915600Y-86955000D03*
%TD*%
D15*
%TO.C,REF\u002A\u002A*%
X205872900Y-73383500D03*
%TD*%
D16*
%TO.C,J3_Motor3*%
X178551200Y-77642500D03*
D17*
X183551200Y-77642500D03*
%TD*%
%LPD*%
M02*
