%TF.GenerationSoftware,KiCad,Pcbnew,9.0.6*%
%TF.CreationDate,2026-04-18T19:11:32+02:00*%
%TF.ProjectId,GP_POWER_CIRCUIT,47505f50-4f57-4455-925f-434952435549,rev?*%
%TF.SameCoordinates,Original*%
%TF.FileFunction,Drillmap*%
%TF.FilePolarity,Positive*%
%FSLAX45Y45*%
G04 Gerber Fmt 4.5, Leading zero omitted, Abs format (unit mm)*
G04 Created by KiCad (PCBNEW 9.0.6) date 2026-04-18 19:11:32*
%MOMM*%
%LPD*%
G01*
G04 APERTURE LIST*
%ADD10C,0.100000*%
%ADD11C,0.200000*%
%ADD12C,0.130000*%
%ADD13C,0.450000*%
%ADD14C,0.320000*%
G04 APERTURE END LIST*
D10*
X12787290Y-6938350D02*
X20987290Y-6938350D01*
X20987290Y-12079650D01*
X12787290Y-12079650D01*
X12787290Y-6938350D01*
D11*
D10*
X14379040Y-8441060D02*
X14459040Y-8521060D01*
X14459040Y-8441060D02*
X14379040Y-8521060D01*
X14379040Y-8691060D02*
X14459040Y-8771060D01*
X14459040Y-8691060D02*
X14379040Y-8771060D01*
X16251560Y-8405500D02*
X16331560Y-8485500D01*
X16331560Y-8405500D02*
X16251560Y-8485500D01*
X16251560Y-8655500D02*
X16331560Y-8735500D01*
X16331560Y-8655500D02*
X16251560Y-8735500D01*
X18080360Y-8410040D02*
X18160360Y-8490040D01*
X18160360Y-8410040D02*
X18080360Y-8490040D01*
X18080360Y-8660040D02*
X18160360Y-8740040D01*
X18160360Y-8660040D02*
X18080360Y-8740040D01*
X17631880Y-11388812D02*
G75*
G02*
X17531880Y-11388812I-50000J0D01*
G01*
X17531880Y-11388812D02*
G75*
G02*
X17631880Y-11388812I50000J0D01*
G01*
X17631880Y-11888812D02*
G75*
G02*
X17531880Y-11888812I-50000J0D01*
G01*
X17531880Y-11888812D02*
G75*
G02*
X17631880Y-11888812I50000J0D01*
G01*
D12*
X14300580Y-7702320D02*
X14300580Y-7832320D01*
X14235580Y-7767320D02*
X14365580Y-7767320D01*
X14800580Y-7702320D02*
X14800580Y-7832320D01*
X14735580Y-7767320D02*
X14865580Y-7767320D01*
X16021240Y-11387330D02*
X16021240Y-11517330D01*
X15956240Y-11452330D02*
X16086240Y-11452330D01*
X16056800Y-7701790D02*
X16056800Y-7831790D01*
X15991800Y-7766790D02*
X16121800Y-7766790D01*
X16521240Y-11387330D02*
X16521240Y-11517330D01*
X16456240Y-11452330D02*
X16586240Y-11452330D01*
X16556800Y-7701790D02*
X16556800Y-7831790D01*
X16491800Y-7766790D02*
X16621800Y-7766790D01*
X17855120Y-7699250D02*
X17855120Y-7829250D01*
X17790120Y-7764250D02*
X17920120Y-7764250D01*
X18355120Y-7699250D02*
X18355120Y-7829250D01*
X18290120Y-7764250D02*
X18420120Y-7764250D01*
X19562000Y-9352790D02*
X19562000Y-9482790D01*
X19497000Y-9417790D02*
X19627000Y-9417790D01*
X20062000Y-9352790D02*
X20062000Y-9482790D01*
X19997000Y-9417790D02*
X20127000Y-9417790D01*
D13*
X14355841Y-11578941D02*
X14355841Y-11260739D01*
X14037639Y-11260739D01*
X14037639Y-11578941D01*
X14355841Y-11578941D01*
X15075841Y-11578941D02*
X15075841Y-11260739D01*
X14757639Y-11260739D01*
X14757639Y-11578941D01*
X15075841Y-11578941D01*
D14*
X13187290Y-7498350D02*
X13347290Y-7338350D01*
X13187290Y-7178350D01*
X13027290Y-7338350D01*
X13187290Y-7498350D01*
X13187290Y-11839650D02*
X13347290Y-11679650D01*
X13187290Y-11519650D01*
X13027290Y-11679650D01*
X13187290Y-11839650D01*
X20587290Y-7498350D02*
X20747290Y-7338350D01*
X20587290Y-7178350D01*
X20427290Y-7338350D01*
X20587290Y-7498350D01*
X20587290Y-11839650D02*
X20747290Y-11679650D01*
X20587290Y-11519650D01*
X20427290Y-11679650D01*
X20587290Y-11839650D01*
D11*
X13043067Y-12396134D02*
X13043067Y-12196134D01*
X13043067Y-12196134D02*
X13090686Y-12196134D01*
X13090686Y-12196134D02*
X13119257Y-12205658D01*
X13119257Y-12205658D02*
X13138305Y-12224705D01*
X13138305Y-12224705D02*
X13147829Y-12243753D01*
X13147829Y-12243753D02*
X13157352Y-12281848D01*
X13157352Y-12281848D02*
X13157352Y-12310419D01*
X13157352Y-12310419D02*
X13147829Y-12348515D01*
X13147829Y-12348515D02*
X13138305Y-12367562D01*
X13138305Y-12367562D02*
X13119257Y-12386610D01*
X13119257Y-12386610D02*
X13090686Y-12396134D01*
X13090686Y-12396134D02*
X13043067Y-12396134D01*
X13243067Y-12396134D02*
X13243067Y-12262800D01*
X13243067Y-12300896D02*
X13252591Y-12281848D01*
X13252591Y-12281848D02*
X13262114Y-12272324D01*
X13262114Y-12272324D02*
X13281162Y-12262800D01*
X13281162Y-12262800D02*
X13300210Y-12262800D01*
X13366876Y-12396134D02*
X13366876Y-12262800D01*
X13366876Y-12196134D02*
X13357352Y-12205658D01*
X13357352Y-12205658D02*
X13366876Y-12215181D01*
X13366876Y-12215181D02*
X13376400Y-12205658D01*
X13376400Y-12205658D02*
X13366876Y-12196134D01*
X13366876Y-12196134D02*
X13366876Y-12215181D01*
X13490686Y-12396134D02*
X13471638Y-12386610D01*
X13471638Y-12386610D02*
X13462114Y-12367562D01*
X13462114Y-12367562D02*
X13462114Y-12196134D01*
X13595448Y-12396134D02*
X13576400Y-12386610D01*
X13576400Y-12386610D02*
X13566876Y-12367562D01*
X13566876Y-12367562D02*
X13566876Y-12196134D01*
X13824019Y-12396134D02*
X13824019Y-12196134D01*
X13824019Y-12196134D02*
X13890686Y-12338991D01*
X13890686Y-12338991D02*
X13957352Y-12196134D01*
X13957352Y-12196134D02*
X13957352Y-12396134D01*
X14138305Y-12396134D02*
X14138305Y-12291372D01*
X14138305Y-12291372D02*
X14128781Y-12272324D01*
X14128781Y-12272324D02*
X14109733Y-12262800D01*
X14109733Y-12262800D02*
X14071638Y-12262800D01*
X14071638Y-12262800D02*
X14052591Y-12272324D01*
X14138305Y-12386610D02*
X14119257Y-12396134D01*
X14119257Y-12396134D02*
X14071638Y-12396134D01*
X14071638Y-12396134D02*
X14052591Y-12386610D01*
X14052591Y-12386610D02*
X14043067Y-12367562D01*
X14043067Y-12367562D02*
X14043067Y-12348515D01*
X14043067Y-12348515D02*
X14052591Y-12329467D01*
X14052591Y-12329467D02*
X14071638Y-12319943D01*
X14071638Y-12319943D02*
X14119257Y-12319943D01*
X14119257Y-12319943D02*
X14138305Y-12310419D01*
X14233543Y-12262800D02*
X14233543Y-12462800D01*
X14233543Y-12272324D02*
X14252591Y-12262800D01*
X14252591Y-12262800D02*
X14290686Y-12262800D01*
X14290686Y-12262800D02*
X14309733Y-12272324D01*
X14309733Y-12272324D02*
X14319257Y-12281848D01*
X14319257Y-12281848D02*
X14328781Y-12300896D01*
X14328781Y-12300896D02*
X14328781Y-12358038D01*
X14328781Y-12358038D02*
X14319257Y-12377086D01*
X14319257Y-12377086D02*
X14309733Y-12386610D01*
X14309733Y-12386610D02*
X14290686Y-12396134D01*
X14290686Y-12396134D02*
X14252591Y-12396134D01*
X14252591Y-12396134D02*
X14233543Y-12386610D01*
X14414495Y-12377086D02*
X14424019Y-12386610D01*
X14424019Y-12386610D02*
X14414495Y-12396134D01*
X14414495Y-12396134D02*
X14404972Y-12386610D01*
X14404972Y-12386610D02*
X14414495Y-12377086D01*
X14414495Y-12377086D02*
X14414495Y-12396134D01*
X14414495Y-12272324D02*
X14424019Y-12281848D01*
X14424019Y-12281848D02*
X14414495Y-12291372D01*
X14414495Y-12291372D02*
X14404972Y-12281848D01*
X14404972Y-12281848D02*
X14414495Y-12272324D01*
X14414495Y-12272324D02*
X14414495Y-12291372D01*
D10*
X12702290Y-12684650D02*
X12782290Y-12764650D01*
X12782290Y-12684650D02*
X12702290Y-12764650D01*
D11*
X13081162Y-12616134D02*
X13100210Y-12616134D01*
X13100210Y-12616134D02*
X13119257Y-12625658D01*
X13119257Y-12625658D02*
X13128781Y-12635181D01*
X13128781Y-12635181D02*
X13138305Y-12654229D01*
X13138305Y-12654229D02*
X13147829Y-12692324D01*
X13147829Y-12692324D02*
X13147829Y-12739943D01*
X13147829Y-12739943D02*
X13138305Y-12778038D01*
X13138305Y-12778038D02*
X13128781Y-12797086D01*
X13128781Y-12797086D02*
X13119257Y-12806610D01*
X13119257Y-12806610D02*
X13100210Y-12816134D01*
X13100210Y-12816134D02*
X13081162Y-12816134D01*
X13081162Y-12816134D02*
X13062114Y-12806610D01*
X13062114Y-12806610D02*
X13052591Y-12797086D01*
X13052591Y-12797086D02*
X13043067Y-12778038D01*
X13043067Y-12778038D02*
X13033543Y-12739943D01*
X13033543Y-12739943D02*
X13033543Y-12692324D01*
X13033543Y-12692324D02*
X13043067Y-12654229D01*
X13043067Y-12654229D02*
X13052591Y-12635181D01*
X13052591Y-12635181D02*
X13062114Y-12625658D01*
X13062114Y-12625658D02*
X13081162Y-12616134D01*
X13233543Y-12797086D02*
X13243067Y-12806610D01*
X13243067Y-12806610D02*
X13233543Y-12816134D01*
X13233543Y-12816134D02*
X13224019Y-12806610D01*
X13224019Y-12806610D02*
X13233543Y-12797086D01*
X13233543Y-12797086D02*
X13233543Y-12816134D01*
X13357352Y-12701848D02*
X13338305Y-12692324D01*
X13338305Y-12692324D02*
X13328781Y-12682800D01*
X13328781Y-12682800D02*
X13319257Y-12663753D01*
X13319257Y-12663753D02*
X13319257Y-12654229D01*
X13319257Y-12654229D02*
X13328781Y-12635181D01*
X13328781Y-12635181D02*
X13338305Y-12625658D01*
X13338305Y-12625658D02*
X13357352Y-12616134D01*
X13357352Y-12616134D02*
X13395448Y-12616134D01*
X13395448Y-12616134D02*
X13414495Y-12625658D01*
X13414495Y-12625658D02*
X13424019Y-12635181D01*
X13424019Y-12635181D02*
X13433543Y-12654229D01*
X13433543Y-12654229D02*
X13433543Y-12663753D01*
X13433543Y-12663753D02*
X13424019Y-12682800D01*
X13424019Y-12682800D02*
X13414495Y-12692324D01*
X13414495Y-12692324D02*
X13395448Y-12701848D01*
X13395448Y-12701848D02*
X13357352Y-12701848D01*
X13357352Y-12701848D02*
X13338305Y-12711372D01*
X13338305Y-12711372D02*
X13328781Y-12720896D01*
X13328781Y-12720896D02*
X13319257Y-12739943D01*
X13319257Y-12739943D02*
X13319257Y-12778038D01*
X13319257Y-12778038D02*
X13328781Y-12797086D01*
X13328781Y-12797086D02*
X13338305Y-12806610D01*
X13338305Y-12806610D02*
X13357352Y-12816134D01*
X13357352Y-12816134D02*
X13395448Y-12816134D01*
X13395448Y-12816134D02*
X13414495Y-12806610D01*
X13414495Y-12806610D02*
X13424019Y-12797086D01*
X13424019Y-12797086D02*
X13433543Y-12778038D01*
X13433543Y-12778038D02*
X13433543Y-12739943D01*
X13433543Y-12739943D02*
X13424019Y-12720896D01*
X13424019Y-12720896D02*
X13414495Y-12711372D01*
X13414495Y-12711372D02*
X13395448Y-12701848D01*
X13557352Y-12616134D02*
X13576400Y-12616134D01*
X13576400Y-12616134D02*
X13595448Y-12625658D01*
X13595448Y-12625658D02*
X13604972Y-12635181D01*
X13604972Y-12635181D02*
X13614495Y-12654229D01*
X13614495Y-12654229D02*
X13624019Y-12692324D01*
X13624019Y-12692324D02*
X13624019Y-12739943D01*
X13624019Y-12739943D02*
X13614495Y-12778038D01*
X13614495Y-12778038D02*
X13604972Y-12797086D01*
X13604972Y-12797086D02*
X13595448Y-12806610D01*
X13595448Y-12806610D02*
X13576400Y-12816134D01*
X13576400Y-12816134D02*
X13557352Y-12816134D01*
X13557352Y-12816134D02*
X13538305Y-12806610D01*
X13538305Y-12806610D02*
X13528781Y-12797086D01*
X13528781Y-12797086D02*
X13519257Y-12778038D01*
X13519257Y-12778038D02*
X13509733Y-12739943D01*
X13509733Y-12739943D02*
X13509733Y-12692324D01*
X13509733Y-12692324D02*
X13519257Y-12654229D01*
X13519257Y-12654229D02*
X13528781Y-12635181D01*
X13528781Y-12635181D02*
X13538305Y-12625658D01*
X13538305Y-12625658D02*
X13557352Y-12616134D01*
X13747829Y-12616134D02*
X13766876Y-12616134D01*
X13766876Y-12616134D02*
X13785924Y-12625658D01*
X13785924Y-12625658D02*
X13795448Y-12635181D01*
X13795448Y-12635181D02*
X13804972Y-12654229D01*
X13804972Y-12654229D02*
X13814495Y-12692324D01*
X13814495Y-12692324D02*
X13814495Y-12739943D01*
X13814495Y-12739943D02*
X13804972Y-12778038D01*
X13804972Y-12778038D02*
X13795448Y-12797086D01*
X13795448Y-12797086D02*
X13785924Y-12806610D01*
X13785924Y-12806610D02*
X13766876Y-12816134D01*
X13766876Y-12816134D02*
X13747829Y-12816134D01*
X13747829Y-12816134D02*
X13728781Y-12806610D01*
X13728781Y-12806610D02*
X13719257Y-12797086D01*
X13719257Y-12797086D02*
X13709733Y-12778038D01*
X13709733Y-12778038D02*
X13700210Y-12739943D01*
X13700210Y-12739943D02*
X13700210Y-12692324D01*
X13700210Y-12692324D02*
X13709733Y-12654229D01*
X13709733Y-12654229D02*
X13719257Y-12635181D01*
X13719257Y-12635181D02*
X13728781Y-12625658D01*
X13728781Y-12625658D02*
X13747829Y-12616134D01*
X13900210Y-12816134D02*
X13900210Y-12682800D01*
X13900210Y-12701848D02*
X13909733Y-12692324D01*
X13909733Y-12692324D02*
X13928781Y-12682800D01*
X13928781Y-12682800D02*
X13957353Y-12682800D01*
X13957353Y-12682800D02*
X13976400Y-12692324D01*
X13976400Y-12692324D02*
X13985924Y-12711372D01*
X13985924Y-12711372D02*
X13985924Y-12816134D01*
X13985924Y-12711372D02*
X13995448Y-12692324D01*
X13995448Y-12692324D02*
X14014495Y-12682800D01*
X14014495Y-12682800D02*
X14043067Y-12682800D01*
X14043067Y-12682800D02*
X14062114Y-12692324D01*
X14062114Y-12692324D02*
X14071638Y-12711372D01*
X14071638Y-12711372D02*
X14071638Y-12816134D01*
X14166876Y-12816134D02*
X14166876Y-12682800D01*
X14166876Y-12701848D02*
X14176400Y-12692324D01*
X14176400Y-12692324D02*
X14195448Y-12682800D01*
X14195448Y-12682800D02*
X14224019Y-12682800D01*
X14224019Y-12682800D02*
X14243067Y-12692324D01*
X14243067Y-12692324D02*
X14252591Y-12711372D01*
X14252591Y-12711372D02*
X14252591Y-12816134D01*
X14252591Y-12711372D02*
X14262114Y-12692324D01*
X14262114Y-12692324D02*
X14281162Y-12682800D01*
X14281162Y-12682800D02*
X14309733Y-12682800D01*
X14309733Y-12682800D02*
X14328781Y-12692324D01*
X14328781Y-12692324D02*
X14338305Y-12711372D01*
X14338305Y-12711372D02*
X14338305Y-12816134D01*
X14728781Y-12606610D02*
X14557353Y-12863753D01*
X14985924Y-12616134D02*
X15004972Y-12616134D01*
X15004972Y-12616134D02*
X15024019Y-12625658D01*
X15024019Y-12625658D02*
X15033543Y-12635181D01*
X15033543Y-12635181D02*
X15043067Y-12654229D01*
X15043067Y-12654229D02*
X15052591Y-12692324D01*
X15052591Y-12692324D02*
X15052591Y-12739943D01*
X15052591Y-12739943D02*
X15043067Y-12778038D01*
X15043067Y-12778038D02*
X15033543Y-12797086D01*
X15033543Y-12797086D02*
X15024019Y-12806610D01*
X15024019Y-12806610D02*
X15004972Y-12816134D01*
X15004972Y-12816134D02*
X14985924Y-12816134D01*
X14985924Y-12816134D02*
X14966876Y-12806610D01*
X14966876Y-12806610D02*
X14957353Y-12797086D01*
X14957353Y-12797086D02*
X14947829Y-12778038D01*
X14947829Y-12778038D02*
X14938305Y-12739943D01*
X14938305Y-12739943D02*
X14938305Y-12692324D01*
X14938305Y-12692324D02*
X14947829Y-12654229D01*
X14947829Y-12654229D02*
X14957353Y-12635181D01*
X14957353Y-12635181D02*
X14966876Y-12625658D01*
X14966876Y-12625658D02*
X14985924Y-12616134D01*
X15138305Y-12797086D02*
X15147829Y-12806610D01*
X15147829Y-12806610D02*
X15138305Y-12816134D01*
X15138305Y-12816134D02*
X15128781Y-12806610D01*
X15128781Y-12806610D02*
X15138305Y-12797086D01*
X15138305Y-12797086D02*
X15138305Y-12816134D01*
X15271638Y-12616134D02*
X15290686Y-12616134D01*
X15290686Y-12616134D02*
X15309734Y-12625658D01*
X15309734Y-12625658D02*
X15319257Y-12635181D01*
X15319257Y-12635181D02*
X15328781Y-12654229D01*
X15328781Y-12654229D02*
X15338305Y-12692324D01*
X15338305Y-12692324D02*
X15338305Y-12739943D01*
X15338305Y-12739943D02*
X15328781Y-12778038D01*
X15328781Y-12778038D02*
X15319257Y-12797086D01*
X15319257Y-12797086D02*
X15309734Y-12806610D01*
X15309734Y-12806610D02*
X15290686Y-12816134D01*
X15290686Y-12816134D02*
X15271638Y-12816134D01*
X15271638Y-12816134D02*
X15252591Y-12806610D01*
X15252591Y-12806610D02*
X15243067Y-12797086D01*
X15243067Y-12797086D02*
X15233543Y-12778038D01*
X15233543Y-12778038D02*
X15224019Y-12739943D01*
X15224019Y-12739943D02*
X15224019Y-12692324D01*
X15224019Y-12692324D02*
X15233543Y-12654229D01*
X15233543Y-12654229D02*
X15243067Y-12635181D01*
X15243067Y-12635181D02*
X15252591Y-12625658D01*
X15252591Y-12625658D02*
X15271638Y-12616134D01*
X15404972Y-12616134D02*
X15528781Y-12616134D01*
X15528781Y-12616134D02*
X15462115Y-12692324D01*
X15462115Y-12692324D02*
X15490686Y-12692324D01*
X15490686Y-12692324D02*
X15509734Y-12701848D01*
X15509734Y-12701848D02*
X15519257Y-12711372D01*
X15519257Y-12711372D02*
X15528781Y-12730419D01*
X15528781Y-12730419D02*
X15528781Y-12778038D01*
X15528781Y-12778038D02*
X15519257Y-12797086D01*
X15519257Y-12797086D02*
X15509734Y-12806610D01*
X15509734Y-12806610D02*
X15490686Y-12816134D01*
X15490686Y-12816134D02*
X15433543Y-12816134D01*
X15433543Y-12816134D02*
X15414496Y-12806610D01*
X15414496Y-12806610D02*
X15404972Y-12797086D01*
X15719257Y-12816134D02*
X15604972Y-12816134D01*
X15662115Y-12816134D02*
X15662115Y-12616134D01*
X15662115Y-12616134D02*
X15643067Y-12644705D01*
X15643067Y-12644705D02*
X15624019Y-12663753D01*
X15624019Y-12663753D02*
X15604972Y-12673277D01*
X15900210Y-12616134D02*
X15804972Y-12616134D01*
X15804972Y-12616134D02*
X15795448Y-12711372D01*
X15795448Y-12711372D02*
X15804972Y-12701848D01*
X15804972Y-12701848D02*
X15824019Y-12692324D01*
X15824019Y-12692324D02*
X15871638Y-12692324D01*
X15871638Y-12692324D02*
X15890686Y-12701848D01*
X15890686Y-12701848D02*
X15900210Y-12711372D01*
X15900210Y-12711372D02*
X15909734Y-12730419D01*
X15909734Y-12730419D02*
X15909734Y-12778038D01*
X15909734Y-12778038D02*
X15900210Y-12797086D01*
X15900210Y-12797086D02*
X15890686Y-12806610D01*
X15890686Y-12806610D02*
X15871638Y-12816134D01*
X15871638Y-12816134D02*
X15824019Y-12816134D01*
X15824019Y-12816134D02*
X15804972Y-12806610D01*
X15804972Y-12806610D02*
X15795448Y-12797086D01*
X15985924Y-12616134D02*
X15985924Y-12654229D01*
X16062115Y-12616134D02*
X16062115Y-12654229D01*
X16357353Y-12892324D02*
X16347829Y-12882800D01*
X16347829Y-12882800D02*
X16328781Y-12854229D01*
X16328781Y-12854229D02*
X16319258Y-12835181D01*
X16319258Y-12835181D02*
X16309734Y-12806610D01*
X16309734Y-12806610D02*
X16300210Y-12758991D01*
X16300210Y-12758991D02*
X16300210Y-12720896D01*
X16300210Y-12720896D02*
X16309734Y-12673277D01*
X16309734Y-12673277D02*
X16319258Y-12644705D01*
X16319258Y-12644705D02*
X16328781Y-12625658D01*
X16328781Y-12625658D02*
X16347829Y-12597086D01*
X16347829Y-12597086D02*
X16357353Y-12587562D01*
X16519258Y-12616134D02*
X16481162Y-12616134D01*
X16481162Y-12616134D02*
X16462115Y-12625658D01*
X16462115Y-12625658D02*
X16452591Y-12635181D01*
X16452591Y-12635181D02*
X16433543Y-12663753D01*
X16433543Y-12663753D02*
X16424019Y-12701848D01*
X16424019Y-12701848D02*
X16424019Y-12778038D01*
X16424019Y-12778038D02*
X16433543Y-12797086D01*
X16433543Y-12797086D02*
X16443067Y-12806610D01*
X16443067Y-12806610D02*
X16462115Y-12816134D01*
X16462115Y-12816134D02*
X16500210Y-12816134D01*
X16500210Y-12816134D02*
X16519258Y-12806610D01*
X16519258Y-12806610D02*
X16528781Y-12797086D01*
X16528781Y-12797086D02*
X16538305Y-12778038D01*
X16538305Y-12778038D02*
X16538305Y-12730419D01*
X16538305Y-12730419D02*
X16528781Y-12711372D01*
X16528781Y-12711372D02*
X16519258Y-12701848D01*
X16519258Y-12701848D02*
X16500210Y-12692324D01*
X16500210Y-12692324D02*
X16462115Y-12692324D01*
X16462115Y-12692324D02*
X16443067Y-12701848D01*
X16443067Y-12701848D02*
X16433543Y-12711372D01*
X16433543Y-12711372D02*
X16424019Y-12730419D01*
X16776400Y-12816134D02*
X16776400Y-12616134D01*
X16862115Y-12816134D02*
X16862115Y-12711372D01*
X16862115Y-12711372D02*
X16852591Y-12692324D01*
X16852591Y-12692324D02*
X16833543Y-12682800D01*
X16833543Y-12682800D02*
X16804972Y-12682800D01*
X16804972Y-12682800D02*
X16785924Y-12692324D01*
X16785924Y-12692324D02*
X16776400Y-12701848D01*
X16985924Y-12816134D02*
X16966877Y-12806610D01*
X16966877Y-12806610D02*
X16957353Y-12797086D01*
X16957353Y-12797086D02*
X16947829Y-12778038D01*
X16947829Y-12778038D02*
X16947829Y-12720896D01*
X16947829Y-12720896D02*
X16957353Y-12701848D01*
X16957353Y-12701848D02*
X16966877Y-12692324D01*
X16966877Y-12692324D02*
X16985924Y-12682800D01*
X16985924Y-12682800D02*
X17014496Y-12682800D01*
X17014496Y-12682800D02*
X17033543Y-12692324D01*
X17033543Y-12692324D02*
X17043067Y-12701848D01*
X17043067Y-12701848D02*
X17052591Y-12720896D01*
X17052591Y-12720896D02*
X17052591Y-12778038D01*
X17052591Y-12778038D02*
X17043067Y-12797086D01*
X17043067Y-12797086D02*
X17033543Y-12806610D01*
X17033543Y-12806610D02*
X17014496Y-12816134D01*
X17014496Y-12816134D02*
X16985924Y-12816134D01*
X17166877Y-12816134D02*
X17147829Y-12806610D01*
X17147829Y-12806610D02*
X17138305Y-12787562D01*
X17138305Y-12787562D02*
X17138305Y-12616134D01*
X17319258Y-12806610D02*
X17300210Y-12816134D01*
X17300210Y-12816134D02*
X17262115Y-12816134D01*
X17262115Y-12816134D02*
X17243067Y-12806610D01*
X17243067Y-12806610D02*
X17233543Y-12787562D01*
X17233543Y-12787562D02*
X17233543Y-12711372D01*
X17233543Y-12711372D02*
X17243067Y-12692324D01*
X17243067Y-12692324D02*
X17262115Y-12682800D01*
X17262115Y-12682800D02*
X17300210Y-12682800D01*
X17300210Y-12682800D02*
X17319258Y-12692324D01*
X17319258Y-12692324D02*
X17328782Y-12711372D01*
X17328782Y-12711372D02*
X17328782Y-12730419D01*
X17328782Y-12730419D02*
X17233543Y-12749467D01*
X17404972Y-12806610D02*
X17424020Y-12816134D01*
X17424020Y-12816134D02*
X17462115Y-12816134D01*
X17462115Y-12816134D02*
X17481163Y-12806610D01*
X17481163Y-12806610D02*
X17490686Y-12787562D01*
X17490686Y-12787562D02*
X17490686Y-12778038D01*
X17490686Y-12778038D02*
X17481163Y-12758991D01*
X17481163Y-12758991D02*
X17462115Y-12749467D01*
X17462115Y-12749467D02*
X17433543Y-12749467D01*
X17433543Y-12749467D02*
X17414496Y-12739943D01*
X17414496Y-12739943D02*
X17404972Y-12720896D01*
X17404972Y-12720896D02*
X17404972Y-12711372D01*
X17404972Y-12711372D02*
X17414496Y-12692324D01*
X17414496Y-12692324D02*
X17433543Y-12682800D01*
X17433543Y-12682800D02*
X17462115Y-12682800D01*
X17462115Y-12682800D02*
X17481163Y-12692324D01*
X17557353Y-12892324D02*
X17566877Y-12882800D01*
X17566877Y-12882800D02*
X17585924Y-12854229D01*
X17585924Y-12854229D02*
X17595448Y-12835181D01*
X17595448Y-12835181D02*
X17604972Y-12806610D01*
X17604972Y-12806610D02*
X17614496Y-12758991D01*
X17614496Y-12758991D02*
X17614496Y-12720896D01*
X17614496Y-12720896D02*
X17604972Y-12673277D01*
X17604972Y-12673277D02*
X17595448Y-12644705D01*
X17595448Y-12644705D02*
X17585924Y-12625658D01*
X17585924Y-12625658D02*
X17566877Y-12597086D01*
X17566877Y-12597086D02*
X17557353Y-12587562D01*
D10*
X12782290Y-12988650D02*
G75*
G02*
X12682290Y-12988650I-50000J0D01*
G01*
X12682290Y-12988650D02*
G75*
G02*
X12782290Y-12988650I50000J0D01*
G01*
D11*
X13147829Y-13080134D02*
X13033543Y-13080134D01*
X13090686Y-13080134D02*
X13090686Y-12880134D01*
X13090686Y-12880134D02*
X13071638Y-12908705D01*
X13071638Y-12908705D02*
X13052591Y-12927753D01*
X13052591Y-12927753D02*
X13033543Y-12937277D01*
X13233543Y-13061086D02*
X13243067Y-13070610D01*
X13243067Y-13070610D02*
X13233543Y-13080134D01*
X13233543Y-13080134D02*
X13224019Y-13070610D01*
X13224019Y-13070610D02*
X13233543Y-13061086D01*
X13233543Y-13061086D02*
X13233543Y-13080134D01*
X13366876Y-12880134D02*
X13385924Y-12880134D01*
X13385924Y-12880134D02*
X13404972Y-12889658D01*
X13404972Y-12889658D02*
X13414495Y-12899181D01*
X13414495Y-12899181D02*
X13424019Y-12918229D01*
X13424019Y-12918229D02*
X13433543Y-12956324D01*
X13433543Y-12956324D02*
X13433543Y-13003943D01*
X13433543Y-13003943D02*
X13424019Y-13042038D01*
X13424019Y-13042038D02*
X13414495Y-13061086D01*
X13414495Y-13061086D02*
X13404972Y-13070610D01*
X13404972Y-13070610D02*
X13385924Y-13080134D01*
X13385924Y-13080134D02*
X13366876Y-13080134D01*
X13366876Y-13080134D02*
X13347829Y-13070610D01*
X13347829Y-13070610D02*
X13338305Y-13061086D01*
X13338305Y-13061086D02*
X13328781Y-13042038D01*
X13328781Y-13042038D02*
X13319257Y-13003943D01*
X13319257Y-13003943D02*
X13319257Y-12956324D01*
X13319257Y-12956324D02*
X13328781Y-12918229D01*
X13328781Y-12918229D02*
X13338305Y-12899181D01*
X13338305Y-12899181D02*
X13347829Y-12889658D01*
X13347829Y-12889658D02*
X13366876Y-12880134D01*
X13557352Y-12880134D02*
X13576400Y-12880134D01*
X13576400Y-12880134D02*
X13595448Y-12889658D01*
X13595448Y-12889658D02*
X13604972Y-12899181D01*
X13604972Y-12899181D02*
X13614495Y-12918229D01*
X13614495Y-12918229D02*
X13624019Y-12956324D01*
X13624019Y-12956324D02*
X13624019Y-13003943D01*
X13624019Y-13003943D02*
X13614495Y-13042038D01*
X13614495Y-13042038D02*
X13604972Y-13061086D01*
X13604972Y-13061086D02*
X13595448Y-13070610D01*
X13595448Y-13070610D02*
X13576400Y-13080134D01*
X13576400Y-13080134D02*
X13557352Y-13080134D01*
X13557352Y-13080134D02*
X13538305Y-13070610D01*
X13538305Y-13070610D02*
X13528781Y-13061086D01*
X13528781Y-13061086D02*
X13519257Y-13042038D01*
X13519257Y-13042038D02*
X13509733Y-13003943D01*
X13509733Y-13003943D02*
X13509733Y-12956324D01*
X13509733Y-12956324D02*
X13519257Y-12918229D01*
X13519257Y-12918229D02*
X13528781Y-12899181D01*
X13528781Y-12899181D02*
X13538305Y-12889658D01*
X13538305Y-12889658D02*
X13557352Y-12880134D01*
X13747829Y-12880134D02*
X13766876Y-12880134D01*
X13766876Y-12880134D02*
X13785924Y-12889658D01*
X13785924Y-12889658D02*
X13795448Y-12899181D01*
X13795448Y-12899181D02*
X13804972Y-12918229D01*
X13804972Y-12918229D02*
X13814495Y-12956324D01*
X13814495Y-12956324D02*
X13814495Y-13003943D01*
X13814495Y-13003943D02*
X13804972Y-13042038D01*
X13804972Y-13042038D02*
X13795448Y-13061086D01*
X13795448Y-13061086D02*
X13785924Y-13070610D01*
X13785924Y-13070610D02*
X13766876Y-13080134D01*
X13766876Y-13080134D02*
X13747829Y-13080134D01*
X13747829Y-13080134D02*
X13728781Y-13070610D01*
X13728781Y-13070610D02*
X13719257Y-13061086D01*
X13719257Y-13061086D02*
X13709733Y-13042038D01*
X13709733Y-13042038D02*
X13700210Y-13003943D01*
X13700210Y-13003943D02*
X13700210Y-12956324D01*
X13700210Y-12956324D02*
X13709733Y-12918229D01*
X13709733Y-12918229D02*
X13719257Y-12899181D01*
X13719257Y-12899181D02*
X13728781Y-12889658D01*
X13728781Y-12889658D02*
X13747829Y-12880134D01*
X13900210Y-13080134D02*
X13900210Y-12946800D01*
X13900210Y-12965848D02*
X13909733Y-12956324D01*
X13909733Y-12956324D02*
X13928781Y-12946800D01*
X13928781Y-12946800D02*
X13957353Y-12946800D01*
X13957353Y-12946800D02*
X13976400Y-12956324D01*
X13976400Y-12956324D02*
X13985924Y-12975372D01*
X13985924Y-12975372D02*
X13985924Y-13080134D01*
X13985924Y-12975372D02*
X13995448Y-12956324D01*
X13995448Y-12956324D02*
X14014495Y-12946800D01*
X14014495Y-12946800D02*
X14043067Y-12946800D01*
X14043067Y-12946800D02*
X14062114Y-12956324D01*
X14062114Y-12956324D02*
X14071638Y-12975372D01*
X14071638Y-12975372D02*
X14071638Y-13080134D01*
X14166876Y-13080134D02*
X14166876Y-12946800D01*
X14166876Y-12965848D02*
X14176400Y-12956324D01*
X14176400Y-12956324D02*
X14195448Y-12946800D01*
X14195448Y-12946800D02*
X14224019Y-12946800D01*
X14224019Y-12946800D02*
X14243067Y-12956324D01*
X14243067Y-12956324D02*
X14252591Y-12975372D01*
X14252591Y-12975372D02*
X14252591Y-13080134D01*
X14252591Y-12975372D02*
X14262114Y-12956324D01*
X14262114Y-12956324D02*
X14281162Y-12946800D01*
X14281162Y-12946800D02*
X14309733Y-12946800D01*
X14309733Y-12946800D02*
X14328781Y-12956324D01*
X14328781Y-12956324D02*
X14338305Y-12975372D01*
X14338305Y-12975372D02*
X14338305Y-13080134D01*
X14728781Y-12870610D02*
X14557353Y-13127753D01*
X14985924Y-12880134D02*
X15004972Y-12880134D01*
X15004972Y-12880134D02*
X15024019Y-12889658D01*
X15024019Y-12889658D02*
X15033543Y-12899181D01*
X15033543Y-12899181D02*
X15043067Y-12918229D01*
X15043067Y-12918229D02*
X15052591Y-12956324D01*
X15052591Y-12956324D02*
X15052591Y-13003943D01*
X15052591Y-13003943D02*
X15043067Y-13042038D01*
X15043067Y-13042038D02*
X15033543Y-13061086D01*
X15033543Y-13061086D02*
X15024019Y-13070610D01*
X15024019Y-13070610D02*
X15004972Y-13080134D01*
X15004972Y-13080134D02*
X14985924Y-13080134D01*
X14985924Y-13080134D02*
X14966876Y-13070610D01*
X14966876Y-13070610D02*
X14957353Y-13061086D01*
X14957353Y-13061086D02*
X14947829Y-13042038D01*
X14947829Y-13042038D02*
X14938305Y-13003943D01*
X14938305Y-13003943D02*
X14938305Y-12956324D01*
X14938305Y-12956324D02*
X14947829Y-12918229D01*
X14947829Y-12918229D02*
X14957353Y-12899181D01*
X14957353Y-12899181D02*
X14966876Y-12889658D01*
X14966876Y-12889658D02*
X14985924Y-12880134D01*
X15138305Y-13061086D02*
X15147829Y-13070610D01*
X15147829Y-13070610D02*
X15138305Y-13080134D01*
X15138305Y-13080134D02*
X15128781Y-13070610D01*
X15128781Y-13070610D02*
X15138305Y-13061086D01*
X15138305Y-13061086D02*
X15138305Y-13080134D01*
X15271638Y-12880134D02*
X15290686Y-12880134D01*
X15290686Y-12880134D02*
X15309734Y-12889658D01*
X15309734Y-12889658D02*
X15319257Y-12899181D01*
X15319257Y-12899181D02*
X15328781Y-12918229D01*
X15328781Y-12918229D02*
X15338305Y-12956324D01*
X15338305Y-12956324D02*
X15338305Y-13003943D01*
X15338305Y-13003943D02*
X15328781Y-13042038D01*
X15328781Y-13042038D02*
X15319257Y-13061086D01*
X15319257Y-13061086D02*
X15309734Y-13070610D01*
X15309734Y-13070610D02*
X15290686Y-13080134D01*
X15290686Y-13080134D02*
X15271638Y-13080134D01*
X15271638Y-13080134D02*
X15252591Y-13070610D01*
X15252591Y-13070610D02*
X15243067Y-13061086D01*
X15243067Y-13061086D02*
X15233543Y-13042038D01*
X15233543Y-13042038D02*
X15224019Y-13003943D01*
X15224019Y-13003943D02*
X15224019Y-12956324D01*
X15224019Y-12956324D02*
X15233543Y-12918229D01*
X15233543Y-12918229D02*
X15243067Y-12899181D01*
X15243067Y-12899181D02*
X15252591Y-12889658D01*
X15252591Y-12889658D02*
X15271638Y-12880134D01*
X15404972Y-12880134D02*
X15528781Y-12880134D01*
X15528781Y-12880134D02*
X15462115Y-12956324D01*
X15462115Y-12956324D02*
X15490686Y-12956324D01*
X15490686Y-12956324D02*
X15509734Y-12965848D01*
X15509734Y-12965848D02*
X15519257Y-12975372D01*
X15519257Y-12975372D02*
X15528781Y-12994419D01*
X15528781Y-12994419D02*
X15528781Y-13042038D01*
X15528781Y-13042038D02*
X15519257Y-13061086D01*
X15519257Y-13061086D02*
X15509734Y-13070610D01*
X15509734Y-13070610D02*
X15490686Y-13080134D01*
X15490686Y-13080134D02*
X15433543Y-13080134D01*
X15433543Y-13080134D02*
X15414496Y-13070610D01*
X15414496Y-13070610D02*
X15404972Y-13061086D01*
X15624019Y-13080134D02*
X15662115Y-13080134D01*
X15662115Y-13080134D02*
X15681162Y-13070610D01*
X15681162Y-13070610D02*
X15690686Y-13061086D01*
X15690686Y-13061086D02*
X15709734Y-13032515D01*
X15709734Y-13032515D02*
X15719257Y-12994419D01*
X15719257Y-12994419D02*
X15719257Y-12918229D01*
X15719257Y-12918229D02*
X15709734Y-12899181D01*
X15709734Y-12899181D02*
X15700210Y-12889658D01*
X15700210Y-12889658D02*
X15681162Y-12880134D01*
X15681162Y-12880134D02*
X15643067Y-12880134D01*
X15643067Y-12880134D02*
X15624019Y-12889658D01*
X15624019Y-12889658D02*
X15614496Y-12899181D01*
X15614496Y-12899181D02*
X15604972Y-12918229D01*
X15604972Y-12918229D02*
X15604972Y-12965848D01*
X15604972Y-12965848D02*
X15614496Y-12984896D01*
X15614496Y-12984896D02*
X15624019Y-12994419D01*
X15624019Y-12994419D02*
X15643067Y-13003943D01*
X15643067Y-13003943D02*
X15681162Y-13003943D01*
X15681162Y-13003943D02*
X15700210Y-12994419D01*
X15700210Y-12994419D02*
X15709734Y-12984896D01*
X15709734Y-12984896D02*
X15719257Y-12965848D01*
X15890686Y-12946800D02*
X15890686Y-13080134D01*
X15843067Y-12870610D02*
X15795448Y-13013467D01*
X15795448Y-13013467D02*
X15919257Y-13013467D01*
X15985924Y-12880134D02*
X15985924Y-12918229D01*
X16062115Y-12880134D02*
X16062115Y-12918229D01*
X16357353Y-13156324D02*
X16347829Y-13146800D01*
X16347829Y-13146800D02*
X16328781Y-13118229D01*
X16328781Y-13118229D02*
X16319258Y-13099181D01*
X16319258Y-13099181D02*
X16309734Y-13070610D01*
X16309734Y-13070610D02*
X16300210Y-13022991D01*
X16300210Y-13022991D02*
X16300210Y-12984896D01*
X16300210Y-12984896D02*
X16309734Y-12937277D01*
X16309734Y-12937277D02*
X16319258Y-12908705D01*
X16319258Y-12908705D02*
X16328781Y-12889658D01*
X16328781Y-12889658D02*
X16347829Y-12861086D01*
X16347829Y-12861086D02*
X16357353Y-12851562D01*
X16424019Y-12899181D02*
X16433543Y-12889658D01*
X16433543Y-12889658D02*
X16452591Y-12880134D01*
X16452591Y-12880134D02*
X16500210Y-12880134D01*
X16500210Y-12880134D02*
X16519258Y-12889658D01*
X16519258Y-12889658D02*
X16528781Y-12899181D01*
X16528781Y-12899181D02*
X16538305Y-12918229D01*
X16538305Y-12918229D02*
X16538305Y-12937277D01*
X16538305Y-12937277D02*
X16528781Y-12965848D01*
X16528781Y-12965848D02*
X16414496Y-13080134D01*
X16414496Y-13080134D02*
X16538305Y-13080134D01*
X16776400Y-13080134D02*
X16776400Y-12880134D01*
X16862115Y-13080134D02*
X16862115Y-12975372D01*
X16862115Y-12975372D02*
X16852591Y-12956324D01*
X16852591Y-12956324D02*
X16833543Y-12946800D01*
X16833543Y-12946800D02*
X16804972Y-12946800D01*
X16804972Y-12946800D02*
X16785924Y-12956324D01*
X16785924Y-12956324D02*
X16776400Y-12965848D01*
X16985924Y-13080134D02*
X16966877Y-13070610D01*
X16966877Y-13070610D02*
X16957353Y-13061086D01*
X16957353Y-13061086D02*
X16947829Y-13042038D01*
X16947829Y-13042038D02*
X16947829Y-12984896D01*
X16947829Y-12984896D02*
X16957353Y-12965848D01*
X16957353Y-12965848D02*
X16966877Y-12956324D01*
X16966877Y-12956324D02*
X16985924Y-12946800D01*
X16985924Y-12946800D02*
X17014496Y-12946800D01*
X17014496Y-12946800D02*
X17033543Y-12956324D01*
X17033543Y-12956324D02*
X17043067Y-12965848D01*
X17043067Y-12965848D02*
X17052591Y-12984896D01*
X17052591Y-12984896D02*
X17052591Y-13042038D01*
X17052591Y-13042038D02*
X17043067Y-13061086D01*
X17043067Y-13061086D02*
X17033543Y-13070610D01*
X17033543Y-13070610D02*
X17014496Y-13080134D01*
X17014496Y-13080134D02*
X16985924Y-13080134D01*
X17166877Y-13080134D02*
X17147829Y-13070610D01*
X17147829Y-13070610D02*
X17138305Y-13051562D01*
X17138305Y-13051562D02*
X17138305Y-12880134D01*
X17319258Y-13070610D02*
X17300210Y-13080134D01*
X17300210Y-13080134D02*
X17262115Y-13080134D01*
X17262115Y-13080134D02*
X17243067Y-13070610D01*
X17243067Y-13070610D02*
X17233543Y-13051562D01*
X17233543Y-13051562D02*
X17233543Y-12975372D01*
X17233543Y-12975372D02*
X17243067Y-12956324D01*
X17243067Y-12956324D02*
X17262115Y-12946800D01*
X17262115Y-12946800D02*
X17300210Y-12946800D01*
X17300210Y-12946800D02*
X17319258Y-12956324D01*
X17319258Y-12956324D02*
X17328782Y-12975372D01*
X17328782Y-12975372D02*
X17328782Y-12994419D01*
X17328782Y-12994419D02*
X17233543Y-13013467D01*
X17404972Y-13070610D02*
X17424020Y-13080134D01*
X17424020Y-13080134D02*
X17462115Y-13080134D01*
X17462115Y-13080134D02*
X17481163Y-13070610D01*
X17481163Y-13070610D02*
X17490686Y-13051562D01*
X17490686Y-13051562D02*
X17490686Y-13042038D01*
X17490686Y-13042038D02*
X17481163Y-13022991D01*
X17481163Y-13022991D02*
X17462115Y-13013467D01*
X17462115Y-13013467D02*
X17433543Y-13013467D01*
X17433543Y-13013467D02*
X17414496Y-13003943D01*
X17414496Y-13003943D02*
X17404972Y-12984896D01*
X17404972Y-12984896D02*
X17404972Y-12975372D01*
X17404972Y-12975372D02*
X17414496Y-12956324D01*
X17414496Y-12956324D02*
X17433543Y-12946800D01*
X17433543Y-12946800D02*
X17462115Y-12946800D01*
X17462115Y-12946800D02*
X17481163Y-12956324D01*
X17557353Y-13156324D02*
X17566877Y-13146800D01*
X17566877Y-13146800D02*
X17585924Y-13118229D01*
X17585924Y-13118229D02*
X17595448Y-13099181D01*
X17595448Y-13099181D02*
X17604972Y-13070610D01*
X17604972Y-13070610D02*
X17614496Y-13022991D01*
X17614496Y-13022991D02*
X17614496Y-12984896D01*
X17614496Y-12984896D02*
X17604972Y-12937277D01*
X17604972Y-12937277D02*
X17595448Y-12908705D01*
X17595448Y-12908705D02*
X17585924Y-12889658D01*
X17585924Y-12889658D02*
X17566877Y-12861086D01*
X17566877Y-12861086D02*
X17557353Y-12851562D01*
D12*
X12717290Y-13187650D02*
X12717290Y-13317650D01*
X12652290Y-13252650D02*
X12782290Y-13252650D01*
D11*
X13147829Y-13344134D02*
X13033543Y-13344134D01*
X13090686Y-13344134D02*
X13090686Y-13144134D01*
X13090686Y-13144134D02*
X13071638Y-13172705D01*
X13071638Y-13172705D02*
X13052591Y-13191753D01*
X13052591Y-13191753D02*
X13033543Y-13201277D01*
X13233543Y-13325086D02*
X13243067Y-13334610D01*
X13243067Y-13334610D02*
X13233543Y-13344134D01*
X13233543Y-13344134D02*
X13224019Y-13334610D01*
X13224019Y-13334610D02*
X13233543Y-13325086D01*
X13233543Y-13325086D02*
X13233543Y-13344134D01*
X13309733Y-13144134D02*
X13433543Y-13144134D01*
X13433543Y-13144134D02*
X13366876Y-13220324D01*
X13366876Y-13220324D02*
X13395448Y-13220324D01*
X13395448Y-13220324D02*
X13414495Y-13229848D01*
X13414495Y-13229848D02*
X13424019Y-13239372D01*
X13424019Y-13239372D02*
X13433543Y-13258419D01*
X13433543Y-13258419D02*
X13433543Y-13306038D01*
X13433543Y-13306038D02*
X13424019Y-13325086D01*
X13424019Y-13325086D02*
X13414495Y-13334610D01*
X13414495Y-13334610D02*
X13395448Y-13344134D01*
X13395448Y-13344134D02*
X13338305Y-13344134D01*
X13338305Y-13344134D02*
X13319257Y-13334610D01*
X13319257Y-13334610D02*
X13309733Y-13325086D01*
X13557352Y-13144134D02*
X13576400Y-13144134D01*
X13576400Y-13144134D02*
X13595448Y-13153658D01*
X13595448Y-13153658D02*
X13604972Y-13163181D01*
X13604972Y-13163181D02*
X13614495Y-13182229D01*
X13614495Y-13182229D02*
X13624019Y-13220324D01*
X13624019Y-13220324D02*
X13624019Y-13267943D01*
X13624019Y-13267943D02*
X13614495Y-13306038D01*
X13614495Y-13306038D02*
X13604972Y-13325086D01*
X13604972Y-13325086D02*
X13595448Y-13334610D01*
X13595448Y-13334610D02*
X13576400Y-13344134D01*
X13576400Y-13344134D02*
X13557352Y-13344134D01*
X13557352Y-13344134D02*
X13538305Y-13334610D01*
X13538305Y-13334610D02*
X13528781Y-13325086D01*
X13528781Y-13325086D02*
X13519257Y-13306038D01*
X13519257Y-13306038D02*
X13509733Y-13267943D01*
X13509733Y-13267943D02*
X13509733Y-13220324D01*
X13509733Y-13220324D02*
X13519257Y-13182229D01*
X13519257Y-13182229D02*
X13528781Y-13163181D01*
X13528781Y-13163181D02*
X13538305Y-13153658D01*
X13538305Y-13153658D02*
X13557352Y-13144134D01*
X13747829Y-13144134D02*
X13766876Y-13144134D01*
X13766876Y-13144134D02*
X13785924Y-13153658D01*
X13785924Y-13153658D02*
X13795448Y-13163181D01*
X13795448Y-13163181D02*
X13804972Y-13182229D01*
X13804972Y-13182229D02*
X13814495Y-13220324D01*
X13814495Y-13220324D02*
X13814495Y-13267943D01*
X13814495Y-13267943D02*
X13804972Y-13306038D01*
X13804972Y-13306038D02*
X13795448Y-13325086D01*
X13795448Y-13325086D02*
X13785924Y-13334610D01*
X13785924Y-13334610D02*
X13766876Y-13344134D01*
X13766876Y-13344134D02*
X13747829Y-13344134D01*
X13747829Y-13344134D02*
X13728781Y-13334610D01*
X13728781Y-13334610D02*
X13719257Y-13325086D01*
X13719257Y-13325086D02*
X13709733Y-13306038D01*
X13709733Y-13306038D02*
X13700210Y-13267943D01*
X13700210Y-13267943D02*
X13700210Y-13220324D01*
X13700210Y-13220324D02*
X13709733Y-13182229D01*
X13709733Y-13182229D02*
X13719257Y-13163181D01*
X13719257Y-13163181D02*
X13728781Y-13153658D01*
X13728781Y-13153658D02*
X13747829Y-13144134D01*
X13900210Y-13344134D02*
X13900210Y-13210800D01*
X13900210Y-13229848D02*
X13909733Y-13220324D01*
X13909733Y-13220324D02*
X13928781Y-13210800D01*
X13928781Y-13210800D02*
X13957353Y-13210800D01*
X13957353Y-13210800D02*
X13976400Y-13220324D01*
X13976400Y-13220324D02*
X13985924Y-13239372D01*
X13985924Y-13239372D02*
X13985924Y-13344134D01*
X13985924Y-13239372D02*
X13995448Y-13220324D01*
X13995448Y-13220324D02*
X14014495Y-13210800D01*
X14014495Y-13210800D02*
X14043067Y-13210800D01*
X14043067Y-13210800D02*
X14062114Y-13220324D01*
X14062114Y-13220324D02*
X14071638Y-13239372D01*
X14071638Y-13239372D02*
X14071638Y-13344134D01*
X14166876Y-13344134D02*
X14166876Y-13210800D01*
X14166876Y-13229848D02*
X14176400Y-13220324D01*
X14176400Y-13220324D02*
X14195448Y-13210800D01*
X14195448Y-13210800D02*
X14224019Y-13210800D01*
X14224019Y-13210800D02*
X14243067Y-13220324D01*
X14243067Y-13220324D02*
X14252591Y-13239372D01*
X14252591Y-13239372D02*
X14252591Y-13344134D01*
X14252591Y-13239372D02*
X14262114Y-13220324D01*
X14262114Y-13220324D02*
X14281162Y-13210800D01*
X14281162Y-13210800D02*
X14309733Y-13210800D01*
X14309733Y-13210800D02*
X14328781Y-13220324D01*
X14328781Y-13220324D02*
X14338305Y-13239372D01*
X14338305Y-13239372D02*
X14338305Y-13344134D01*
X14728781Y-13134610D02*
X14557353Y-13391753D01*
X14985924Y-13144134D02*
X15004972Y-13144134D01*
X15004972Y-13144134D02*
X15024019Y-13153658D01*
X15024019Y-13153658D02*
X15033543Y-13163181D01*
X15033543Y-13163181D02*
X15043067Y-13182229D01*
X15043067Y-13182229D02*
X15052591Y-13220324D01*
X15052591Y-13220324D02*
X15052591Y-13267943D01*
X15052591Y-13267943D02*
X15043067Y-13306038D01*
X15043067Y-13306038D02*
X15033543Y-13325086D01*
X15033543Y-13325086D02*
X15024019Y-13334610D01*
X15024019Y-13334610D02*
X15004972Y-13344134D01*
X15004972Y-13344134D02*
X14985924Y-13344134D01*
X14985924Y-13344134D02*
X14966876Y-13334610D01*
X14966876Y-13334610D02*
X14957353Y-13325086D01*
X14957353Y-13325086D02*
X14947829Y-13306038D01*
X14947829Y-13306038D02*
X14938305Y-13267943D01*
X14938305Y-13267943D02*
X14938305Y-13220324D01*
X14938305Y-13220324D02*
X14947829Y-13182229D01*
X14947829Y-13182229D02*
X14957353Y-13163181D01*
X14957353Y-13163181D02*
X14966876Y-13153658D01*
X14966876Y-13153658D02*
X14985924Y-13144134D01*
X15138305Y-13325086D02*
X15147829Y-13334610D01*
X15147829Y-13334610D02*
X15138305Y-13344134D01*
X15138305Y-13344134D02*
X15128781Y-13334610D01*
X15128781Y-13334610D02*
X15138305Y-13325086D01*
X15138305Y-13325086D02*
X15138305Y-13344134D01*
X15271638Y-13144134D02*
X15290686Y-13144134D01*
X15290686Y-13144134D02*
X15309734Y-13153658D01*
X15309734Y-13153658D02*
X15319257Y-13163181D01*
X15319257Y-13163181D02*
X15328781Y-13182229D01*
X15328781Y-13182229D02*
X15338305Y-13220324D01*
X15338305Y-13220324D02*
X15338305Y-13267943D01*
X15338305Y-13267943D02*
X15328781Y-13306038D01*
X15328781Y-13306038D02*
X15319257Y-13325086D01*
X15319257Y-13325086D02*
X15309734Y-13334610D01*
X15309734Y-13334610D02*
X15290686Y-13344134D01*
X15290686Y-13344134D02*
X15271638Y-13344134D01*
X15271638Y-13344134D02*
X15252591Y-13334610D01*
X15252591Y-13334610D02*
X15243067Y-13325086D01*
X15243067Y-13325086D02*
X15233543Y-13306038D01*
X15233543Y-13306038D02*
X15224019Y-13267943D01*
X15224019Y-13267943D02*
X15224019Y-13220324D01*
X15224019Y-13220324D02*
X15233543Y-13182229D01*
X15233543Y-13182229D02*
X15243067Y-13163181D01*
X15243067Y-13163181D02*
X15252591Y-13153658D01*
X15252591Y-13153658D02*
X15271638Y-13144134D01*
X15519257Y-13144134D02*
X15424019Y-13144134D01*
X15424019Y-13144134D02*
X15414496Y-13239372D01*
X15414496Y-13239372D02*
X15424019Y-13229848D01*
X15424019Y-13229848D02*
X15443067Y-13220324D01*
X15443067Y-13220324D02*
X15490686Y-13220324D01*
X15490686Y-13220324D02*
X15509734Y-13229848D01*
X15509734Y-13229848D02*
X15519257Y-13239372D01*
X15519257Y-13239372D02*
X15528781Y-13258419D01*
X15528781Y-13258419D02*
X15528781Y-13306038D01*
X15528781Y-13306038D02*
X15519257Y-13325086D01*
X15519257Y-13325086D02*
X15509734Y-13334610D01*
X15509734Y-13334610D02*
X15490686Y-13344134D01*
X15490686Y-13344134D02*
X15443067Y-13344134D01*
X15443067Y-13344134D02*
X15424019Y-13334610D01*
X15424019Y-13334610D02*
X15414496Y-13325086D01*
X15719257Y-13344134D02*
X15604972Y-13344134D01*
X15662115Y-13344134D02*
X15662115Y-13144134D01*
X15662115Y-13144134D02*
X15643067Y-13172705D01*
X15643067Y-13172705D02*
X15624019Y-13191753D01*
X15624019Y-13191753D02*
X15604972Y-13201277D01*
X15795448Y-13163181D02*
X15804972Y-13153658D01*
X15804972Y-13153658D02*
X15824019Y-13144134D01*
X15824019Y-13144134D02*
X15871638Y-13144134D01*
X15871638Y-13144134D02*
X15890686Y-13153658D01*
X15890686Y-13153658D02*
X15900210Y-13163181D01*
X15900210Y-13163181D02*
X15909734Y-13182229D01*
X15909734Y-13182229D02*
X15909734Y-13201277D01*
X15909734Y-13201277D02*
X15900210Y-13229848D01*
X15900210Y-13229848D02*
X15785924Y-13344134D01*
X15785924Y-13344134D02*
X15909734Y-13344134D01*
X15985924Y-13144134D02*
X15985924Y-13182229D01*
X16062115Y-13144134D02*
X16062115Y-13182229D01*
X16357353Y-13420324D02*
X16347829Y-13410800D01*
X16347829Y-13410800D02*
X16328781Y-13382229D01*
X16328781Y-13382229D02*
X16319258Y-13363181D01*
X16319258Y-13363181D02*
X16309734Y-13334610D01*
X16309734Y-13334610D02*
X16300210Y-13286991D01*
X16300210Y-13286991D02*
X16300210Y-13248896D01*
X16300210Y-13248896D02*
X16309734Y-13201277D01*
X16309734Y-13201277D02*
X16319258Y-13172705D01*
X16319258Y-13172705D02*
X16328781Y-13153658D01*
X16328781Y-13153658D02*
X16347829Y-13125086D01*
X16347829Y-13125086D02*
X16357353Y-13115562D01*
X16538305Y-13344134D02*
X16424019Y-13344134D01*
X16481162Y-13344134D02*
X16481162Y-13144134D01*
X16481162Y-13144134D02*
X16462115Y-13172705D01*
X16462115Y-13172705D02*
X16443067Y-13191753D01*
X16443067Y-13191753D02*
X16424019Y-13201277D01*
X16662115Y-13144134D02*
X16681162Y-13144134D01*
X16681162Y-13144134D02*
X16700210Y-13153658D01*
X16700210Y-13153658D02*
X16709734Y-13163181D01*
X16709734Y-13163181D02*
X16719258Y-13182229D01*
X16719258Y-13182229D02*
X16728781Y-13220324D01*
X16728781Y-13220324D02*
X16728781Y-13267943D01*
X16728781Y-13267943D02*
X16719258Y-13306038D01*
X16719258Y-13306038D02*
X16709734Y-13325086D01*
X16709734Y-13325086D02*
X16700210Y-13334610D01*
X16700210Y-13334610D02*
X16681162Y-13344134D01*
X16681162Y-13344134D02*
X16662115Y-13344134D01*
X16662115Y-13344134D02*
X16643067Y-13334610D01*
X16643067Y-13334610D02*
X16633543Y-13325086D01*
X16633543Y-13325086D02*
X16624019Y-13306038D01*
X16624019Y-13306038D02*
X16614496Y-13267943D01*
X16614496Y-13267943D02*
X16614496Y-13220324D01*
X16614496Y-13220324D02*
X16624019Y-13182229D01*
X16624019Y-13182229D02*
X16633543Y-13163181D01*
X16633543Y-13163181D02*
X16643067Y-13153658D01*
X16643067Y-13153658D02*
X16662115Y-13144134D01*
X16966877Y-13344134D02*
X16966877Y-13144134D01*
X17052591Y-13344134D02*
X17052591Y-13239372D01*
X17052591Y-13239372D02*
X17043067Y-13220324D01*
X17043067Y-13220324D02*
X17024020Y-13210800D01*
X17024020Y-13210800D02*
X16995448Y-13210800D01*
X16995448Y-13210800D02*
X16976401Y-13220324D01*
X16976401Y-13220324D02*
X16966877Y-13229848D01*
X17176401Y-13344134D02*
X17157353Y-13334610D01*
X17157353Y-13334610D02*
X17147829Y-13325086D01*
X17147829Y-13325086D02*
X17138305Y-13306038D01*
X17138305Y-13306038D02*
X17138305Y-13248896D01*
X17138305Y-13248896D02*
X17147829Y-13229848D01*
X17147829Y-13229848D02*
X17157353Y-13220324D01*
X17157353Y-13220324D02*
X17176401Y-13210800D01*
X17176401Y-13210800D02*
X17204972Y-13210800D01*
X17204972Y-13210800D02*
X17224020Y-13220324D01*
X17224020Y-13220324D02*
X17233543Y-13229848D01*
X17233543Y-13229848D02*
X17243067Y-13248896D01*
X17243067Y-13248896D02*
X17243067Y-13306038D01*
X17243067Y-13306038D02*
X17233543Y-13325086D01*
X17233543Y-13325086D02*
X17224020Y-13334610D01*
X17224020Y-13334610D02*
X17204972Y-13344134D01*
X17204972Y-13344134D02*
X17176401Y-13344134D01*
X17357353Y-13344134D02*
X17338305Y-13334610D01*
X17338305Y-13334610D02*
X17328782Y-13315562D01*
X17328782Y-13315562D02*
X17328782Y-13144134D01*
X17509734Y-13334610D02*
X17490686Y-13344134D01*
X17490686Y-13344134D02*
X17452591Y-13344134D01*
X17452591Y-13344134D02*
X17433543Y-13334610D01*
X17433543Y-13334610D02*
X17424020Y-13315562D01*
X17424020Y-13315562D02*
X17424020Y-13239372D01*
X17424020Y-13239372D02*
X17433543Y-13220324D01*
X17433543Y-13220324D02*
X17452591Y-13210800D01*
X17452591Y-13210800D02*
X17490686Y-13210800D01*
X17490686Y-13210800D02*
X17509734Y-13220324D01*
X17509734Y-13220324D02*
X17519258Y-13239372D01*
X17519258Y-13239372D02*
X17519258Y-13258419D01*
X17519258Y-13258419D02*
X17424020Y-13277467D01*
X17595448Y-13334610D02*
X17614496Y-13344134D01*
X17614496Y-13344134D02*
X17652591Y-13344134D01*
X17652591Y-13344134D02*
X17671639Y-13334610D01*
X17671639Y-13334610D02*
X17681163Y-13315562D01*
X17681163Y-13315562D02*
X17681163Y-13306038D01*
X17681163Y-13306038D02*
X17671639Y-13286991D01*
X17671639Y-13286991D02*
X17652591Y-13277467D01*
X17652591Y-13277467D02*
X17624020Y-13277467D01*
X17624020Y-13277467D02*
X17604972Y-13267943D01*
X17604972Y-13267943D02*
X17595448Y-13248896D01*
X17595448Y-13248896D02*
X17595448Y-13239372D01*
X17595448Y-13239372D02*
X17604972Y-13220324D01*
X17604972Y-13220324D02*
X17624020Y-13210800D01*
X17624020Y-13210800D02*
X17652591Y-13210800D01*
X17652591Y-13210800D02*
X17671639Y-13220324D01*
X17747829Y-13420324D02*
X17757353Y-13410800D01*
X17757353Y-13410800D02*
X17776401Y-13382229D01*
X17776401Y-13382229D02*
X17785924Y-13363181D01*
X17785924Y-13363181D02*
X17795448Y-13334610D01*
X17795448Y-13334610D02*
X17804972Y-13286991D01*
X17804972Y-13286991D02*
X17804972Y-13248896D01*
X17804972Y-13248896D02*
X17795448Y-13201277D01*
X17795448Y-13201277D02*
X17785924Y-13172705D01*
X17785924Y-13172705D02*
X17776401Y-13153658D01*
X17776401Y-13153658D02*
X17757353Y-13125086D01*
X17757353Y-13125086D02*
X17747829Y-13115562D01*
X12753001Y-13587361D02*
X12753001Y-13445939D01*
X12611579Y-13445939D01*
X12611579Y-13587361D01*
X12753001Y-13587361D01*
X13128781Y-13474800D02*
X13128781Y-13608134D01*
X13081162Y-13398610D02*
X13033543Y-13541467D01*
X13033543Y-13541467D02*
X13157352Y-13541467D01*
X13233543Y-13589086D02*
X13243067Y-13598610D01*
X13243067Y-13598610D02*
X13233543Y-13608134D01*
X13233543Y-13608134D02*
X13224019Y-13598610D01*
X13224019Y-13598610D02*
X13233543Y-13589086D01*
X13233543Y-13589086D02*
X13233543Y-13608134D01*
X13424019Y-13408134D02*
X13328781Y-13408134D01*
X13328781Y-13408134D02*
X13319257Y-13503372D01*
X13319257Y-13503372D02*
X13328781Y-13493848D01*
X13328781Y-13493848D02*
X13347829Y-13484324D01*
X13347829Y-13484324D02*
X13395448Y-13484324D01*
X13395448Y-13484324D02*
X13414495Y-13493848D01*
X13414495Y-13493848D02*
X13424019Y-13503372D01*
X13424019Y-13503372D02*
X13433543Y-13522419D01*
X13433543Y-13522419D02*
X13433543Y-13570038D01*
X13433543Y-13570038D02*
X13424019Y-13589086D01*
X13424019Y-13589086D02*
X13414495Y-13598610D01*
X13414495Y-13598610D02*
X13395448Y-13608134D01*
X13395448Y-13608134D02*
X13347829Y-13608134D01*
X13347829Y-13608134D02*
X13328781Y-13598610D01*
X13328781Y-13598610D02*
X13319257Y-13589086D01*
X13557352Y-13408134D02*
X13576400Y-13408134D01*
X13576400Y-13408134D02*
X13595448Y-13417658D01*
X13595448Y-13417658D02*
X13604972Y-13427181D01*
X13604972Y-13427181D02*
X13614495Y-13446229D01*
X13614495Y-13446229D02*
X13624019Y-13484324D01*
X13624019Y-13484324D02*
X13624019Y-13531943D01*
X13624019Y-13531943D02*
X13614495Y-13570038D01*
X13614495Y-13570038D02*
X13604972Y-13589086D01*
X13604972Y-13589086D02*
X13595448Y-13598610D01*
X13595448Y-13598610D02*
X13576400Y-13608134D01*
X13576400Y-13608134D02*
X13557352Y-13608134D01*
X13557352Y-13608134D02*
X13538305Y-13598610D01*
X13538305Y-13598610D02*
X13528781Y-13589086D01*
X13528781Y-13589086D02*
X13519257Y-13570038D01*
X13519257Y-13570038D02*
X13509733Y-13531943D01*
X13509733Y-13531943D02*
X13509733Y-13484324D01*
X13509733Y-13484324D02*
X13519257Y-13446229D01*
X13519257Y-13446229D02*
X13528781Y-13427181D01*
X13528781Y-13427181D02*
X13538305Y-13417658D01*
X13538305Y-13417658D02*
X13557352Y-13408134D01*
X13747829Y-13408134D02*
X13766876Y-13408134D01*
X13766876Y-13408134D02*
X13785924Y-13417658D01*
X13785924Y-13417658D02*
X13795448Y-13427181D01*
X13795448Y-13427181D02*
X13804972Y-13446229D01*
X13804972Y-13446229D02*
X13814495Y-13484324D01*
X13814495Y-13484324D02*
X13814495Y-13531943D01*
X13814495Y-13531943D02*
X13804972Y-13570038D01*
X13804972Y-13570038D02*
X13795448Y-13589086D01*
X13795448Y-13589086D02*
X13785924Y-13598610D01*
X13785924Y-13598610D02*
X13766876Y-13608134D01*
X13766876Y-13608134D02*
X13747829Y-13608134D01*
X13747829Y-13608134D02*
X13728781Y-13598610D01*
X13728781Y-13598610D02*
X13719257Y-13589086D01*
X13719257Y-13589086D02*
X13709733Y-13570038D01*
X13709733Y-13570038D02*
X13700210Y-13531943D01*
X13700210Y-13531943D02*
X13700210Y-13484324D01*
X13700210Y-13484324D02*
X13709733Y-13446229D01*
X13709733Y-13446229D02*
X13719257Y-13427181D01*
X13719257Y-13427181D02*
X13728781Y-13417658D01*
X13728781Y-13417658D02*
X13747829Y-13408134D01*
X13900210Y-13608134D02*
X13900210Y-13474800D01*
X13900210Y-13493848D02*
X13909733Y-13484324D01*
X13909733Y-13484324D02*
X13928781Y-13474800D01*
X13928781Y-13474800D02*
X13957353Y-13474800D01*
X13957353Y-13474800D02*
X13976400Y-13484324D01*
X13976400Y-13484324D02*
X13985924Y-13503372D01*
X13985924Y-13503372D02*
X13985924Y-13608134D01*
X13985924Y-13503372D02*
X13995448Y-13484324D01*
X13995448Y-13484324D02*
X14014495Y-13474800D01*
X14014495Y-13474800D02*
X14043067Y-13474800D01*
X14043067Y-13474800D02*
X14062114Y-13484324D01*
X14062114Y-13484324D02*
X14071638Y-13503372D01*
X14071638Y-13503372D02*
X14071638Y-13608134D01*
X14166876Y-13608134D02*
X14166876Y-13474800D01*
X14166876Y-13493848D02*
X14176400Y-13484324D01*
X14176400Y-13484324D02*
X14195448Y-13474800D01*
X14195448Y-13474800D02*
X14224019Y-13474800D01*
X14224019Y-13474800D02*
X14243067Y-13484324D01*
X14243067Y-13484324D02*
X14252591Y-13503372D01*
X14252591Y-13503372D02*
X14252591Y-13608134D01*
X14252591Y-13503372D02*
X14262114Y-13484324D01*
X14262114Y-13484324D02*
X14281162Y-13474800D01*
X14281162Y-13474800D02*
X14309733Y-13474800D01*
X14309733Y-13474800D02*
X14328781Y-13484324D01*
X14328781Y-13484324D02*
X14338305Y-13503372D01*
X14338305Y-13503372D02*
X14338305Y-13608134D01*
X14728781Y-13398610D02*
X14557353Y-13655753D01*
X14985924Y-13408134D02*
X15004972Y-13408134D01*
X15004972Y-13408134D02*
X15024019Y-13417658D01*
X15024019Y-13417658D02*
X15033543Y-13427181D01*
X15033543Y-13427181D02*
X15043067Y-13446229D01*
X15043067Y-13446229D02*
X15052591Y-13484324D01*
X15052591Y-13484324D02*
X15052591Y-13531943D01*
X15052591Y-13531943D02*
X15043067Y-13570038D01*
X15043067Y-13570038D02*
X15033543Y-13589086D01*
X15033543Y-13589086D02*
X15024019Y-13598610D01*
X15024019Y-13598610D02*
X15004972Y-13608134D01*
X15004972Y-13608134D02*
X14985924Y-13608134D01*
X14985924Y-13608134D02*
X14966876Y-13598610D01*
X14966876Y-13598610D02*
X14957353Y-13589086D01*
X14957353Y-13589086D02*
X14947829Y-13570038D01*
X14947829Y-13570038D02*
X14938305Y-13531943D01*
X14938305Y-13531943D02*
X14938305Y-13484324D01*
X14938305Y-13484324D02*
X14947829Y-13446229D01*
X14947829Y-13446229D02*
X14957353Y-13427181D01*
X14957353Y-13427181D02*
X14966876Y-13417658D01*
X14966876Y-13417658D02*
X14985924Y-13408134D01*
X15138305Y-13589086D02*
X15147829Y-13598610D01*
X15147829Y-13598610D02*
X15138305Y-13608134D01*
X15138305Y-13608134D02*
X15128781Y-13598610D01*
X15128781Y-13598610D02*
X15138305Y-13589086D01*
X15138305Y-13589086D02*
X15138305Y-13608134D01*
X15338305Y-13608134D02*
X15224019Y-13608134D01*
X15281162Y-13608134D02*
X15281162Y-13408134D01*
X15281162Y-13408134D02*
X15262115Y-13436705D01*
X15262115Y-13436705D02*
X15243067Y-13455753D01*
X15243067Y-13455753D02*
X15224019Y-13465277D01*
X15404972Y-13408134D02*
X15538305Y-13408134D01*
X15538305Y-13408134D02*
X15452591Y-13608134D01*
X15595448Y-13408134D02*
X15728781Y-13408134D01*
X15728781Y-13408134D02*
X15643067Y-13608134D01*
X15795448Y-13427181D02*
X15804972Y-13417658D01*
X15804972Y-13417658D02*
X15824019Y-13408134D01*
X15824019Y-13408134D02*
X15871638Y-13408134D01*
X15871638Y-13408134D02*
X15890686Y-13417658D01*
X15890686Y-13417658D02*
X15900210Y-13427181D01*
X15900210Y-13427181D02*
X15909734Y-13446229D01*
X15909734Y-13446229D02*
X15909734Y-13465277D01*
X15909734Y-13465277D02*
X15900210Y-13493848D01*
X15900210Y-13493848D02*
X15785924Y-13608134D01*
X15785924Y-13608134D02*
X15909734Y-13608134D01*
X15985924Y-13408134D02*
X15985924Y-13446229D01*
X16062115Y-13408134D02*
X16062115Y-13446229D01*
X16357353Y-13684324D02*
X16347829Y-13674800D01*
X16347829Y-13674800D02*
X16328781Y-13646229D01*
X16328781Y-13646229D02*
X16319258Y-13627181D01*
X16319258Y-13627181D02*
X16309734Y-13598610D01*
X16309734Y-13598610D02*
X16300210Y-13550991D01*
X16300210Y-13550991D02*
X16300210Y-13512896D01*
X16300210Y-13512896D02*
X16309734Y-13465277D01*
X16309734Y-13465277D02*
X16319258Y-13436705D01*
X16319258Y-13436705D02*
X16328781Y-13417658D01*
X16328781Y-13417658D02*
X16347829Y-13389086D01*
X16347829Y-13389086D02*
X16357353Y-13379562D01*
X16424019Y-13427181D02*
X16433543Y-13417658D01*
X16433543Y-13417658D02*
X16452591Y-13408134D01*
X16452591Y-13408134D02*
X16500210Y-13408134D01*
X16500210Y-13408134D02*
X16519258Y-13417658D01*
X16519258Y-13417658D02*
X16528781Y-13427181D01*
X16528781Y-13427181D02*
X16538305Y-13446229D01*
X16538305Y-13446229D02*
X16538305Y-13465277D01*
X16538305Y-13465277D02*
X16528781Y-13493848D01*
X16528781Y-13493848D02*
X16414496Y-13608134D01*
X16414496Y-13608134D02*
X16538305Y-13608134D01*
X16776400Y-13608134D02*
X16776400Y-13408134D01*
X16862115Y-13608134D02*
X16862115Y-13503372D01*
X16862115Y-13503372D02*
X16852591Y-13484324D01*
X16852591Y-13484324D02*
X16833543Y-13474800D01*
X16833543Y-13474800D02*
X16804972Y-13474800D01*
X16804972Y-13474800D02*
X16785924Y-13484324D01*
X16785924Y-13484324D02*
X16776400Y-13493848D01*
X16985924Y-13608134D02*
X16966877Y-13598610D01*
X16966877Y-13598610D02*
X16957353Y-13589086D01*
X16957353Y-13589086D02*
X16947829Y-13570038D01*
X16947829Y-13570038D02*
X16947829Y-13512896D01*
X16947829Y-13512896D02*
X16957353Y-13493848D01*
X16957353Y-13493848D02*
X16966877Y-13484324D01*
X16966877Y-13484324D02*
X16985924Y-13474800D01*
X16985924Y-13474800D02*
X17014496Y-13474800D01*
X17014496Y-13474800D02*
X17033543Y-13484324D01*
X17033543Y-13484324D02*
X17043067Y-13493848D01*
X17043067Y-13493848D02*
X17052591Y-13512896D01*
X17052591Y-13512896D02*
X17052591Y-13570038D01*
X17052591Y-13570038D02*
X17043067Y-13589086D01*
X17043067Y-13589086D02*
X17033543Y-13598610D01*
X17033543Y-13598610D02*
X17014496Y-13608134D01*
X17014496Y-13608134D02*
X16985924Y-13608134D01*
X17166877Y-13608134D02*
X17147829Y-13598610D01*
X17147829Y-13598610D02*
X17138305Y-13579562D01*
X17138305Y-13579562D02*
X17138305Y-13408134D01*
X17319258Y-13598610D02*
X17300210Y-13608134D01*
X17300210Y-13608134D02*
X17262115Y-13608134D01*
X17262115Y-13608134D02*
X17243067Y-13598610D01*
X17243067Y-13598610D02*
X17233543Y-13579562D01*
X17233543Y-13579562D02*
X17233543Y-13503372D01*
X17233543Y-13503372D02*
X17243067Y-13484324D01*
X17243067Y-13484324D02*
X17262115Y-13474800D01*
X17262115Y-13474800D02*
X17300210Y-13474800D01*
X17300210Y-13474800D02*
X17319258Y-13484324D01*
X17319258Y-13484324D02*
X17328782Y-13503372D01*
X17328782Y-13503372D02*
X17328782Y-13522419D01*
X17328782Y-13522419D02*
X17233543Y-13541467D01*
X17404972Y-13598610D02*
X17424020Y-13608134D01*
X17424020Y-13608134D02*
X17462115Y-13608134D01*
X17462115Y-13608134D02*
X17481163Y-13598610D01*
X17481163Y-13598610D02*
X17490686Y-13579562D01*
X17490686Y-13579562D02*
X17490686Y-13570038D01*
X17490686Y-13570038D02*
X17481163Y-13550991D01*
X17481163Y-13550991D02*
X17462115Y-13541467D01*
X17462115Y-13541467D02*
X17433543Y-13541467D01*
X17433543Y-13541467D02*
X17414496Y-13531943D01*
X17414496Y-13531943D02*
X17404972Y-13512896D01*
X17404972Y-13512896D02*
X17404972Y-13503372D01*
X17404972Y-13503372D02*
X17414496Y-13484324D01*
X17414496Y-13484324D02*
X17433543Y-13474800D01*
X17433543Y-13474800D02*
X17462115Y-13474800D01*
X17462115Y-13474800D02*
X17481163Y-13484324D01*
X17557353Y-13684324D02*
X17566877Y-13674800D01*
X17566877Y-13674800D02*
X17585924Y-13646229D01*
X17585924Y-13646229D02*
X17595448Y-13627181D01*
X17595448Y-13627181D02*
X17604972Y-13598610D01*
X17604972Y-13598610D02*
X17614496Y-13550991D01*
X17614496Y-13550991D02*
X17614496Y-13512896D01*
X17614496Y-13512896D02*
X17604972Y-13465277D01*
X17604972Y-13465277D02*
X17595448Y-13436705D01*
X17595448Y-13436705D02*
X17585924Y-13417658D01*
X17585924Y-13417658D02*
X17566877Y-13389086D01*
X17566877Y-13389086D02*
X17557353Y-13379562D01*
X12682290Y-13936650D02*
X12782290Y-13836650D01*
X12682290Y-13736650D01*
X12582290Y-13836650D01*
X12682290Y-13936650D01*
X13024019Y-13728134D02*
X13147829Y-13728134D01*
X13147829Y-13728134D02*
X13081162Y-13804324D01*
X13081162Y-13804324D02*
X13109733Y-13804324D01*
X13109733Y-13804324D02*
X13128781Y-13813848D01*
X13128781Y-13813848D02*
X13138305Y-13823372D01*
X13138305Y-13823372D02*
X13147829Y-13842419D01*
X13147829Y-13842419D02*
X13147829Y-13890038D01*
X13147829Y-13890038D02*
X13138305Y-13909086D01*
X13138305Y-13909086D02*
X13128781Y-13918610D01*
X13128781Y-13918610D02*
X13109733Y-13928134D01*
X13109733Y-13928134D02*
X13052591Y-13928134D01*
X13052591Y-13928134D02*
X13033543Y-13918610D01*
X13033543Y-13918610D02*
X13024019Y-13909086D01*
X13233543Y-13909086D02*
X13243067Y-13918610D01*
X13243067Y-13918610D02*
X13233543Y-13928134D01*
X13233543Y-13928134D02*
X13224019Y-13918610D01*
X13224019Y-13918610D02*
X13233543Y-13909086D01*
X13233543Y-13909086D02*
X13233543Y-13928134D01*
X13319257Y-13747181D02*
X13328781Y-13737658D01*
X13328781Y-13737658D02*
X13347829Y-13728134D01*
X13347829Y-13728134D02*
X13395448Y-13728134D01*
X13395448Y-13728134D02*
X13414495Y-13737658D01*
X13414495Y-13737658D02*
X13424019Y-13747181D01*
X13424019Y-13747181D02*
X13433543Y-13766229D01*
X13433543Y-13766229D02*
X13433543Y-13785277D01*
X13433543Y-13785277D02*
X13424019Y-13813848D01*
X13424019Y-13813848D02*
X13309733Y-13928134D01*
X13309733Y-13928134D02*
X13433543Y-13928134D01*
X13557352Y-13728134D02*
X13576400Y-13728134D01*
X13576400Y-13728134D02*
X13595448Y-13737658D01*
X13595448Y-13737658D02*
X13604972Y-13747181D01*
X13604972Y-13747181D02*
X13614495Y-13766229D01*
X13614495Y-13766229D02*
X13624019Y-13804324D01*
X13624019Y-13804324D02*
X13624019Y-13851943D01*
X13624019Y-13851943D02*
X13614495Y-13890038D01*
X13614495Y-13890038D02*
X13604972Y-13909086D01*
X13604972Y-13909086D02*
X13595448Y-13918610D01*
X13595448Y-13918610D02*
X13576400Y-13928134D01*
X13576400Y-13928134D02*
X13557352Y-13928134D01*
X13557352Y-13928134D02*
X13538305Y-13918610D01*
X13538305Y-13918610D02*
X13528781Y-13909086D01*
X13528781Y-13909086D02*
X13519257Y-13890038D01*
X13519257Y-13890038D02*
X13509733Y-13851943D01*
X13509733Y-13851943D02*
X13509733Y-13804324D01*
X13509733Y-13804324D02*
X13519257Y-13766229D01*
X13519257Y-13766229D02*
X13528781Y-13747181D01*
X13528781Y-13747181D02*
X13538305Y-13737658D01*
X13538305Y-13737658D02*
X13557352Y-13728134D01*
X13747829Y-13728134D02*
X13766876Y-13728134D01*
X13766876Y-13728134D02*
X13785924Y-13737658D01*
X13785924Y-13737658D02*
X13795448Y-13747181D01*
X13795448Y-13747181D02*
X13804972Y-13766229D01*
X13804972Y-13766229D02*
X13814495Y-13804324D01*
X13814495Y-13804324D02*
X13814495Y-13851943D01*
X13814495Y-13851943D02*
X13804972Y-13890038D01*
X13804972Y-13890038D02*
X13795448Y-13909086D01*
X13795448Y-13909086D02*
X13785924Y-13918610D01*
X13785924Y-13918610D02*
X13766876Y-13928134D01*
X13766876Y-13928134D02*
X13747829Y-13928134D01*
X13747829Y-13928134D02*
X13728781Y-13918610D01*
X13728781Y-13918610D02*
X13719257Y-13909086D01*
X13719257Y-13909086D02*
X13709733Y-13890038D01*
X13709733Y-13890038D02*
X13700210Y-13851943D01*
X13700210Y-13851943D02*
X13700210Y-13804324D01*
X13700210Y-13804324D02*
X13709733Y-13766229D01*
X13709733Y-13766229D02*
X13719257Y-13747181D01*
X13719257Y-13747181D02*
X13728781Y-13737658D01*
X13728781Y-13737658D02*
X13747829Y-13728134D01*
X13900210Y-13928134D02*
X13900210Y-13794800D01*
X13900210Y-13813848D02*
X13909733Y-13804324D01*
X13909733Y-13804324D02*
X13928781Y-13794800D01*
X13928781Y-13794800D02*
X13957353Y-13794800D01*
X13957353Y-13794800D02*
X13976400Y-13804324D01*
X13976400Y-13804324D02*
X13985924Y-13823372D01*
X13985924Y-13823372D02*
X13985924Y-13928134D01*
X13985924Y-13823372D02*
X13995448Y-13804324D01*
X13995448Y-13804324D02*
X14014495Y-13794800D01*
X14014495Y-13794800D02*
X14043067Y-13794800D01*
X14043067Y-13794800D02*
X14062114Y-13804324D01*
X14062114Y-13804324D02*
X14071638Y-13823372D01*
X14071638Y-13823372D02*
X14071638Y-13928134D01*
X14166876Y-13928134D02*
X14166876Y-13794800D01*
X14166876Y-13813848D02*
X14176400Y-13804324D01*
X14176400Y-13804324D02*
X14195448Y-13794800D01*
X14195448Y-13794800D02*
X14224019Y-13794800D01*
X14224019Y-13794800D02*
X14243067Y-13804324D01*
X14243067Y-13804324D02*
X14252591Y-13823372D01*
X14252591Y-13823372D02*
X14252591Y-13928134D01*
X14252591Y-13823372D02*
X14262114Y-13804324D01*
X14262114Y-13804324D02*
X14281162Y-13794800D01*
X14281162Y-13794800D02*
X14309733Y-13794800D01*
X14309733Y-13794800D02*
X14328781Y-13804324D01*
X14328781Y-13804324D02*
X14338305Y-13823372D01*
X14338305Y-13823372D02*
X14338305Y-13928134D01*
X14728781Y-13718610D02*
X14557353Y-13975753D01*
X14985924Y-13728134D02*
X15004972Y-13728134D01*
X15004972Y-13728134D02*
X15024019Y-13737658D01*
X15024019Y-13737658D02*
X15033543Y-13747181D01*
X15033543Y-13747181D02*
X15043067Y-13766229D01*
X15043067Y-13766229D02*
X15052591Y-13804324D01*
X15052591Y-13804324D02*
X15052591Y-13851943D01*
X15052591Y-13851943D02*
X15043067Y-13890038D01*
X15043067Y-13890038D02*
X15033543Y-13909086D01*
X15033543Y-13909086D02*
X15024019Y-13918610D01*
X15024019Y-13918610D02*
X15004972Y-13928134D01*
X15004972Y-13928134D02*
X14985924Y-13928134D01*
X14985924Y-13928134D02*
X14966876Y-13918610D01*
X14966876Y-13918610D02*
X14957353Y-13909086D01*
X14957353Y-13909086D02*
X14947829Y-13890038D01*
X14947829Y-13890038D02*
X14938305Y-13851943D01*
X14938305Y-13851943D02*
X14938305Y-13804324D01*
X14938305Y-13804324D02*
X14947829Y-13766229D01*
X14947829Y-13766229D02*
X14957353Y-13747181D01*
X14957353Y-13747181D02*
X14966876Y-13737658D01*
X14966876Y-13737658D02*
X14985924Y-13728134D01*
X15138305Y-13909086D02*
X15147829Y-13918610D01*
X15147829Y-13918610D02*
X15138305Y-13928134D01*
X15138305Y-13928134D02*
X15128781Y-13918610D01*
X15128781Y-13918610D02*
X15138305Y-13909086D01*
X15138305Y-13909086D02*
X15138305Y-13928134D01*
X15338305Y-13928134D02*
X15224019Y-13928134D01*
X15281162Y-13928134D02*
X15281162Y-13728134D01*
X15281162Y-13728134D02*
X15262115Y-13756705D01*
X15262115Y-13756705D02*
X15243067Y-13775753D01*
X15243067Y-13775753D02*
X15224019Y-13785277D01*
X15414496Y-13747181D02*
X15424019Y-13737658D01*
X15424019Y-13737658D02*
X15443067Y-13728134D01*
X15443067Y-13728134D02*
X15490686Y-13728134D01*
X15490686Y-13728134D02*
X15509734Y-13737658D01*
X15509734Y-13737658D02*
X15519257Y-13747181D01*
X15519257Y-13747181D02*
X15528781Y-13766229D01*
X15528781Y-13766229D02*
X15528781Y-13785277D01*
X15528781Y-13785277D02*
X15519257Y-13813848D01*
X15519257Y-13813848D02*
X15404972Y-13928134D01*
X15404972Y-13928134D02*
X15528781Y-13928134D01*
X15700210Y-13728134D02*
X15662115Y-13728134D01*
X15662115Y-13728134D02*
X15643067Y-13737658D01*
X15643067Y-13737658D02*
X15633543Y-13747181D01*
X15633543Y-13747181D02*
X15614496Y-13775753D01*
X15614496Y-13775753D02*
X15604972Y-13813848D01*
X15604972Y-13813848D02*
X15604972Y-13890038D01*
X15604972Y-13890038D02*
X15614496Y-13909086D01*
X15614496Y-13909086D02*
X15624019Y-13918610D01*
X15624019Y-13918610D02*
X15643067Y-13928134D01*
X15643067Y-13928134D02*
X15681162Y-13928134D01*
X15681162Y-13928134D02*
X15700210Y-13918610D01*
X15700210Y-13918610D02*
X15709734Y-13909086D01*
X15709734Y-13909086D02*
X15719257Y-13890038D01*
X15719257Y-13890038D02*
X15719257Y-13842419D01*
X15719257Y-13842419D02*
X15709734Y-13823372D01*
X15709734Y-13823372D02*
X15700210Y-13813848D01*
X15700210Y-13813848D02*
X15681162Y-13804324D01*
X15681162Y-13804324D02*
X15643067Y-13804324D01*
X15643067Y-13804324D02*
X15624019Y-13813848D01*
X15624019Y-13813848D02*
X15614496Y-13823372D01*
X15614496Y-13823372D02*
X15604972Y-13842419D01*
X15843067Y-13728134D02*
X15862115Y-13728134D01*
X15862115Y-13728134D02*
X15881162Y-13737658D01*
X15881162Y-13737658D02*
X15890686Y-13747181D01*
X15890686Y-13747181D02*
X15900210Y-13766229D01*
X15900210Y-13766229D02*
X15909734Y-13804324D01*
X15909734Y-13804324D02*
X15909734Y-13851943D01*
X15909734Y-13851943D02*
X15900210Y-13890038D01*
X15900210Y-13890038D02*
X15890686Y-13909086D01*
X15890686Y-13909086D02*
X15881162Y-13918610D01*
X15881162Y-13918610D02*
X15862115Y-13928134D01*
X15862115Y-13928134D02*
X15843067Y-13928134D01*
X15843067Y-13928134D02*
X15824019Y-13918610D01*
X15824019Y-13918610D02*
X15814496Y-13909086D01*
X15814496Y-13909086D02*
X15804972Y-13890038D01*
X15804972Y-13890038D02*
X15795448Y-13851943D01*
X15795448Y-13851943D02*
X15795448Y-13804324D01*
X15795448Y-13804324D02*
X15804972Y-13766229D01*
X15804972Y-13766229D02*
X15814496Y-13747181D01*
X15814496Y-13747181D02*
X15824019Y-13737658D01*
X15824019Y-13737658D02*
X15843067Y-13728134D01*
X15985924Y-13728134D02*
X15985924Y-13766229D01*
X16062115Y-13728134D02*
X16062115Y-13766229D01*
X16357353Y-14004324D02*
X16347829Y-13994800D01*
X16347829Y-13994800D02*
X16328781Y-13966229D01*
X16328781Y-13966229D02*
X16319258Y-13947181D01*
X16319258Y-13947181D02*
X16309734Y-13918610D01*
X16309734Y-13918610D02*
X16300210Y-13870991D01*
X16300210Y-13870991D02*
X16300210Y-13832896D01*
X16300210Y-13832896D02*
X16309734Y-13785277D01*
X16309734Y-13785277D02*
X16319258Y-13756705D01*
X16319258Y-13756705D02*
X16328781Y-13737658D01*
X16328781Y-13737658D02*
X16347829Y-13709086D01*
X16347829Y-13709086D02*
X16357353Y-13699562D01*
X16519258Y-13794800D02*
X16519258Y-13928134D01*
X16471638Y-13718610D02*
X16424019Y-13861467D01*
X16424019Y-13861467D02*
X16547829Y-13861467D01*
X16776400Y-13928134D02*
X16776400Y-13728134D01*
X16862115Y-13928134D02*
X16862115Y-13823372D01*
X16862115Y-13823372D02*
X16852591Y-13804324D01*
X16852591Y-13804324D02*
X16833543Y-13794800D01*
X16833543Y-13794800D02*
X16804972Y-13794800D01*
X16804972Y-13794800D02*
X16785924Y-13804324D01*
X16785924Y-13804324D02*
X16776400Y-13813848D01*
X16985924Y-13928134D02*
X16966877Y-13918610D01*
X16966877Y-13918610D02*
X16957353Y-13909086D01*
X16957353Y-13909086D02*
X16947829Y-13890038D01*
X16947829Y-13890038D02*
X16947829Y-13832896D01*
X16947829Y-13832896D02*
X16957353Y-13813848D01*
X16957353Y-13813848D02*
X16966877Y-13804324D01*
X16966877Y-13804324D02*
X16985924Y-13794800D01*
X16985924Y-13794800D02*
X17014496Y-13794800D01*
X17014496Y-13794800D02*
X17033543Y-13804324D01*
X17033543Y-13804324D02*
X17043067Y-13813848D01*
X17043067Y-13813848D02*
X17052591Y-13832896D01*
X17052591Y-13832896D02*
X17052591Y-13890038D01*
X17052591Y-13890038D02*
X17043067Y-13909086D01*
X17043067Y-13909086D02*
X17033543Y-13918610D01*
X17033543Y-13918610D02*
X17014496Y-13928134D01*
X17014496Y-13928134D02*
X16985924Y-13928134D01*
X17166877Y-13928134D02*
X17147829Y-13918610D01*
X17147829Y-13918610D02*
X17138305Y-13899562D01*
X17138305Y-13899562D02*
X17138305Y-13728134D01*
X17319258Y-13918610D02*
X17300210Y-13928134D01*
X17300210Y-13928134D02*
X17262115Y-13928134D01*
X17262115Y-13928134D02*
X17243067Y-13918610D01*
X17243067Y-13918610D02*
X17233543Y-13899562D01*
X17233543Y-13899562D02*
X17233543Y-13823372D01*
X17233543Y-13823372D02*
X17243067Y-13804324D01*
X17243067Y-13804324D02*
X17262115Y-13794800D01*
X17262115Y-13794800D02*
X17300210Y-13794800D01*
X17300210Y-13794800D02*
X17319258Y-13804324D01*
X17319258Y-13804324D02*
X17328782Y-13823372D01*
X17328782Y-13823372D02*
X17328782Y-13842419D01*
X17328782Y-13842419D02*
X17233543Y-13861467D01*
X17404972Y-13918610D02*
X17424020Y-13928134D01*
X17424020Y-13928134D02*
X17462115Y-13928134D01*
X17462115Y-13928134D02*
X17481163Y-13918610D01*
X17481163Y-13918610D02*
X17490686Y-13899562D01*
X17490686Y-13899562D02*
X17490686Y-13890038D01*
X17490686Y-13890038D02*
X17481163Y-13870991D01*
X17481163Y-13870991D02*
X17462115Y-13861467D01*
X17462115Y-13861467D02*
X17433543Y-13861467D01*
X17433543Y-13861467D02*
X17414496Y-13851943D01*
X17414496Y-13851943D02*
X17404972Y-13832896D01*
X17404972Y-13832896D02*
X17404972Y-13823372D01*
X17404972Y-13823372D02*
X17414496Y-13804324D01*
X17414496Y-13804324D02*
X17433543Y-13794800D01*
X17433543Y-13794800D02*
X17462115Y-13794800D01*
X17462115Y-13794800D02*
X17481163Y-13804324D01*
X17557353Y-14004324D02*
X17566877Y-13994800D01*
X17566877Y-13994800D02*
X17585924Y-13966229D01*
X17585924Y-13966229D02*
X17595448Y-13947181D01*
X17595448Y-13947181D02*
X17604972Y-13918610D01*
X17604972Y-13918610D02*
X17614496Y-13870991D01*
X17614496Y-13870991D02*
X17614496Y-13832896D01*
X17614496Y-13832896D02*
X17604972Y-13785277D01*
X17604972Y-13785277D02*
X17595448Y-13756705D01*
X17595448Y-13756705D02*
X17585924Y-13737658D01*
X17585924Y-13737658D02*
X17566877Y-13709086D01*
X17566877Y-13709086D02*
X17557353Y-13699562D01*
X17919258Y-14004324D02*
X17909734Y-13994800D01*
X17909734Y-13994800D02*
X17890686Y-13966229D01*
X17890686Y-13966229D02*
X17881163Y-13947181D01*
X17881163Y-13947181D02*
X17871639Y-13918610D01*
X17871639Y-13918610D02*
X17862115Y-13870991D01*
X17862115Y-13870991D02*
X17862115Y-13832896D01*
X17862115Y-13832896D02*
X17871639Y-13785277D01*
X17871639Y-13785277D02*
X17881163Y-13756705D01*
X17881163Y-13756705D02*
X17890686Y-13737658D01*
X17890686Y-13737658D02*
X17909734Y-13709086D01*
X17909734Y-13709086D02*
X17919258Y-13699562D01*
X17995448Y-13794800D02*
X17995448Y-13928134D01*
X17995448Y-13813848D02*
X18004972Y-13804324D01*
X18004972Y-13804324D02*
X18024020Y-13794800D01*
X18024020Y-13794800D02*
X18052591Y-13794800D01*
X18052591Y-13794800D02*
X18071639Y-13804324D01*
X18071639Y-13804324D02*
X18081163Y-13823372D01*
X18081163Y-13823372D02*
X18081163Y-13928134D01*
X18204972Y-13928134D02*
X18185924Y-13918610D01*
X18185924Y-13918610D02*
X18176401Y-13909086D01*
X18176401Y-13909086D02*
X18166877Y-13890038D01*
X18166877Y-13890038D02*
X18166877Y-13832896D01*
X18166877Y-13832896D02*
X18176401Y-13813848D01*
X18176401Y-13813848D02*
X18185924Y-13804324D01*
X18185924Y-13804324D02*
X18204972Y-13794800D01*
X18204972Y-13794800D02*
X18233544Y-13794800D01*
X18233544Y-13794800D02*
X18252591Y-13804324D01*
X18252591Y-13804324D02*
X18262115Y-13813848D01*
X18262115Y-13813848D02*
X18271639Y-13832896D01*
X18271639Y-13832896D02*
X18271639Y-13890038D01*
X18271639Y-13890038D02*
X18262115Y-13909086D01*
X18262115Y-13909086D02*
X18252591Y-13918610D01*
X18252591Y-13918610D02*
X18233544Y-13928134D01*
X18233544Y-13928134D02*
X18204972Y-13928134D01*
X18328782Y-13794800D02*
X18404972Y-13794800D01*
X18357353Y-13728134D02*
X18357353Y-13899562D01*
X18357353Y-13899562D02*
X18366877Y-13918610D01*
X18366877Y-13918610D02*
X18385924Y-13928134D01*
X18385924Y-13928134D02*
X18404972Y-13928134D01*
X18624020Y-13794800D02*
X18624020Y-13994800D01*
X18624020Y-13804324D02*
X18643067Y-13794800D01*
X18643067Y-13794800D02*
X18681163Y-13794800D01*
X18681163Y-13794800D02*
X18700210Y-13804324D01*
X18700210Y-13804324D02*
X18709734Y-13813848D01*
X18709734Y-13813848D02*
X18719258Y-13832896D01*
X18719258Y-13832896D02*
X18719258Y-13890038D01*
X18719258Y-13890038D02*
X18709734Y-13909086D01*
X18709734Y-13909086D02*
X18700210Y-13918610D01*
X18700210Y-13918610D02*
X18681163Y-13928134D01*
X18681163Y-13928134D02*
X18643067Y-13928134D01*
X18643067Y-13928134D02*
X18624020Y-13918610D01*
X18833544Y-13928134D02*
X18814496Y-13918610D01*
X18814496Y-13918610D02*
X18804972Y-13899562D01*
X18804972Y-13899562D02*
X18804972Y-13728134D01*
X18995448Y-13928134D02*
X18995448Y-13823372D01*
X18995448Y-13823372D02*
X18985925Y-13804324D01*
X18985925Y-13804324D02*
X18966877Y-13794800D01*
X18966877Y-13794800D02*
X18928782Y-13794800D01*
X18928782Y-13794800D02*
X18909734Y-13804324D01*
X18995448Y-13918610D02*
X18976401Y-13928134D01*
X18976401Y-13928134D02*
X18928782Y-13928134D01*
X18928782Y-13928134D02*
X18909734Y-13918610D01*
X18909734Y-13918610D02*
X18900210Y-13899562D01*
X18900210Y-13899562D02*
X18900210Y-13880515D01*
X18900210Y-13880515D02*
X18909734Y-13861467D01*
X18909734Y-13861467D02*
X18928782Y-13851943D01*
X18928782Y-13851943D02*
X18976401Y-13851943D01*
X18976401Y-13851943D02*
X18995448Y-13842419D01*
X19062115Y-13794800D02*
X19138305Y-13794800D01*
X19090686Y-13728134D02*
X19090686Y-13899562D01*
X19090686Y-13899562D02*
X19100210Y-13918610D01*
X19100210Y-13918610D02*
X19119258Y-13928134D01*
X19119258Y-13928134D02*
X19138305Y-13928134D01*
X19281163Y-13918610D02*
X19262115Y-13928134D01*
X19262115Y-13928134D02*
X19224020Y-13928134D01*
X19224020Y-13928134D02*
X19204972Y-13918610D01*
X19204972Y-13918610D02*
X19195448Y-13899562D01*
X19195448Y-13899562D02*
X19195448Y-13823372D01*
X19195448Y-13823372D02*
X19204972Y-13804324D01*
X19204972Y-13804324D02*
X19224020Y-13794800D01*
X19224020Y-13794800D02*
X19262115Y-13794800D01*
X19262115Y-13794800D02*
X19281163Y-13804324D01*
X19281163Y-13804324D02*
X19290686Y-13823372D01*
X19290686Y-13823372D02*
X19290686Y-13842419D01*
X19290686Y-13842419D02*
X19195448Y-13861467D01*
X19462115Y-13928134D02*
X19462115Y-13728134D01*
X19462115Y-13918610D02*
X19443067Y-13928134D01*
X19443067Y-13928134D02*
X19404972Y-13928134D01*
X19404972Y-13928134D02*
X19385925Y-13918610D01*
X19385925Y-13918610D02*
X19376401Y-13909086D01*
X19376401Y-13909086D02*
X19366877Y-13890038D01*
X19366877Y-13890038D02*
X19366877Y-13832896D01*
X19366877Y-13832896D02*
X19376401Y-13813848D01*
X19376401Y-13813848D02*
X19385925Y-13804324D01*
X19385925Y-13804324D02*
X19404972Y-13794800D01*
X19404972Y-13794800D02*
X19443067Y-13794800D01*
X19443067Y-13794800D02*
X19462115Y-13804324D01*
X19538306Y-14004324D02*
X19547829Y-13994800D01*
X19547829Y-13994800D02*
X19566877Y-13966229D01*
X19566877Y-13966229D02*
X19576401Y-13947181D01*
X19576401Y-13947181D02*
X19585925Y-13918610D01*
X19585925Y-13918610D02*
X19595448Y-13870991D01*
X19595448Y-13870991D02*
X19595448Y-13832896D01*
X19595448Y-13832896D02*
X19585925Y-13785277D01*
X19585925Y-13785277D02*
X19576401Y-13756705D01*
X19576401Y-13756705D02*
X19566877Y-13737658D01*
X19566877Y-13737658D02*
X19547829Y-13709086D01*
X19547829Y-13709086D02*
X19538306Y-13699562D01*
M02*
