%TF.GenerationSoftware,KiCad,Pcbnew,9.0.6*%
%TF.CreationDate,2026-04-28T18:06:26+03:00*%
%TF.ProjectId,GP_STM32,47505f53-544d-4333-922e-6b696361645f,rev?*%
%TF.SameCoordinates,Original*%
%TF.FileFunction,Drillmap*%
%TF.FilePolarity,Positive*%
%FSLAX45Y45*%
G04 Gerber Fmt 4.5, Leading zero omitted, Abs format (unit mm)*
G04 Created by KiCad (PCBNEW 9.0.6) date 2026-04-28 18:06:26*
%MOMM*%
%LPD*%
G01*
G04 APERTURE LIST*
%ADD10C,0.050000*%
%ADD11C,0.200000*%
%ADD12C,0.100000*%
%ADD13C,0.110000*%
%ADD14C,0.127000*%
%ADD15C,0.130000*%
%ADD16C,0.320000*%
G04 APERTURE END LIST*
D10*
X8213750Y-4052730D02*
X18513750Y-4052730D01*
X18513750Y-13652730D01*
X8213750Y-13652730D01*
X8213750Y-4052730D01*
D11*
D12*
X8974300Y-5177000D02*
X9034300Y-5237000D01*
X9034300Y-5177000D02*
X8974300Y-5237000D01*
X9091140Y-4473420D02*
X9151140Y-4533420D01*
X9151140Y-4473420D02*
X9091140Y-4533420D01*
X10900000Y-8960000D02*
X10960000Y-9020000D01*
X10960000Y-8960000D02*
X10900000Y-9020000D01*
X10970000Y-7470000D02*
X11030000Y-7530000D01*
X11030000Y-7470000D02*
X10970000Y-7530000D01*
X10970000Y-7970000D02*
X11030000Y-8030000D01*
X11030000Y-7970000D02*
X10970000Y-8030000D01*
X11125680Y-4262600D02*
X11185680Y-4322600D01*
X11185680Y-4262600D02*
X11125680Y-4322600D01*
X12614120Y-4435320D02*
X12674120Y-4495320D01*
X12674120Y-4435320D02*
X12614120Y-4495320D01*
X12680000Y-8900000D02*
X12740000Y-8960000D01*
X12740000Y-8900000D02*
X12680000Y-8960000D01*
X12720000Y-11000000D02*
X12780000Y-11060000D01*
X12780000Y-11000000D02*
X12720000Y-11060000D01*
X13063440Y-10616560D02*
X13123440Y-10676560D01*
X13123440Y-10616560D02*
X13063440Y-10676560D01*
X15434640Y-8759820D02*
X15494640Y-8819820D01*
X15494640Y-8759820D02*
X15434640Y-8819820D01*
X15500000Y-9230000D02*
X15560000Y-9290000D01*
X15560000Y-9230000D02*
X15500000Y-9290000D01*
X15505760Y-10946760D02*
X15565760Y-11006760D01*
X15565760Y-10946760D02*
X15505760Y-11006760D01*
X15650540Y-10227940D02*
X15710540Y-10287940D01*
X15710540Y-10227940D02*
X15650540Y-10287940D01*
X15697680Y-8565360D02*
X15757680Y-8625360D01*
X15757680Y-8565360D02*
X15697680Y-8625360D01*
X15700000Y-9130000D02*
X15760000Y-9190000D01*
X15760000Y-9130000D02*
X15700000Y-9190000D01*
X16355540Y-6797520D02*
X16415540Y-6857520D01*
X16415540Y-6797520D02*
X16355540Y-6857520D01*
X16698440Y-6457160D02*
X16758440Y-6517160D01*
X16758440Y-6457160D02*
X16698440Y-6517160D01*
X17564580Y-10904700D02*
X17624580Y-10964700D01*
X17624580Y-10904700D02*
X17564580Y-10964700D01*
X17920180Y-10907240D02*
X17980180Y-10967240D01*
X17980180Y-10907240D02*
X17920180Y-10967240D01*
X9791060Y-7533640D02*
G75*
G02*
X9711060Y-7533640I-40000J0D01*
G01*
X9711060Y-7533640D02*
G75*
G02*
X9791060Y-7533640I40000J0D01*
G01*
X9791060Y-8033640D02*
G75*
G02*
X9711060Y-8033640I-40000J0D01*
G01*
X9711060Y-8033640D02*
G75*
G02*
X9791060Y-8033640I40000J0D01*
G01*
X11320000Y-6970000D02*
G75*
G02*
X11240000Y-6970000I-40000J0D01*
G01*
X11240000Y-6970000D02*
G75*
G02*
X11320000Y-6970000I40000J0D01*
G01*
X11337221Y-7476000D02*
G75*
G02*
X11257221Y-7476000I-40000J0D01*
G01*
X11257221Y-7476000D02*
G75*
G02*
X11337221Y-7476000I40000J0D01*
G01*
X11337221Y-7730000D02*
G75*
G02*
X11257221Y-7730000I-40000J0D01*
G01*
X11257221Y-7730000D02*
G75*
G02*
X11337221Y-7730000I40000J0D01*
G01*
X11337221Y-7984000D02*
G75*
G02*
X11257221Y-7984000I-40000J0D01*
G01*
X11257221Y-7984000D02*
G75*
G02*
X11337221Y-7984000I40000J0D01*
G01*
X11337221Y-8238000D02*
G75*
G02*
X11257221Y-8238000I-40000J0D01*
G01*
X11257221Y-8238000D02*
G75*
G02*
X11337221Y-8238000I40000J0D01*
G01*
X11337221Y-8492000D02*
G75*
G02*
X11257221Y-8492000I-40000J0D01*
G01*
X11257221Y-8492000D02*
G75*
G02*
X11337221Y-8492000I40000J0D01*
G01*
X11337221Y-8746000D02*
G75*
G02*
X11257221Y-8746000I-40000J0D01*
G01*
X11257221Y-8746000D02*
G75*
G02*
X11337221Y-8746000I40000J0D01*
G01*
X11337221Y-9000000D02*
G75*
G02*
X11257221Y-9000000I-40000J0D01*
G01*
X11257221Y-9000000D02*
G75*
G02*
X11337221Y-9000000I40000J0D01*
G01*
X11337221Y-9254000D02*
G75*
G02*
X11257221Y-9254000I-40000J0D01*
G01*
X11257221Y-9254000D02*
G75*
G02*
X11337221Y-9254000I40000J0D01*
G01*
X11820000Y-6970000D02*
G75*
G02*
X11740000Y-6970000I-40000J0D01*
G01*
X11740000Y-6970000D02*
G75*
G02*
X11820000Y-6970000I40000J0D01*
G01*
X12099221Y-7476000D02*
G75*
G02*
X12019221Y-7476000I-40000J0D01*
G01*
X12019221Y-7476000D02*
G75*
G02*
X12099221Y-7476000I40000J0D01*
G01*
X12099221Y-7730000D02*
G75*
G02*
X12019221Y-7730000I-40000J0D01*
G01*
X12019221Y-7730000D02*
G75*
G02*
X12099221Y-7730000I40000J0D01*
G01*
X12099221Y-7984000D02*
G75*
G02*
X12019221Y-7984000I-40000J0D01*
G01*
X12019221Y-7984000D02*
G75*
G02*
X12099221Y-7984000I40000J0D01*
G01*
X12099221Y-8238000D02*
G75*
G02*
X12019221Y-8238000I-40000J0D01*
G01*
X12019221Y-8238000D02*
G75*
G02*
X12099221Y-8238000I40000J0D01*
G01*
X12099221Y-8492000D02*
G75*
G02*
X12019221Y-8492000I-40000J0D01*
G01*
X12019221Y-8492000D02*
G75*
G02*
X12099221Y-8492000I40000J0D01*
G01*
X12099221Y-8746000D02*
G75*
G02*
X12019221Y-8746000I-40000J0D01*
G01*
X12019221Y-8746000D02*
G75*
G02*
X12099221Y-8746000I40000J0D01*
G01*
X12099221Y-9000000D02*
G75*
G02*
X12019221Y-9000000I-40000J0D01*
G01*
X12019221Y-9000000D02*
G75*
G02*
X12099221Y-9000000I40000J0D01*
G01*
X12099221Y-9254000D02*
G75*
G02*
X12019221Y-9254000I-40000J0D01*
G01*
X12019221Y-9254000D02*
G75*
G02*
X12099221Y-9254000I40000J0D01*
G01*
X12120000Y-11200000D02*
G75*
G02*
X12040000Y-11200000I-40000J0D01*
G01*
X12040000Y-11200000D02*
G75*
G02*
X12120000Y-11200000I40000J0D01*
G01*
X12120000Y-11700000D02*
G75*
G02*
X12040000Y-11700000I-40000J0D01*
G01*
X12040000Y-11700000D02*
G75*
G02*
X12120000Y-11700000I40000J0D01*
G01*
X14449420Y-4504880D02*
G75*
G02*
X14369420Y-4504880I-40000J0D01*
G01*
X14369420Y-4504880D02*
G75*
G02*
X14449420Y-4504880I40000J0D01*
G01*
X14449420Y-4754880D02*
G75*
G02*
X14369420Y-4754880I-40000J0D01*
G01*
X14369420Y-4754880D02*
G75*
G02*
X14449420Y-4754880I40000J0D01*
G01*
X14689300Y-6430160D02*
G75*
G02*
X14609300Y-6430160I-40000J0D01*
G01*
X14609300Y-6430160D02*
G75*
G02*
X14689300Y-6430160I40000J0D01*
G01*
X15189300Y-6430160D02*
G75*
G02*
X15109300Y-6430160I-40000J0D01*
G01*
X15109300Y-6430160D02*
G75*
G02*
X15189300Y-6430160I40000J0D01*
G01*
X15323180Y-11599100D02*
G75*
G02*
X15243180Y-11599100I-40000J0D01*
G01*
X15243180Y-11599100D02*
G75*
G02*
X15323180Y-11599100I40000J0D01*
G01*
X15323180Y-12099100D02*
G75*
G02*
X15243180Y-12099100I-40000J0D01*
G01*
X15243180Y-12099100D02*
G75*
G02*
X15323180Y-12099100I40000J0D01*
G01*
X15737580Y-7493000D02*
G75*
G02*
X15657580Y-7493000I-40000J0D01*
G01*
X15657580Y-7493000D02*
G75*
G02*
X15737580Y-7493000I40000J0D01*
G01*
X16040000Y-9222000D02*
G75*
G02*
X15960000Y-9222000I-40000J0D01*
G01*
X15960000Y-9222000D02*
G75*
G02*
X16040000Y-9222000I40000J0D01*
G01*
X16040000Y-9476000D02*
G75*
G02*
X15960000Y-9476000I-40000J0D01*
G01*
X15960000Y-9476000D02*
G75*
G02*
X16040000Y-9476000I40000J0D01*
G01*
X16040000Y-9730000D02*
G75*
G02*
X15960000Y-9730000I-40000J0D01*
G01*
X15960000Y-9730000D02*
G75*
G02*
X16040000Y-9730000I40000J0D01*
G01*
X16040000Y-9984000D02*
G75*
G02*
X15960000Y-9984000I-40000J0D01*
G01*
X15960000Y-9984000D02*
G75*
G02*
X16040000Y-9984000I40000J0D01*
G01*
X16040000Y-10238000D02*
G75*
G02*
X15960000Y-10238000I-40000J0D01*
G01*
X15960000Y-10238000D02*
G75*
G02*
X16040000Y-10238000I40000J0D01*
G01*
X16040000Y-10492000D02*
G75*
G02*
X15960000Y-10492000I-40000J0D01*
G01*
X15960000Y-10492000D02*
G75*
G02*
X16040000Y-10492000I40000J0D01*
G01*
X16040000Y-10746000D02*
G75*
G02*
X15960000Y-10746000I-40000J0D01*
G01*
X15960000Y-10746000D02*
G75*
G02*
X16040000Y-10746000I40000J0D01*
G01*
X16040000Y-11000000D02*
G75*
G02*
X15960000Y-11000000I-40000J0D01*
G01*
X15960000Y-11000000D02*
G75*
G02*
X16040000Y-11000000I40000J0D01*
G01*
X16237580Y-7493000D02*
G75*
G02*
X16157580Y-7493000I-40000J0D01*
G01*
X16157580Y-7493000D02*
G75*
G02*
X16237580Y-7493000I40000J0D01*
G01*
X16802000Y-9222000D02*
G75*
G02*
X16722000Y-9222000I-40000J0D01*
G01*
X16722000Y-9222000D02*
G75*
G02*
X16802000Y-9222000I40000J0D01*
G01*
X16802000Y-9476000D02*
G75*
G02*
X16722000Y-9476000I-40000J0D01*
G01*
X16722000Y-9476000D02*
G75*
G02*
X16802000Y-9476000I40000J0D01*
G01*
X16802000Y-9730000D02*
G75*
G02*
X16722000Y-9730000I-40000J0D01*
G01*
X16722000Y-9730000D02*
G75*
G02*
X16802000Y-9730000I40000J0D01*
G01*
X16802000Y-9984000D02*
G75*
G02*
X16722000Y-9984000I-40000J0D01*
G01*
X16722000Y-9984000D02*
G75*
G02*
X16802000Y-9984000I40000J0D01*
G01*
X16802000Y-10238000D02*
G75*
G02*
X16722000Y-10238000I-40000J0D01*
G01*
X16722000Y-10238000D02*
G75*
G02*
X16802000Y-10238000I40000J0D01*
G01*
X16802000Y-10492000D02*
G75*
G02*
X16722000Y-10492000I-40000J0D01*
G01*
X16722000Y-10492000D02*
G75*
G02*
X16802000Y-10492000I40000J0D01*
G01*
X16802000Y-10746000D02*
G75*
G02*
X16722000Y-10746000I-40000J0D01*
G01*
X16722000Y-10746000D02*
G75*
G02*
X16802000Y-10746000I40000J0D01*
G01*
X16802000Y-11000000D02*
G75*
G02*
X16722000Y-11000000I-40000J0D01*
G01*
X16722000Y-11000000D02*
G75*
G02*
X16802000Y-11000000I40000J0D01*
G01*
X17390740Y-10500000D02*
G75*
G02*
X17310740Y-10500000I-40000J0D01*
G01*
X17310740Y-10500000D02*
G75*
G02*
X17390740Y-10500000I40000J0D01*
G01*
X17390740Y-11000000D02*
G75*
G02*
X17310740Y-11000000I-40000J0D01*
G01*
X17310740Y-11000000D02*
G75*
G02*
X17390740Y-11000000I40000J0D01*
G01*
X8989060Y-5551420D02*
X8989060Y-5646420D01*
X8941560Y-5598920D02*
X9036560Y-5598920D01*
X8989060Y-5801420D02*
X8989060Y-5896420D01*
X8941560Y-5848920D02*
X9036560Y-5848920D01*
X8989060Y-6051420D02*
X8989060Y-6146420D01*
X8941560Y-6098920D02*
X9036560Y-6098920D01*
X8989060Y-6301420D02*
X8989060Y-6396420D01*
X8941560Y-6348920D02*
X9036560Y-6348920D01*
X8989060Y-6551420D02*
X8989060Y-6646420D01*
X8941560Y-6598920D02*
X9036560Y-6598920D01*
X8989060Y-6801420D02*
X8989060Y-6896420D01*
X8941560Y-6848920D02*
X9036560Y-6848920D01*
X9543540Y-4765800D02*
X9543540Y-4860800D01*
X9496040Y-4813300D02*
X9591040Y-4813300D01*
X9793540Y-4765800D02*
X9793540Y-4860800D01*
X9746040Y-4813300D02*
X9841040Y-4813300D01*
X10043540Y-4765800D02*
X10043540Y-4860800D01*
X9996040Y-4813300D02*
X10091040Y-4813300D01*
X10293540Y-4765800D02*
X10293540Y-4860800D01*
X10246040Y-4813300D02*
X10341040Y-4813300D01*
X10527381Y-7685180D02*
X10527381Y-7780180D01*
X10479881Y-7732680D02*
X10574881Y-7732680D01*
X10527381Y-7935180D02*
X10527381Y-8030180D01*
X10479881Y-7982680D02*
X10574881Y-7982680D01*
X10527381Y-8185180D02*
X10527381Y-8280180D01*
X10479881Y-8232680D02*
X10574881Y-8232680D01*
X10527381Y-8435180D02*
X10527381Y-8530180D01*
X10479881Y-8482680D02*
X10574881Y-8482680D01*
X10527381Y-8685180D02*
X10527381Y-8780180D01*
X10479881Y-8732680D02*
X10574881Y-8732680D01*
X10527381Y-8935180D02*
X10527381Y-9030180D01*
X10479881Y-8982680D02*
X10574881Y-8982680D01*
X10543540Y-4765800D02*
X10543540Y-4860800D01*
X10496040Y-4813300D02*
X10591040Y-4813300D01*
X10793540Y-4765800D02*
X10793540Y-4860800D01*
X10746040Y-4813300D02*
X10841040Y-4813300D01*
X11524740Y-4765800D02*
X11524740Y-4860800D01*
X11477240Y-4813300D02*
X11572240Y-4813300D01*
X11774740Y-4765800D02*
X11774740Y-4860800D01*
X11727240Y-4813300D02*
X11822240Y-4813300D01*
X12024740Y-4765800D02*
X12024740Y-4860800D01*
X11977240Y-4813300D02*
X12072240Y-4813300D01*
X12274740Y-4765800D02*
X12274740Y-4860800D01*
X12227240Y-4813300D02*
X12322240Y-4813300D01*
X12524740Y-4765800D02*
X12524740Y-4860800D01*
X12477240Y-4813300D02*
X12572240Y-4813300D01*
X12774740Y-4765800D02*
X12774740Y-4860800D01*
X12727240Y-4813300D02*
X12822240Y-4813300D01*
X13985620Y-12136880D02*
X13985620Y-12231880D01*
X13938120Y-12184380D02*
X14033120Y-12184380D01*
X14235620Y-12136880D02*
X14235620Y-12231880D01*
X14188120Y-12184380D02*
X14283120Y-12184380D01*
X14485620Y-12136880D02*
X14485620Y-12231880D01*
X14438120Y-12184380D02*
X14533120Y-12184380D01*
X15746580Y-11760690D02*
X15746580Y-11855690D01*
X15699080Y-11808190D02*
X15794080Y-11808190D01*
X15894660Y-8010800D02*
X15894660Y-8105800D01*
X15847160Y-8058300D02*
X15942160Y-8058300D01*
X15996580Y-11760690D02*
X15996580Y-11855690D01*
X15949080Y-11808190D02*
X16044080Y-11808190D01*
X16144660Y-8010800D02*
X16144660Y-8105800D01*
X16097160Y-8058300D02*
X16192160Y-8058300D01*
X16246580Y-11760690D02*
X16246580Y-11855690D01*
X16199080Y-11808190D02*
X16294080Y-11808190D01*
X16394660Y-8010800D02*
X16394660Y-8105800D01*
X16347160Y-8058300D02*
X16442160Y-8058300D01*
X16496580Y-11760690D02*
X16496580Y-11855690D01*
X16449080Y-11808190D02*
X16544080Y-11808190D01*
X16644660Y-8010800D02*
X16644660Y-8105800D01*
X16597160Y-8058300D02*
X16692160Y-8058300D01*
X16746580Y-11760690D02*
X16746580Y-11855690D01*
X16699080Y-11808190D02*
X16794080Y-11808190D01*
X16894660Y-8010800D02*
X16894660Y-8105800D01*
X16847160Y-8058300D02*
X16942160Y-8058300D01*
X16996580Y-11760690D02*
X16996580Y-11855690D01*
X16949080Y-11808190D02*
X17044080Y-11808190D01*
X17144660Y-8010800D02*
X17144660Y-8105800D01*
X17097160Y-8058300D02*
X17192160Y-8058300D01*
X13440056Y-6871916D02*
X13440056Y-6801204D01*
X13369344Y-6801204D01*
X13369344Y-6871916D01*
X13440056Y-6871916D01*
X13440056Y-7125916D02*
X13440056Y-7055204D01*
X13369344Y-7055204D01*
X13369344Y-7125916D01*
X13440056Y-7125916D01*
X13440056Y-7379916D02*
X13440056Y-7309204D01*
X13369344Y-7309204D01*
X13369344Y-7379916D01*
X13440056Y-7379916D01*
X13440056Y-7633916D02*
X13440056Y-7563204D01*
X13369344Y-7563204D01*
X13369344Y-7633916D01*
X13440056Y-7633916D01*
X13440056Y-7887916D02*
X13440056Y-7817204D01*
X13369344Y-7817204D01*
X13369344Y-7887916D01*
X13440056Y-7887916D01*
X13440056Y-8141916D02*
X13440056Y-8071204D01*
X13369344Y-8071204D01*
X13369344Y-8141916D01*
X13440056Y-8141916D01*
X13440056Y-8395916D02*
X13440056Y-8325204D01*
X13369344Y-8325204D01*
X13369344Y-8395916D01*
X13440056Y-8395916D01*
X13440056Y-8649916D02*
X13440056Y-8579204D01*
X13369344Y-8579204D01*
X13369344Y-8649916D01*
X13440056Y-8649916D01*
X13440056Y-8903916D02*
X13440056Y-8833204D01*
X13369344Y-8833204D01*
X13369344Y-8903916D01*
X13440056Y-8903916D01*
X13440056Y-9157916D02*
X13440056Y-9087204D01*
X13369344Y-9087204D01*
X13369344Y-9157916D01*
X13440056Y-9157916D01*
X13440056Y-9411916D02*
X13440056Y-9341204D01*
X13369344Y-9341204D01*
X13369344Y-9411916D01*
X13440056Y-9411916D01*
X13440056Y-9665916D02*
X13440056Y-9595204D01*
X13369344Y-9595204D01*
X13369344Y-9665916D01*
X13440056Y-9665916D01*
X13440056Y-9919916D02*
X13440056Y-9849204D01*
X13369344Y-9849204D01*
X13369344Y-9919916D01*
X13440056Y-9919916D01*
X13440056Y-10173916D02*
X13440056Y-10103204D01*
X13369344Y-10103204D01*
X13369344Y-10173916D01*
X13440056Y-10173916D01*
X13440056Y-10427916D02*
X13440056Y-10357204D01*
X13369344Y-10357204D01*
X13369344Y-10427916D01*
X13440056Y-10427916D01*
X13440056Y-10681916D02*
X13440056Y-10611204D01*
X13369344Y-10611204D01*
X13369344Y-10681916D01*
X13440056Y-10681916D01*
X13440056Y-10935916D02*
X13440056Y-10865204D01*
X13369344Y-10865204D01*
X13369344Y-10935916D01*
X13440056Y-10935916D01*
X13440056Y-11189916D02*
X13440056Y-11119204D01*
X13369344Y-11119204D01*
X13369344Y-11189916D01*
X13440056Y-11189916D01*
X13440056Y-11443916D02*
X13440056Y-11373204D01*
X13369344Y-11373204D01*
X13369344Y-11443916D01*
X13440056Y-11443916D01*
X13440056Y-11697916D02*
X13440056Y-11627204D01*
X13369344Y-11627204D01*
X13369344Y-11697916D01*
X13440056Y-11697916D01*
X14964056Y-6871916D02*
X14964056Y-6801204D01*
X14893344Y-6801204D01*
X14893344Y-6871916D01*
X14964056Y-6871916D01*
X14964056Y-7125916D02*
X14964056Y-7055204D01*
X14893344Y-7055204D01*
X14893344Y-7125916D01*
X14964056Y-7125916D01*
X14964056Y-7379916D02*
X14964056Y-7309204D01*
X14893344Y-7309204D01*
X14893344Y-7379916D01*
X14964056Y-7379916D01*
X14964056Y-7633916D02*
X14964056Y-7563204D01*
X14893344Y-7563204D01*
X14893344Y-7633916D01*
X14964056Y-7633916D01*
X14964056Y-7887916D02*
X14964056Y-7817204D01*
X14893344Y-7817204D01*
X14893344Y-7887916D01*
X14964056Y-7887916D01*
X14964056Y-8141916D02*
X14964056Y-8071204D01*
X14893344Y-8071204D01*
X14893344Y-8141916D01*
X14964056Y-8141916D01*
X14964056Y-8395916D02*
X14964056Y-8325204D01*
X14893344Y-8325204D01*
X14893344Y-8395916D01*
X14964056Y-8395916D01*
X14964056Y-8649916D02*
X14964056Y-8579204D01*
X14893344Y-8579204D01*
X14893344Y-8649916D01*
X14964056Y-8649916D01*
X14964056Y-8903916D02*
X14964056Y-8833204D01*
X14893344Y-8833204D01*
X14893344Y-8903916D01*
X14964056Y-8903916D01*
X14964056Y-9157916D02*
X14964056Y-9087204D01*
X14893344Y-9087204D01*
X14893344Y-9157916D01*
X14964056Y-9157916D01*
X14964056Y-9411916D02*
X14964056Y-9341204D01*
X14893344Y-9341204D01*
X14893344Y-9411916D01*
X14964056Y-9411916D01*
X14964056Y-9665916D02*
X14964056Y-9595204D01*
X14893344Y-9595204D01*
X14893344Y-9665916D01*
X14964056Y-9665916D01*
X14964056Y-9919916D02*
X14964056Y-9849204D01*
X14893344Y-9849204D01*
X14893344Y-9919916D01*
X14964056Y-9919916D01*
X14964056Y-10173916D02*
X14964056Y-10103204D01*
X14893344Y-10103204D01*
X14893344Y-10173916D01*
X14964056Y-10173916D01*
X14964056Y-10427916D02*
X14964056Y-10357204D01*
X14893344Y-10357204D01*
X14893344Y-10427916D01*
X14964056Y-10427916D01*
X14964056Y-10681916D02*
X14964056Y-10611204D01*
X14893344Y-10611204D01*
X14893344Y-10681916D01*
X14964056Y-10681916D01*
X14964056Y-10935916D02*
X14964056Y-10865204D01*
X14893344Y-10865204D01*
X14893344Y-10935916D01*
X14964056Y-10935916D01*
X14964056Y-11189916D02*
X14964056Y-11119204D01*
X14893344Y-11119204D01*
X14893344Y-11189916D01*
X14964056Y-11189916D01*
X14964056Y-11443916D02*
X14964056Y-11373204D01*
X14893344Y-11373204D01*
X14893344Y-11443916D01*
X14964056Y-11443916D01*
X14964056Y-11697916D02*
X14964056Y-11627204D01*
X14893344Y-11627204D01*
X14893344Y-11697916D01*
X14964056Y-11697916D01*
D13*
X15681960Y-4454280D02*
X15736960Y-4399280D01*
X15681960Y-4344280D01*
X15626960Y-4399280D01*
X15681960Y-4454280D01*
X15681960Y-4708280D02*
X15736960Y-4653280D01*
X15681960Y-4598280D01*
X15626960Y-4653280D01*
X15681960Y-4708280D01*
X15681960Y-4962280D02*
X15736960Y-4907280D01*
X15681960Y-4852280D01*
X15626960Y-4907280D01*
X15681960Y-4962280D01*
D14*
X12386500Y-9698500D02*
X12513500Y-9825500D01*
X12513500Y-9698500D02*
X12386500Y-9825500D01*
X12513500Y-9762000D02*
G75*
G02*
X12386500Y-9762000I-63500J0D01*
G01*
X12386500Y-9762000D02*
G75*
G02*
X12513500Y-9762000I63500J0D01*
G01*
X12386500Y-9952500D02*
X12513500Y-10079500D01*
X12513500Y-9952500D02*
X12386500Y-10079500D01*
X12513500Y-10016000D02*
G75*
G02*
X12386500Y-10016000I-63500J0D01*
G01*
X12386500Y-10016000D02*
G75*
G02*
X12513500Y-10016000I63500J0D01*
G01*
X12386500Y-10206500D02*
X12513500Y-10333500D01*
X12513500Y-10206500D02*
X12386500Y-10333500D01*
X12513500Y-10270000D02*
G75*
G02*
X12386500Y-10270000I-63500J0D01*
G01*
X12386500Y-10270000D02*
G75*
G02*
X12513500Y-10270000I63500J0D01*
G01*
X12386500Y-10460500D02*
X12513500Y-10587500D01*
X12513500Y-10460500D02*
X12386500Y-10587500D01*
X12513500Y-10524000D02*
G75*
G02*
X12386500Y-10524000I-63500J0D01*
G01*
X12386500Y-10524000D02*
G75*
G02*
X12513500Y-10524000I63500J0D01*
G01*
X12386500Y-10714500D02*
X12513500Y-10841500D01*
X12513500Y-10714500D02*
X12386500Y-10841500D01*
X12513500Y-10778000D02*
G75*
G02*
X12386500Y-10778000I-63500J0D01*
G01*
X12386500Y-10778000D02*
G75*
G02*
X12513500Y-10778000I63500J0D01*
G01*
X12386500Y-10968500D02*
X12513500Y-11095500D01*
X12513500Y-10968500D02*
X12386500Y-11095500D01*
X12513500Y-11032000D02*
G75*
G02*
X12386500Y-11032000I-63500J0D01*
G01*
X12386500Y-11032000D02*
G75*
G02*
X12513500Y-11032000I63500J0D01*
G01*
X12386500Y-11222500D02*
X12513500Y-11349500D01*
X12513500Y-11222500D02*
X12386500Y-11349500D01*
X12513500Y-11286000D02*
G75*
G02*
X12386500Y-11286000I-63500J0D01*
G01*
X12386500Y-11286000D02*
G75*
G02*
X12513500Y-11286000I63500J0D01*
G01*
X12386500Y-11476500D02*
X12513500Y-11603500D01*
X12513500Y-11476500D02*
X12386500Y-11603500D01*
X12513500Y-11540000D02*
G75*
G02*
X12386500Y-11540000I-63500J0D01*
G01*
X12386500Y-11540000D02*
G75*
G02*
X12513500Y-11540000I63500J0D01*
G01*
D15*
X17184850Y-4436940D02*
X17314850Y-4566940D01*
X17314850Y-4436940D02*
X17184850Y-4566940D01*
X17249850Y-4436940D02*
X17249850Y-4566940D01*
X17184850Y-4501940D02*
X17314850Y-4501940D01*
X17184850Y-4936940D02*
X17314850Y-5066940D01*
X17314850Y-4936940D02*
X17184850Y-5066940D01*
X17249850Y-4936940D02*
X17249850Y-5066940D01*
X17184850Y-5001940D02*
X17314850Y-5001940D01*
D16*
X8453750Y-4292730D02*
X8773750Y-4612730D01*
X8773750Y-4292730D02*
X8453750Y-4612730D01*
X8726888Y-4565868D02*
X8726888Y-4339592D01*
X8500612Y-4339592D01*
X8500612Y-4565868D01*
X8726888Y-4565868D01*
X8453750Y-13092730D02*
X8773750Y-13412730D01*
X8773750Y-13092730D02*
X8453750Y-13412730D01*
X8726888Y-13365868D02*
X8726888Y-13139592D01*
X8500612Y-13139592D01*
X8500612Y-13365868D01*
X8726888Y-13365868D01*
X17953750Y-4292730D02*
X18273750Y-4612730D01*
X18273750Y-4292730D02*
X17953750Y-4612730D01*
X18226888Y-4565868D02*
X18226888Y-4339592D01*
X18000612Y-4339592D01*
X18000612Y-4565868D01*
X18226888Y-4565868D01*
X17953750Y-13092730D02*
X18273750Y-13412730D01*
X18273750Y-13092730D02*
X17953750Y-13412730D01*
X18226888Y-13365868D02*
X18226888Y-13139592D01*
X18000612Y-13139592D01*
X18000612Y-13365868D01*
X18226888Y-13365868D01*
D11*
X8472027Y-13966714D02*
X8472027Y-13766714D01*
X8472027Y-13766714D02*
X8519646Y-13766714D01*
X8519646Y-13766714D02*
X8548217Y-13776238D01*
X8548217Y-13776238D02*
X8567265Y-13795285D01*
X8567265Y-13795285D02*
X8576789Y-13814333D01*
X8576789Y-13814333D02*
X8586313Y-13852428D01*
X8586313Y-13852428D02*
X8586313Y-13880999D01*
X8586313Y-13880999D02*
X8576789Y-13919095D01*
X8576789Y-13919095D02*
X8567265Y-13938142D01*
X8567265Y-13938142D02*
X8548217Y-13957190D01*
X8548217Y-13957190D02*
X8519646Y-13966714D01*
X8519646Y-13966714D02*
X8472027Y-13966714D01*
X8672027Y-13966714D02*
X8672027Y-13833380D01*
X8672027Y-13871476D02*
X8681551Y-13852428D01*
X8681551Y-13852428D02*
X8691074Y-13842904D01*
X8691074Y-13842904D02*
X8710122Y-13833380D01*
X8710122Y-13833380D02*
X8729170Y-13833380D01*
X8795836Y-13966714D02*
X8795836Y-13833380D01*
X8795836Y-13766714D02*
X8786313Y-13776238D01*
X8786313Y-13776238D02*
X8795836Y-13785761D01*
X8795836Y-13785761D02*
X8805360Y-13776238D01*
X8805360Y-13776238D02*
X8795836Y-13766714D01*
X8795836Y-13766714D02*
X8795836Y-13785761D01*
X8919646Y-13966714D02*
X8900598Y-13957190D01*
X8900598Y-13957190D02*
X8891074Y-13938142D01*
X8891074Y-13938142D02*
X8891074Y-13766714D01*
X9024408Y-13966714D02*
X9005360Y-13957190D01*
X9005360Y-13957190D02*
X8995836Y-13938142D01*
X8995836Y-13938142D02*
X8995836Y-13766714D01*
X9252979Y-13966714D02*
X9252979Y-13766714D01*
X9252979Y-13766714D02*
X9319646Y-13909571D01*
X9319646Y-13909571D02*
X9386313Y-13766714D01*
X9386313Y-13766714D02*
X9386313Y-13966714D01*
X9567265Y-13966714D02*
X9567265Y-13861952D01*
X9567265Y-13861952D02*
X9557741Y-13842904D01*
X9557741Y-13842904D02*
X9538694Y-13833380D01*
X9538694Y-13833380D02*
X9500598Y-13833380D01*
X9500598Y-13833380D02*
X9481551Y-13842904D01*
X9567265Y-13957190D02*
X9548217Y-13966714D01*
X9548217Y-13966714D02*
X9500598Y-13966714D01*
X9500598Y-13966714D02*
X9481551Y-13957190D01*
X9481551Y-13957190D02*
X9472027Y-13938142D01*
X9472027Y-13938142D02*
X9472027Y-13919095D01*
X9472027Y-13919095D02*
X9481551Y-13900047D01*
X9481551Y-13900047D02*
X9500598Y-13890523D01*
X9500598Y-13890523D02*
X9548217Y-13890523D01*
X9548217Y-13890523D02*
X9567265Y-13880999D01*
X9662503Y-13833380D02*
X9662503Y-14033380D01*
X9662503Y-13842904D02*
X9681551Y-13833380D01*
X9681551Y-13833380D02*
X9719646Y-13833380D01*
X9719646Y-13833380D02*
X9738694Y-13842904D01*
X9738694Y-13842904D02*
X9748217Y-13852428D01*
X9748217Y-13852428D02*
X9757741Y-13871476D01*
X9757741Y-13871476D02*
X9757741Y-13928618D01*
X9757741Y-13928618D02*
X9748217Y-13947666D01*
X9748217Y-13947666D02*
X9738694Y-13957190D01*
X9738694Y-13957190D02*
X9719646Y-13966714D01*
X9719646Y-13966714D02*
X9681551Y-13966714D01*
X9681551Y-13966714D02*
X9662503Y-13957190D01*
X9843455Y-13947666D02*
X9852979Y-13957190D01*
X9852979Y-13957190D02*
X9843455Y-13966714D01*
X9843455Y-13966714D02*
X9833932Y-13957190D01*
X9833932Y-13957190D02*
X9843455Y-13947666D01*
X9843455Y-13947666D02*
X9843455Y-13966714D01*
X9843455Y-13842904D02*
X9852979Y-13852428D01*
X9852979Y-13852428D02*
X9843455Y-13861952D01*
X9843455Y-13861952D02*
X9833932Y-13852428D01*
X9833932Y-13852428D02*
X9843455Y-13842904D01*
X9843455Y-13842904D02*
X9843455Y-13861952D01*
D12*
X8151250Y-14265230D02*
X8211250Y-14325230D01*
X8211250Y-14265230D02*
X8151250Y-14325230D01*
D11*
X8510122Y-14186714D02*
X8529170Y-14186714D01*
X8529170Y-14186714D02*
X8548217Y-14196238D01*
X8548217Y-14196238D02*
X8557741Y-14205761D01*
X8557741Y-14205761D02*
X8567265Y-14224809D01*
X8567265Y-14224809D02*
X8576789Y-14262904D01*
X8576789Y-14262904D02*
X8576789Y-14310523D01*
X8576789Y-14310523D02*
X8567265Y-14348618D01*
X8567265Y-14348618D02*
X8557741Y-14367666D01*
X8557741Y-14367666D02*
X8548217Y-14377190D01*
X8548217Y-14377190D02*
X8529170Y-14386714D01*
X8529170Y-14386714D02*
X8510122Y-14386714D01*
X8510122Y-14386714D02*
X8491074Y-14377190D01*
X8491074Y-14377190D02*
X8481551Y-14367666D01*
X8481551Y-14367666D02*
X8472027Y-14348618D01*
X8472027Y-14348618D02*
X8462503Y-14310523D01*
X8462503Y-14310523D02*
X8462503Y-14262904D01*
X8462503Y-14262904D02*
X8472027Y-14224809D01*
X8472027Y-14224809D02*
X8481551Y-14205761D01*
X8481551Y-14205761D02*
X8491074Y-14196238D01*
X8491074Y-14196238D02*
X8510122Y-14186714D01*
X8662503Y-14367666D02*
X8672027Y-14377190D01*
X8672027Y-14377190D02*
X8662503Y-14386714D01*
X8662503Y-14386714D02*
X8652979Y-14377190D01*
X8652979Y-14377190D02*
X8662503Y-14367666D01*
X8662503Y-14367666D02*
X8662503Y-14386714D01*
X8843455Y-14186714D02*
X8805360Y-14186714D01*
X8805360Y-14186714D02*
X8786313Y-14196238D01*
X8786313Y-14196238D02*
X8776789Y-14205761D01*
X8776789Y-14205761D02*
X8757741Y-14234333D01*
X8757741Y-14234333D02*
X8748217Y-14272428D01*
X8748217Y-14272428D02*
X8748217Y-14348618D01*
X8748217Y-14348618D02*
X8757741Y-14367666D01*
X8757741Y-14367666D02*
X8767265Y-14377190D01*
X8767265Y-14377190D02*
X8786313Y-14386714D01*
X8786313Y-14386714D02*
X8824408Y-14386714D01*
X8824408Y-14386714D02*
X8843455Y-14377190D01*
X8843455Y-14377190D02*
X8852979Y-14367666D01*
X8852979Y-14367666D02*
X8862503Y-14348618D01*
X8862503Y-14348618D02*
X8862503Y-14300999D01*
X8862503Y-14300999D02*
X8852979Y-14281952D01*
X8852979Y-14281952D02*
X8843455Y-14272428D01*
X8843455Y-14272428D02*
X8824408Y-14262904D01*
X8824408Y-14262904D02*
X8786313Y-14262904D01*
X8786313Y-14262904D02*
X8767265Y-14272428D01*
X8767265Y-14272428D02*
X8757741Y-14281952D01*
X8757741Y-14281952D02*
X8748217Y-14300999D01*
X8986313Y-14186714D02*
X9005360Y-14186714D01*
X9005360Y-14186714D02*
X9024408Y-14196238D01*
X9024408Y-14196238D02*
X9033932Y-14205761D01*
X9033932Y-14205761D02*
X9043455Y-14224809D01*
X9043455Y-14224809D02*
X9052979Y-14262904D01*
X9052979Y-14262904D02*
X9052979Y-14310523D01*
X9052979Y-14310523D02*
X9043455Y-14348618D01*
X9043455Y-14348618D02*
X9033932Y-14367666D01*
X9033932Y-14367666D02*
X9024408Y-14377190D01*
X9024408Y-14377190D02*
X9005360Y-14386714D01*
X9005360Y-14386714D02*
X8986313Y-14386714D01*
X8986313Y-14386714D02*
X8967265Y-14377190D01*
X8967265Y-14377190D02*
X8957741Y-14367666D01*
X8957741Y-14367666D02*
X8948217Y-14348618D01*
X8948217Y-14348618D02*
X8938694Y-14310523D01*
X8938694Y-14310523D02*
X8938694Y-14262904D01*
X8938694Y-14262904D02*
X8948217Y-14224809D01*
X8948217Y-14224809D02*
X8957741Y-14205761D01*
X8957741Y-14205761D02*
X8967265Y-14196238D01*
X8967265Y-14196238D02*
X8986313Y-14186714D01*
X9176789Y-14186714D02*
X9195836Y-14186714D01*
X9195836Y-14186714D02*
X9214884Y-14196238D01*
X9214884Y-14196238D02*
X9224408Y-14205761D01*
X9224408Y-14205761D02*
X9233932Y-14224809D01*
X9233932Y-14224809D02*
X9243455Y-14262904D01*
X9243455Y-14262904D02*
X9243455Y-14310523D01*
X9243455Y-14310523D02*
X9233932Y-14348618D01*
X9233932Y-14348618D02*
X9224408Y-14367666D01*
X9224408Y-14367666D02*
X9214884Y-14377190D01*
X9214884Y-14377190D02*
X9195836Y-14386714D01*
X9195836Y-14386714D02*
X9176789Y-14386714D01*
X9176789Y-14386714D02*
X9157741Y-14377190D01*
X9157741Y-14377190D02*
X9148217Y-14367666D01*
X9148217Y-14367666D02*
X9138694Y-14348618D01*
X9138694Y-14348618D02*
X9129170Y-14310523D01*
X9129170Y-14310523D02*
X9129170Y-14262904D01*
X9129170Y-14262904D02*
X9138694Y-14224809D01*
X9138694Y-14224809D02*
X9148217Y-14205761D01*
X9148217Y-14205761D02*
X9157741Y-14196238D01*
X9157741Y-14196238D02*
X9176789Y-14186714D01*
X9329170Y-14386714D02*
X9329170Y-14253380D01*
X9329170Y-14272428D02*
X9338694Y-14262904D01*
X9338694Y-14262904D02*
X9357741Y-14253380D01*
X9357741Y-14253380D02*
X9386313Y-14253380D01*
X9386313Y-14253380D02*
X9405360Y-14262904D01*
X9405360Y-14262904D02*
X9414884Y-14281952D01*
X9414884Y-14281952D02*
X9414884Y-14386714D01*
X9414884Y-14281952D02*
X9424408Y-14262904D01*
X9424408Y-14262904D02*
X9443455Y-14253380D01*
X9443455Y-14253380D02*
X9472027Y-14253380D01*
X9472027Y-14253380D02*
X9491075Y-14262904D01*
X9491075Y-14262904D02*
X9500598Y-14281952D01*
X9500598Y-14281952D02*
X9500598Y-14386714D01*
X9595836Y-14386714D02*
X9595836Y-14253380D01*
X9595836Y-14272428D02*
X9605360Y-14262904D01*
X9605360Y-14262904D02*
X9624408Y-14253380D01*
X9624408Y-14253380D02*
X9652979Y-14253380D01*
X9652979Y-14253380D02*
X9672027Y-14262904D01*
X9672027Y-14262904D02*
X9681551Y-14281952D01*
X9681551Y-14281952D02*
X9681551Y-14386714D01*
X9681551Y-14281952D02*
X9691075Y-14262904D01*
X9691075Y-14262904D02*
X9710122Y-14253380D01*
X9710122Y-14253380D02*
X9738694Y-14253380D01*
X9738694Y-14253380D02*
X9757741Y-14262904D01*
X9757741Y-14262904D02*
X9767265Y-14281952D01*
X9767265Y-14281952D02*
X9767265Y-14386714D01*
X10157741Y-14177190D02*
X9986313Y-14434333D01*
X10414884Y-14186714D02*
X10433932Y-14186714D01*
X10433932Y-14186714D02*
X10452979Y-14196238D01*
X10452979Y-14196238D02*
X10462503Y-14205761D01*
X10462503Y-14205761D02*
X10472027Y-14224809D01*
X10472027Y-14224809D02*
X10481551Y-14262904D01*
X10481551Y-14262904D02*
X10481551Y-14310523D01*
X10481551Y-14310523D02*
X10472027Y-14348618D01*
X10472027Y-14348618D02*
X10462503Y-14367666D01*
X10462503Y-14367666D02*
X10452979Y-14377190D01*
X10452979Y-14377190D02*
X10433932Y-14386714D01*
X10433932Y-14386714D02*
X10414884Y-14386714D01*
X10414884Y-14386714D02*
X10395837Y-14377190D01*
X10395837Y-14377190D02*
X10386313Y-14367666D01*
X10386313Y-14367666D02*
X10376789Y-14348618D01*
X10376789Y-14348618D02*
X10367265Y-14310523D01*
X10367265Y-14310523D02*
X10367265Y-14262904D01*
X10367265Y-14262904D02*
X10376789Y-14224809D01*
X10376789Y-14224809D02*
X10386313Y-14205761D01*
X10386313Y-14205761D02*
X10395837Y-14196238D01*
X10395837Y-14196238D02*
X10414884Y-14186714D01*
X10567265Y-14367666D02*
X10576789Y-14377190D01*
X10576789Y-14377190D02*
X10567265Y-14386714D01*
X10567265Y-14386714D02*
X10557741Y-14377190D01*
X10557741Y-14377190D02*
X10567265Y-14367666D01*
X10567265Y-14367666D02*
X10567265Y-14386714D01*
X10700598Y-14186714D02*
X10719646Y-14186714D01*
X10719646Y-14186714D02*
X10738694Y-14196238D01*
X10738694Y-14196238D02*
X10748218Y-14205761D01*
X10748218Y-14205761D02*
X10757741Y-14224809D01*
X10757741Y-14224809D02*
X10767265Y-14262904D01*
X10767265Y-14262904D02*
X10767265Y-14310523D01*
X10767265Y-14310523D02*
X10757741Y-14348618D01*
X10757741Y-14348618D02*
X10748218Y-14367666D01*
X10748218Y-14367666D02*
X10738694Y-14377190D01*
X10738694Y-14377190D02*
X10719646Y-14386714D01*
X10719646Y-14386714D02*
X10700598Y-14386714D01*
X10700598Y-14386714D02*
X10681551Y-14377190D01*
X10681551Y-14377190D02*
X10672027Y-14367666D01*
X10672027Y-14367666D02*
X10662503Y-14348618D01*
X10662503Y-14348618D02*
X10652979Y-14310523D01*
X10652979Y-14310523D02*
X10652979Y-14262904D01*
X10652979Y-14262904D02*
X10662503Y-14224809D01*
X10662503Y-14224809D02*
X10672027Y-14205761D01*
X10672027Y-14205761D02*
X10681551Y-14196238D01*
X10681551Y-14196238D02*
X10700598Y-14186714D01*
X10843456Y-14205761D02*
X10852979Y-14196238D01*
X10852979Y-14196238D02*
X10872027Y-14186714D01*
X10872027Y-14186714D02*
X10919646Y-14186714D01*
X10919646Y-14186714D02*
X10938694Y-14196238D01*
X10938694Y-14196238D02*
X10948218Y-14205761D01*
X10948218Y-14205761D02*
X10957741Y-14224809D01*
X10957741Y-14224809D02*
X10957741Y-14243857D01*
X10957741Y-14243857D02*
X10948218Y-14272428D01*
X10948218Y-14272428D02*
X10833932Y-14386714D01*
X10833932Y-14386714D02*
X10957741Y-14386714D01*
X11024408Y-14186714D02*
X11148218Y-14186714D01*
X11148218Y-14186714D02*
X11081551Y-14262904D01*
X11081551Y-14262904D02*
X11110122Y-14262904D01*
X11110122Y-14262904D02*
X11129170Y-14272428D01*
X11129170Y-14272428D02*
X11138694Y-14281952D01*
X11138694Y-14281952D02*
X11148218Y-14300999D01*
X11148218Y-14300999D02*
X11148218Y-14348618D01*
X11148218Y-14348618D02*
X11138694Y-14367666D01*
X11138694Y-14367666D02*
X11129170Y-14377190D01*
X11129170Y-14377190D02*
X11110122Y-14386714D01*
X11110122Y-14386714D02*
X11052979Y-14386714D01*
X11052979Y-14386714D02*
X11033932Y-14377190D01*
X11033932Y-14377190D02*
X11024408Y-14367666D01*
X11319646Y-14186714D02*
X11281551Y-14186714D01*
X11281551Y-14186714D02*
X11262503Y-14196238D01*
X11262503Y-14196238D02*
X11252979Y-14205761D01*
X11252979Y-14205761D02*
X11233932Y-14234333D01*
X11233932Y-14234333D02*
X11224408Y-14272428D01*
X11224408Y-14272428D02*
X11224408Y-14348618D01*
X11224408Y-14348618D02*
X11233932Y-14367666D01*
X11233932Y-14367666D02*
X11243456Y-14377190D01*
X11243456Y-14377190D02*
X11262503Y-14386714D01*
X11262503Y-14386714D02*
X11300598Y-14386714D01*
X11300598Y-14386714D02*
X11319646Y-14377190D01*
X11319646Y-14377190D02*
X11329170Y-14367666D01*
X11329170Y-14367666D02*
X11338694Y-14348618D01*
X11338694Y-14348618D02*
X11338694Y-14300999D01*
X11338694Y-14300999D02*
X11329170Y-14281952D01*
X11329170Y-14281952D02*
X11319646Y-14272428D01*
X11319646Y-14272428D02*
X11300598Y-14262904D01*
X11300598Y-14262904D02*
X11262503Y-14262904D01*
X11262503Y-14262904D02*
X11243456Y-14272428D01*
X11243456Y-14272428D02*
X11233932Y-14281952D01*
X11233932Y-14281952D02*
X11224408Y-14300999D01*
X11414884Y-14186714D02*
X11414884Y-14224809D01*
X11491075Y-14186714D02*
X11491075Y-14224809D01*
X11786313Y-14462904D02*
X11776789Y-14453380D01*
X11776789Y-14453380D02*
X11757741Y-14424809D01*
X11757741Y-14424809D02*
X11748218Y-14405761D01*
X11748218Y-14405761D02*
X11738694Y-14377190D01*
X11738694Y-14377190D02*
X11729170Y-14329571D01*
X11729170Y-14329571D02*
X11729170Y-14291476D01*
X11729170Y-14291476D02*
X11738694Y-14243857D01*
X11738694Y-14243857D02*
X11748218Y-14215285D01*
X11748218Y-14215285D02*
X11757741Y-14196238D01*
X11757741Y-14196238D02*
X11776789Y-14167666D01*
X11776789Y-14167666D02*
X11786313Y-14158142D01*
X11852979Y-14205761D02*
X11862503Y-14196238D01*
X11862503Y-14196238D02*
X11881551Y-14186714D01*
X11881551Y-14186714D02*
X11929170Y-14186714D01*
X11929170Y-14186714D02*
X11948218Y-14196238D01*
X11948218Y-14196238D02*
X11957741Y-14205761D01*
X11957741Y-14205761D02*
X11967265Y-14224809D01*
X11967265Y-14224809D02*
X11967265Y-14243857D01*
X11967265Y-14243857D02*
X11957741Y-14272428D01*
X11957741Y-14272428D02*
X11843456Y-14386714D01*
X11843456Y-14386714D02*
X11967265Y-14386714D01*
X12091075Y-14186714D02*
X12110122Y-14186714D01*
X12110122Y-14186714D02*
X12129170Y-14196238D01*
X12129170Y-14196238D02*
X12138694Y-14205761D01*
X12138694Y-14205761D02*
X12148218Y-14224809D01*
X12148218Y-14224809D02*
X12157741Y-14262904D01*
X12157741Y-14262904D02*
X12157741Y-14310523D01*
X12157741Y-14310523D02*
X12148218Y-14348618D01*
X12148218Y-14348618D02*
X12138694Y-14367666D01*
X12138694Y-14367666D02*
X12129170Y-14377190D01*
X12129170Y-14377190D02*
X12110122Y-14386714D01*
X12110122Y-14386714D02*
X12091075Y-14386714D01*
X12091075Y-14386714D02*
X12072027Y-14377190D01*
X12072027Y-14377190D02*
X12062503Y-14367666D01*
X12062503Y-14367666D02*
X12052979Y-14348618D01*
X12052979Y-14348618D02*
X12043456Y-14310523D01*
X12043456Y-14310523D02*
X12043456Y-14262904D01*
X12043456Y-14262904D02*
X12052979Y-14224809D01*
X12052979Y-14224809D02*
X12062503Y-14205761D01*
X12062503Y-14205761D02*
X12072027Y-14196238D01*
X12072027Y-14196238D02*
X12091075Y-14186714D01*
X12395837Y-14386714D02*
X12395837Y-14186714D01*
X12481551Y-14386714D02*
X12481551Y-14281952D01*
X12481551Y-14281952D02*
X12472027Y-14262904D01*
X12472027Y-14262904D02*
X12452980Y-14253380D01*
X12452980Y-14253380D02*
X12424408Y-14253380D01*
X12424408Y-14253380D02*
X12405360Y-14262904D01*
X12405360Y-14262904D02*
X12395837Y-14272428D01*
X12605360Y-14386714D02*
X12586313Y-14377190D01*
X12586313Y-14377190D02*
X12576789Y-14367666D01*
X12576789Y-14367666D02*
X12567265Y-14348618D01*
X12567265Y-14348618D02*
X12567265Y-14291476D01*
X12567265Y-14291476D02*
X12576789Y-14272428D01*
X12576789Y-14272428D02*
X12586313Y-14262904D01*
X12586313Y-14262904D02*
X12605360Y-14253380D01*
X12605360Y-14253380D02*
X12633932Y-14253380D01*
X12633932Y-14253380D02*
X12652980Y-14262904D01*
X12652980Y-14262904D02*
X12662503Y-14272428D01*
X12662503Y-14272428D02*
X12672027Y-14291476D01*
X12672027Y-14291476D02*
X12672027Y-14348618D01*
X12672027Y-14348618D02*
X12662503Y-14367666D01*
X12662503Y-14367666D02*
X12652980Y-14377190D01*
X12652980Y-14377190D02*
X12633932Y-14386714D01*
X12633932Y-14386714D02*
X12605360Y-14386714D01*
X12786313Y-14386714D02*
X12767265Y-14377190D01*
X12767265Y-14377190D02*
X12757741Y-14358142D01*
X12757741Y-14358142D02*
X12757741Y-14186714D01*
X12938694Y-14377190D02*
X12919646Y-14386714D01*
X12919646Y-14386714D02*
X12881551Y-14386714D01*
X12881551Y-14386714D02*
X12862503Y-14377190D01*
X12862503Y-14377190D02*
X12852980Y-14358142D01*
X12852980Y-14358142D02*
X12852980Y-14281952D01*
X12852980Y-14281952D02*
X12862503Y-14262904D01*
X12862503Y-14262904D02*
X12881551Y-14253380D01*
X12881551Y-14253380D02*
X12919646Y-14253380D01*
X12919646Y-14253380D02*
X12938694Y-14262904D01*
X12938694Y-14262904D02*
X12948218Y-14281952D01*
X12948218Y-14281952D02*
X12948218Y-14300999D01*
X12948218Y-14300999D02*
X12852980Y-14320047D01*
X13024408Y-14377190D02*
X13043456Y-14386714D01*
X13043456Y-14386714D02*
X13081551Y-14386714D01*
X13081551Y-14386714D02*
X13100599Y-14377190D01*
X13100599Y-14377190D02*
X13110122Y-14358142D01*
X13110122Y-14358142D02*
X13110122Y-14348618D01*
X13110122Y-14348618D02*
X13100599Y-14329571D01*
X13100599Y-14329571D02*
X13081551Y-14320047D01*
X13081551Y-14320047D02*
X13052980Y-14320047D01*
X13052980Y-14320047D02*
X13033932Y-14310523D01*
X13033932Y-14310523D02*
X13024408Y-14291476D01*
X13024408Y-14291476D02*
X13024408Y-14281952D01*
X13024408Y-14281952D02*
X13033932Y-14262904D01*
X13033932Y-14262904D02*
X13052980Y-14253380D01*
X13052980Y-14253380D02*
X13081551Y-14253380D01*
X13081551Y-14253380D02*
X13100599Y-14262904D01*
X13176789Y-14462904D02*
X13186313Y-14453380D01*
X13186313Y-14453380D02*
X13205361Y-14424809D01*
X13205361Y-14424809D02*
X13214884Y-14405761D01*
X13214884Y-14405761D02*
X13224408Y-14377190D01*
X13224408Y-14377190D02*
X13233932Y-14329571D01*
X13233932Y-14329571D02*
X13233932Y-14291476D01*
X13233932Y-14291476D02*
X13224408Y-14243857D01*
X13224408Y-14243857D02*
X13214884Y-14215285D01*
X13214884Y-14215285D02*
X13205361Y-14196238D01*
X13205361Y-14196238D02*
X13186313Y-14167666D01*
X13186313Y-14167666D02*
X13176789Y-14158142D01*
D12*
X8211250Y-14559230D02*
G75*
G02*
X8131250Y-14559230I-40000J0D01*
G01*
X8131250Y-14559230D02*
G75*
G02*
X8211250Y-14559230I40000J0D01*
G01*
D11*
X8510122Y-14450714D02*
X8529170Y-14450714D01*
X8529170Y-14450714D02*
X8548217Y-14460238D01*
X8548217Y-14460238D02*
X8557741Y-14469761D01*
X8557741Y-14469761D02*
X8567265Y-14488809D01*
X8567265Y-14488809D02*
X8576789Y-14526904D01*
X8576789Y-14526904D02*
X8576789Y-14574523D01*
X8576789Y-14574523D02*
X8567265Y-14612618D01*
X8567265Y-14612618D02*
X8557741Y-14631666D01*
X8557741Y-14631666D02*
X8548217Y-14641190D01*
X8548217Y-14641190D02*
X8529170Y-14650714D01*
X8529170Y-14650714D02*
X8510122Y-14650714D01*
X8510122Y-14650714D02*
X8491074Y-14641190D01*
X8491074Y-14641190D02*
X8481551Y-14631666D01*
X8481551Y-14631666D02*
X8472027Y-14612618D01*
X8472027Y-14612618D02*
X8462503Y-14574523D01*
X8462503Y-14574523D02*
X8462503Y-14526904D01*
X8462503Y-14526904D02*
X8472027Y-14488809D01*
X8472027Y-14488809D02*
X8481551Y-14469761D01*
X8481551Y-14469761D02*
X8491074Y-14460238D01*
X8491074Y-14460238D02*
X8510122Y-14450714D01*
X8662503Y-14631666D02*
X8672027Y-14641190D01*
X8672027Y-14641190D02*
X8662503Y-14650714D01*
X8662503Y-14650714D02*
X8652979Y-14641190D01*
X8652979Y-14641190D02*
X8662503Y-14631666D01*
X8662503Y-14631666D02*
X8662503Y-14650714D01*
X8786313Y-14536428D02*
X8767265Y-14526904D01*
X8767265Y-14526904D02*
X8757741Y-14517380D01*
X8757741Y-14517380D02*
X8748217Y-14498333D01*
X8748217Y-14498333D02*
X8748217Y-14488809D01*
X8748217Y-14488809D02*
X8757741Y-14469761D01*
X8757741Y-14469761D02*
X8767265Y-14460238D01*
X8767265Y-14460238D02*
X8786313Y-14450714D01*
X8786313Y-14450714D02*
X8824408Y-14450714D01*
X8824408Y-14450714D02*
X8843455Y-14460238D01*
X8843455Y-14460238D02*
X8852979Y-14469761D01*
X8852979Y-14469761D02*
X8862503Y-14488809D01*
X8862503Y-14488809D02*
X8862503Y-14498333D01*
X8862503Y-14498333D02*
X8852979Y-14517380D01*
X8852979Y-14517380D02*
X8843455Y-14526904D01*
X8843455Y-14526904D02*
X8824408Y-14536428D01*
X8824408Y-14536428D02*
X8786313Y-14536428D01*
X8786313Y-14536428D02*
X8767265Y-14545952D01*
X8767265Y-14545952D02*
X8757741Y-14555476D01*
X8757741Y-14555476D02*
X8748217Y-14574523D01*
X8748217Y-14574523D02*
X8748217Y-14612618D01*
X8748217Y-14612618D02*
X8757741Y-14631666D01*
X8757741Y-14631666D02*
X8767265Y-14641190D01*
X8767265Y-14641190D02*
X8786313Y-14650714D01*
X8786313Y-14650714D02*
X8824408Y-14650714D01*
X8824408Y-14650714D02*
X8843455Y-14641190D01*
X8843455Y-14641190D02*
X8852979Y-14631666D01*
X8852979Y-14631666D02*
X8862503Y-14612618D01*
X8862503Y-14612618D02*
X8862503Y-14574523D01*
X8862503Y-14574523D02*
X8852979Y-14555476D01*
X8852979Y-14555476D02*
X8843455Y-14545952D01*
X8843455Y-14545952D02*
X8824408Y-14536428D01*
X8986313Y-14450714D02*
X9005360Y-14450714D01*
X9005360Y-14450714D02*
X9024408Y-14460238D01*
X9024408Y-14460238D02*
X9033932Y-14469761D01*
X9033932Y-14469761D02*
X9043455Y-14488809D01*
X9043455Y-14488809D02*
X9052979Y-14526904D01*
X9052979Y-14526904D02*
X9052979Y-14574523D01*
X9052979Y-14574523D02*
X9043455Y-14612618D01*
X9043455Y-14612618D02*
X9033932Y-14631666D01*
X9033932Y-14631666D02*
X9024408Y-14641190D01*
X9024408Y-14641190D02*
X9005360Y-14650714D01*
X9005360Y-14650714D02*
X8986313Y-14650714D01*
X8986313Y-14650714D02*
X8967265Y-14641190D01*
X8967265Y-14641190D02*
X8957741Y-14631666D01*
X8957741Y-14631666D02*
X8948217Y-14612618D01*
X8948217Y-14612618D02*
X8938694Y-14574523D01*
X8938694Y-14574523D02*
X8938694Y-14526904D01*
X8938694Y-14526904D02*
X8948217Y-14488809D01*
X8948217Y-14488809D02*
X8957741Y-14469761D01*
X8957741Y-14469761D02*
X8967265Y-14460238D01*
X8967265Y-14460238D02*
X8986313Y-14450714D01*
X9176789Y-14450714D02*
X9195836Y-14450714D01*
X9195836Y-14450714D02*
X9214884Y-14460238D01*
X9214884Y-14460238D02*
X9224408Y-14469761D01*
X9224408Y-14469761D02*
X9233932Y-14488809D01*
X9233932Y-14488809D02*
X9243455Y-14526904D01*
X9243455Y-14526904D02*
X9243455Y-14574523D01*
X9243455Y-14574523D02*
X9233932Y-14612618D01*
X9233932Y-14612618D02*
X9224408Y-14631666D01*
X9224408Y-14631666D02*
X9214884Y-14641190D01*
X9214884Y-14641190D02*
X9195836Y-14650714D01*
X9195836Y-14650714D02*
X9176789Y-14650714D01*
X9176789Y-14650714D02*
X9157741Y-14641190D01*
X9157741Y-14641190D02*
X9148217Y-14631666D01*
X9148217Y-14631666D02*
X9138694Y-14612618D01*
X9138694Y-14612618D02*
X9129170Y-14574523D01*
X9129170Y-14574523D02*
X9129170Y-14526904D01*
X9129170Y-14526904D02*
X9138694Y-14488809D01*
X9138694Y-14488809D02*
X9148217Y-14469761D01*
X9148217Y-14469761D02*
X9157741Y-14460238D01*
X9157741Y-14460238D02*
X9176789Y-14450714D01*
X9329170Y-14650714D02*
X9329170Y-14517380D01*
X9329170Y-14536428D02*
X9338694Y-14526904D01*
X9338694Y-14526904D02*
X9357741Y-14517380D01*
X9357741Y-14517380D02*
X9386313Y-14517380D01*
X9386313Y-14517380D02*
X9405360Y-14526904D01*
X9405360Y-14526904D02*
X9414884Y-14545952D01*
X9414884Y-14545952D02*
X9414884Y-14650714D01*
X9414884Y-14545952D02*
X9424408Y-14526904D01*
X9424408Y-14526904D02*
X9443455Y-14517380D01*
X9443455Y-14517380D02*
X9472027Y-14517380D01*
X9472027Y-14517380D02*
X9491075Y-14526904D01*
X9491075Y-14526904D02*
X9500598Y-14545952D01*
X9500598Y-14545952D02*
X9500598Y-14650714D01*
X9595836Y-14650714D02*
X9595836Y-14517380D01*
X9595836Y-14536428D02*
X9605360Y-14526904D01*
X9605360Y-14526904D02*
X9624408Y-14517380D01*
X9624408Y-14517380D02*
X9652979Y-14517380D01*
X9652979Y-14517380D02*
X9672027Y-14526904D01*
X9672027Y-14526904D02*
X9681551Y-14545952D01*
X9681551Y-14545952D02*
X9681551Y-14650714D01*
X9681551Y-14545952D02*
X9691075Y-14526904D01*
X9691075Y-14526904D02*
X9710122Y-14517380D01*
X9710122Y-14517380D02*
X9738694Y-14517380D01*
X9738694Y-14517380D02*
X9757741Y-14526904D01*
X9757741Y-14526904D02*
X9767265Y-14545952D01*
X9767265Y-14545952D02*
X9767265Y-14650714D01*
X10157741Y-14441190D02*
X9986313Y-14698333D01*
X10414884Y-14450714D02*
X10433932Y-14450714D01*
X10433932Y-14450714D02*
X10452979Y-14460238D01*
X10452979Y-14460238D02*
X10462503Y-14469761D01*
X10462503Y-14469761D02*
X10472027Y-14488809D01*
X10472027Y-14488809D02*
X10481551Y-14526904D01*
X10481551Y-14526904D02*
X10481551Y-14574523D01*
X10481551Y-14574523D02*
X10472027Y-14612618D01*
X10472027Y-14612618D02*
X10462503Y-14631666D01*
X10462503Y-14631666D02*
X10452979Y-14641190D01*
X10452979Y-14641190D02*
X10433932Y-14650714D01*
X10433932Y-14650714D02*
X10414884Y-14650714D01*
X10414884Y-14650714D02*
X10395837Y-14641190D01*
X10395837Y-14641190D02*
X10386313Y-14631666D01*
X10386313Y-14631666D02*
X10376789Y-14612618D01*
X10376789Y-14612618D02*
X10367265Y-14574523D01*
X10367265Y-14574523D02*
X10367265Y-14526904D01*
X10367265Y-14526904D02*
X10376789Y-14488809D01*
X10376789Y-14488809D02*
X10386313Y-14469761D01*
X10386313Y-14469761D02*
X10395837Y-14460238D01*
X10395837Y-14460238D02*
X10414884Y-14450714D01*
X10567265Y-14631666D02*
X10576789Y-14641190D01*
X10576789Y-14641190D02*
X10567265Y-14650714D01*
X10567265Y-14650714D02*
X10557741Y-14641190D01*
X10557741Y-14641190D02*
X10567265Y-14631666D01*
X10567265Y-14631666D02*
X10567265Y-14650714D01*
X10700598Y-14450714D02*
X10719646Y-14450714D01*
X10719646Y-14450714D02*
X10738694Y-14460238D01*
X10738694Y-14460238D02*
X10748218Y-14469761D01*
X10748218Y-14469761D02*
X10757741Y-14488809D01*
X10757741Y-14488809D02*
X10767265Y-14526904D01*
X10767265Y-14526904D02*
X10767265Y-14574523D01*
X10767265Y-14574523D02*
X10757741Y-14612618D01*
X10757741Y-14612618D02*
X10748218Y-14631666D01*
X10748218Y-14631666D02*
X10738694Y-14641190D01*
X10738694Y-14641190D02*
X10719646Y-14650714D01*
X10719646Y-14650714D02*
X10700598Y-14650714D01*
X10700598Y-14650714D02*
X10681551Y-14641190D01*
X10681551Y-14641190D02*
X10672027Y-14631666D01*
X10672027Y-14631666D02*
X10662503Y-14612618D01*
X10662503Y-14612618D02*
X10652979Y-14574523D01*
X10652979Y-14574523D02*
X10652979Y-14526904D01*
X10652979Y-14526904D02*
X10662503Y-14488809D01*
X10662503Y-14488809D02*
X10672027Y-14469761D01*
X10672027Y-14469761D02*
X10681551Y-14460238D01*
X10681551Y-14460238D02*
X10700598Y-14450714D01*
X10833932Y-14450714D02*
X10957741Y-14450714D01*
X10957741Y-14450714D02*
X10891075Y-14526904D01*
X10891075Y-14526904D02*
X10919646Y-14526904D01*
X10919646Y-14526904D02*
X10938694Y-14536428D01*
X10938694Y-14536428D02*
X10948218Y-14545952D01*
X10948218Y-14545952D02*
X10957741Y-14564999D01*
X10957741Y-14564999D02*
X10957741Y-14612618D01*
X10957741Y-14612618D02*
X10948218Y-14631666D01*
X10948218Y-14631666D02*
X10938694Y-14641190D01*
X10938694Y-14641190D02*
X10919646Y-14650714D01*
X10919646Y-14650714D02*
X10862503Y-14650714D01*
X10862503Y-14650714D02*
X10843456Y-14641190D01*
X10843456Y-14641190D02*
X10833932Y-14631666D01*
X11148218Y-14650714D02*
X11033932Y-14650714D01*
X11091075Y-14650714D02*
X11091075Y-14450714D01*
X11091075Y-14450714D02*
X11072027Y-14479285D01*
X11072027Y-14479285D02*
X11052979Y-14498333D01*
X11052979Y-14498333D02*
X11033932Y-14507857D01*
X11329170Y-14450714D02*
X11233932Y-14450714D01*
X11233932Y-14450714D02*
X11224408Y-14545952D01*
X11224408Y-14545952D02*
X11233932Y-14536428D01*
X11233932Y-14536428D02*
X11252979Y-14526904D01*
X11252979Y-14526904D02*
X11300598Y-14526904D01*
X11300598Y-14526904D02*
X11319646Y-14536428D01*
X11319646Y-14536428D02*
X11329170Y-14545952D01*
X11329170Y-14545952D02*
X11338694Y-14564999D01*
X11338694Y-14564999D02*
X11338694Y-14612618D01*
X11338694Y-14612618D02*
X11329170Y-14631666D01*
X11329170Y-14631666D02*
X11319646Y-14641190D01*
X11319646Y-14641190D02*
X11300598Y-14650714D01*
X11300598Y-14650714D02*
X11252979Y-14650714D01*
X11252979Y-14650714D02*
X11233932Y-14641190D01*
X11233932Y-14641190D02*
X11224408Y-14631666D01*
X11414884Y-14450714D02*
X11414884Y-14488809D01*
X11491075Y-14450714D02*
X11491075Y-14488809D01*
X11786313Y-14726904D02*
X11776789Y-14717380D01*
X11776789Y-14717380D02*
X11757741Y-14688809D01*
X11757741Y-14688809D02*
X11748218Y-14669761D01*
X11748218Y-14669761D02*
X11738694Y-14641190D01*
X11738694Y-14641190D02*
X11729170Y-14593571D01*
X11729170Y-14593571D02*
X11729170Y-14555476D01*
X11729170Y-14555476D02*
X11738694Y-14507857D01*
X11738694Y-14507857D02*
X11748218Y-14479285D01*
X11748218Y-14479285D02*
X11757741Y-14460238D01*
X11757741Y-14460238D02*
X11776789Y-14431666D01*
X11776789Y-14431666D02*
X11786313Y-14422142D01*
X11948218Y-14517380D02*
X11948218Y-14650714D01*
X11900598Y-14441190D02*
X11852979Y-14584047D01*
X11852979Y-14584047D02*
X11976789Y-14584047D01*
X12081551Y-14536428D02*
X12062503Y-14526904D01*
X12062503Y-14526904D02*
X12052979Y-14517380D01*
X12052979Y-14517380D02*
X12043456Y-14498333D01*
X12043456Y-14498333D02*
X12043456Y-14488809D01*
X12043456Y-14488809D02*
X12052979Y-14469761D01*
X12052979Y-14469761D02*
X12062503Y-14460238D01*
X12062503Y-14460238D02*
X12081551Y-14450714D01*
X12081551Y-14450714D02*
X12119646Y-14450714D01*
X12119646Y-14450714D02*
X12138694Y-14460238D01*
X12138694Y-14460238D02*
X12148218Y-14469761D01*
X12148218Y-14469761D02*
X12157741Y-14488809D01*
X12157741Y-14488809D02*
X12157741Y-14498333D01*
X12157741Y-14498333D02*
X12148218Y-14517380D01*
X12148218Y-14517380D02*
X12138694Y-14526904D01*
X12138694Y-14526904D02*
X12119646Y-14536428D01*
X12119646Y-14536428D02*
X12081551Y-14536428D01*
X12081551Y-14536428D02*
X12062503Y-14545952D01*
X12062503Y-14545952D02*
X12052979Y-14555476D01*
X12052979Y-14555476D02*
X12043456Y-14574523D01*
X12043456Y-14574523D02*
X12043456Y-14612618D01*
X12043456Y-14612618D02*
X12052979Y-14631666D01*
X12052979Y-14631666D02*
X12062503Y-14641190D01*
X12062503Y-14641190D02*
X12081551Y-14650714D01*
X12081551Y-14650714D02*
X12119646Y-14650714D01*
X12119646Y-14650714D02*
X12138694Y-14641190D01*
X12138694Y-14641190D02*
X12148218Y-14631666D01*
X12148218Y-14631666D02*
X12157741Y-14612618D01*
X12157741Y-14612618D02*
X12157741Y-14574523D01*
X12157741Y-14574523D02*
X12148218Y-14555476D01*
X12148218Y-14555476D02*
X12138694Y-14545952D01*
X12138694Y-14545952D02*
X12119646Y-14536428D01*
X12395837Y-14650714D02*
X12395837Y-14450714D01*
X12481551Y-14650714D02*
X12481551Y-14545952D01*
X12481551Y-14545952D02*
X12472027Y-14526904D01*
X12472027Y-14526904D02*
X12452980Y-14517380D01*
X12452980Y-14517380D02*
X12424408Y-14517380D01*
X12424408Y-14517380D02*
X12405360Y-14526904D01*
X12405360Y-14526904D02*
X12395837Y-14536428D01*
X12605360Y-14650714D02*
X12586313Y-14641190D01*
X12586313Y-14641190D02*
X12576789Y-14631666D01*
X12576789Y-14631666D02*
X12567265Y-14612618D01*
X12567265Y-14612618D02*
X12567265Y-14555476D01*
X12567265Y-14555476D02*
X12576789Y-14536428D01*
X12576789Y-14536428D02*
X12586313Y-14526904D01*
X12586313Y-14526904D02*
X12605360Y-14517380D01*
X12605360Y-14517380D02*
X12633932Y-14517380D01*
X12633932Y-14517380D02*
X12652980Y-14526904D01*
X12652980Y-14526904D02*
X12662503Y-14536428D01*
X12662503Y-14536428D02*
X12672027Y-14555476D01*
X12672027Y-14555476D02*
X12672027Y-14612618D01*
X12672027Y-14612618D02*
X12662503Y-14631666D01*
X12662503Y-14631666D02*
X12652980Y-14641190D01*
X12652980Y-14641190D02*
X12633932Y-14650714D01*
X12633932Y-14650714D02*
X12605360Y-14650714D01*
X12786313Y-14650714D02*
X12767265Y-14641190D01*
X12767265Y-14641190D02*
X12757741Y-14622142D01*
X12757741Y-14622142D02*
X12757741Y-14450714D01*
X12938694Y-14641190D02*
X12919646Y-14650714D01*
X12919646Y-14650714D02*
X12881551Y-14650714D01*
X12881551Y-14650714D02*
X12862503Y-14641190D01*
X12862503Y-14641190D02*
X12852980Y-14622142D01*
X12852980Y-14622142D02*
X12852980Y-14545952D01*
X12852980Y-14545952D02*
X12862503Y-14526904D01*
X12862503Y-14526904D02*
X12881551Y-14517380D01*
X12881551Y-14517380D02*
X12919646Y-14517380D01*
X12919646Y-14517380D02*
X12938694Y-14526904D01*
X12938694Y-14526904D02*
X12948218Y-14545952D01*
X12948218Y-14545952D02*
X12948218Y-14564999D01*
X12948218Y-14564999D02*
X12852980Y-14584047D01*
X13024408Y-14641190D02*
X13043456Y-14650714D01*
X13043456Y-14650714D02*
X13081551Y-14650714D01*
X13081551Y-14650714D02*
X13100599Y-14641190D01*
X13100599Y-14641190D02*
X13110122Y-14622142D01*
X13110122Y-14622142D02*
X13110122Y-14612618D01*
X13110122Y-14612618D02*
X13100599Y-14593571D01*
X13100599Y-14593571D02*
X13081551Y-14584047D01*
X13081551Y-14584047D02*
X13052980Y-14584047D01*
X13052980Y-14584047D02*
X13033932Y-14574523D01*
X13033932Y-14574523D02*
X13024408Y-14555476D01*
X13024408Y-14555476D02*
X13024408Y-14545952D01*
X13024408Y-14545952D02*
X13033932Y-14526904D01*
X13033932Y-14526904D02*
X13052980Y-14517380D01*
X13052980Y-14517380D02*
X13081551Y-14517380D01*
X13081551Y-14517380D02*
X13100599Y-14526904D01*
X13176789Y-14726904D02*
X13186313Y-14717380D01*
X13186313Y-14717380D02*
X13205361Y-14688809D01*
X13205361Y-14688809D02*
X13214884Y-14669761D01*
X13214884Y-14669761D02*
X13224408Y-14641190D01*
X13224408Y-14641190D02*
X13233932Y-14593571D01*
X13233932Y-14593571D02*
X13233932Y-14555476D01*
X13233932Y-14555476D02*
X13224408Y-14507857D01*
X13224408Y-14507857D02*
X13214884Y-14479285D01*
X13214884Y-14479285D02*
X13205361Y-14460238D01*
X13205361Y-14460238D02*
X13186313Y-14431666D01*
X13186313Y-14431666D02*
X13176789Y-14422142D01*
D12*
X8163750Y-14775730D02*
X8163750Y-14870730D01*
X8116250Y-14823230D02*
X8211250Y-14823230D01*
D11*
X8510122Y-14714714D02*
X8529170Y-14714714D01*
X8529170Y-14714714D02*
X8548217Y-14724238D01*
X8548217Y-14724238D02*
X8557741Y-14733761D01*
X8557741Y-14733761D02*
X8567265Y-14752809D01*
X8567265Y-14752809D02*
X8576789Y-14790904D01*
X8576789Y-14790904D02*
X8576789Y-14838523D01*
X8576789Y-14838523D02*
X8567265Y-14876618D01*
X8567265Y-14876618D02*
X8557741Y-14895666D01*
X8557741Y-14895666D02*
X8548217Y-14905190D01*
X8548217Y-14905190D02*
X8529170Y-14914714D01*
X8529170Y-14914714D02*
X8510122Y-14914714D01*
X8510122Y-14914714D02*
X8491074Y-14905190D01*
X8491074Y-14905190D02*
X8481551Y-14895666D01*
X8481551Y-14895666D02*
X8472027Y-14876618D01*
X8472027Y-14876618D02*
X8462503Y-14838523D01*
X8462503Y-14838523D02*
X8462503Y-14790904D01*
X8462503Y-14790904D02*
X8472027Y-14752809D01*
X8472027Y-14752809D02*
X8481551Y-14733761D01*
X8481551Y-14733761D02*
X8491074Y-14724238D01*
X8491074Y-14724238D02*
X8510122Y-14714714D01*
X8662503Y-14895666D02*
X8672027Y-14905190D01*
X8672027Y-14905190D02*
X8662503Y-14914714D01*
X8662503Y-14914714D02*
X8652979Y-14905190D01*
X8652979Y-14905190D02*
X8662503Y-14895666D01*
X8662503Y-14895666D02*
X8662503Y-14914714D01*
X8767265Y-14914714D02*
X8805360Y-14914714D01*
X8805360Y-14914714D02*
X8824408Y-14905190D01*
X8824408Y-14905190D02*
X8833932Y-14895666D01*
X8833932Y-14895666D02*
X8852979Y-14867095D01*
X8852979Y-14867095D02*
X8862503Y-14828999D01*
X8862503Y-14828999D02*
X8862503Y-14752809D01*
X8862503Y-14752809D02*
X8852979Y-14733761D01*
X8852979Y-14733761D02*
X8843455Y-14724238D01*
X8843455Y-14724238D02*
X8824408Y-14714714D01*
X8824408Y-14714714D02*
X8786313Y-14714714D01*
X8786313Y-14714714D02*
X8767265Y-14724238D01*
X8767265Y-14724238D02*
X8757741Y-14733761D01*
X8757741Y-14733761D02*
X8748217Y-14752809D01*
X8748217Y-14752809D02*
X8748217Y-14800428D01*
X8748217Y-14800428D02*
X8757741Y-14819476D01*
X8757741Y-14819476D02*
X8767265Y-14828999D01*
X8767265Y-14828999D02*
X8786313Y-14838523D01*
X8786313Y-14838523D02*
X8824408Y-14838523D01*
X8824408Y-14838523D02*
X8843455Y-14828999D01*
X8843455Y-14828999D02*
X8852979Y-14819476D01*
X8852979Y-14819476D02*
X8862503Y-14800428D01*
X9043455Y-14714714D02*
X8948217Y-14714714D01*
X8948217Y-14714714D02*
X8938694Y-14809952D01*
X8938694Y-14809952D02*
X8948217Y-14800428D01*
X8948217Y-14800428D02*
X8967265Y-14790904D01*
X8967265Y-14790904D02*
X9014884Y-14790904D01*
X9014884Y-14790904D02*
X9033932Y-14800428D01*
X9033932Y-14800428D02*
X9043455Y-14809952D01*
X9043455Y-14809952D02*
X9052979Y-14828999D01*
X9052979Y-14828999D02*
X9052979Y-14876618D01*
X9052979Y-14876618D02*
X9043455Y-14895666D01*
X9043455Y-14895666D02*
X9033932Y-14905190D01*
X9033932Y-14905190D02*
X9014884Y-14914714D01*
X9014884Y-14914714D02*
X8967265Y-14914714D01*
X8967265Y-14914714D02*
X8948217Y-14905190D01*
X8948217Y-14905190D02*
X8938694Y-14895666D01*
X9176789Y-14714714D02*
X9195836Y-14714714D01*
X9195836Y-14714714D02*
X9214884Y-14724238D01*
X9214884Y-14724238D02*
X9224408Y-14733761D01*
X9224408Y-14733761D02*
X9233932Y-14752809D01*
X9233932Y-14752809D02*
X9243455Y-14790904D01*
X9243455Y-14790904D02*
X9243455Y-14838523D01*
X9243455Y-14838523D02*
X9233932Y-14876618D01*
X9233932Y-14876618D02*
X9224408Y-14895666D01*
X9224408Y-14895666D02*
X9214884Y-14905190D01*
X9214884Y-14905190D02*
X9195836Y-14914714D01*
X9195836Y-14914714D02*
X9176789Y-14914714D01*
X9176789Y-14914714D02*
X9157741Y-14905190D01*
X9157741Y-14905190D02*
X9148217Y-14895666D01*
X9148217Y-14895666D02*
X9138694Y-14876618D01*
X9138694Y-14876618D02*
X9129170Y-14838523D01*
X9129170Y-14838523D02*
X9129170Y-14790904D01*
X9129170Y-14790904D02*
X9138694Y-14752809D01*
X9138694Y-14752809D02*
X9148217Y-14733761D01*
X9148217Y-14733761D02*
X9157741Y-14724238D01*
X9157741Y-14724238D02*
X9176789Y-14714714D01*
X9329170Y-14914714D02*
X9329170Y-14781380D01*
X9329170Y-14800428D02*
X9338694Y-14790904D01*
X9338694Y-14790904D02*
X9357741Y-14781380D01*
X9357741Y-14781380D02*
X9386313Y-14781380D01*
X9386313Y-14781380D02*
X9405360Y-14790904D01*
X9405360Y-14790904D02*
X9414884Y-14809952D01*
X9414884Y-14809952D02*
X9414884Y-14914714D01*
X9414884Y-14809952D02*
X9424408Y-14790904D01*
X9424408Y-14790904D02*
X9443455Y-14781380D01*
X9443455Y-14781380D02*
X9472027Y-14781380D01*
X9472027Y-14781380D02*
X9491075Y-14790904D01*
X9491075Y-14790904D02*
X9500598Y-14809952D01*
X9500598Y-14809952D02*
X9500598Y-14914714D01*
X9595836Y-14914714D02*
X9595836Y-14781380D01*
X9595836Y-14800428D02*
X9605360Y-14790904D01*
X9605360Y-14790904D02*
X9624408Y-14781380D01*
X9624408Y-14781380D02*
X9652979Y-14781380D01*
X9652979Y-14781380D02*
X9672027Y-14790904D01*
X9672027Y-14790904D02*
X9681551Y-14809952D01*
X9681551Y-14809952D02*
X9681551Y-14914714D01*
X9681551Y-14809952D02*
X9691075Y-14790904D01*
X9691075Y-14790904D02*
X9710122Y-14781380D01*
X9710122Y-14781380D02*
X9738694Y-14781380D01*
X9738694Y-14781380D02*
X9757741Y-14790904D01*
X9757741Y-14790904D02*
X9767265Y-14809952D01*
X9767265Y-14809952D02*
X9767265Y-14914714D01*
X10157741Y-14705190D02*
X9986313Y-14962333D01*
X10414884Y-14714714D02*
X10433932Y-14714714D01*
X10433932Y-14714714D02*
X10452979Y-14724238D01*
X10452979Y-14724238D02*
X10462503Y-14733761D01*
X10462503Y-14733761D02*
X10472027Y-14752809D01*
X10472027Y-14752809D02*
X10481551Y-14790904D01*
X10481551Y-14790904D02*
X10481551Y-14838523D01*
X10481551Y-14838523D02*
X10472027Y-14876618D01*
X10472027Y-14876618D02*
X10462503Y-14895666D01*
X10462503Y-14895666D02*
X10452979Y-14905190D01*
X10452979Y-14905190D02*
X10433932Y-14914714D01*
X10433932Y-14914714D02*
X10414884Y-14914714D01*
X10414884Y-14914714D02*
X10395837Y-14905190D01*
X10395837Y-14905190D02*
X10386313Y-14895666D01*
X10386313Y-14895666D02*
X10376789Y-14876618D01*
X10376789Y-14876618D02*
X10367265Y-14838523D01*
X10367265Y-14838523D02*
X10367265Y-14790904D01*
X10367265Y-14790904D02*
X10376789Y-14752809D01*
X10376789Y-14752809D02*
X10386313Y-14733761D01*
X10386313Y-14733761D02*
X10395837Y-14724238D01*
X10395837Y-14724238D02*
X10414884Y-14714714D01*
X10567265Y-14895666D02*
X10576789Y-14905190D01*
X10576789Y-14905190D02*
X10567265Y-14914714D01*
X10567265Y-14914714D02*
X10557741Y-14905190D01*
X10557741Y-14905190D02*
X10567265Y-14895666D01*
X10567265Y-14895666D02*
X10567265Y-14914714D01*
X10700598Y-14714714D02*
X10719646Y-14714714D01*
X10719646Y-14714714D02*
X10738694Y-14724238D01*
X10738694Y-14724238D02*
X10748218Y-14733761D01*
X10748218Y-14733761D02*
X10757741Y-14752809D01*
X10757741Y-14752809D02*
X10767265Y-14790904D01*
X10767265Y-14790904D02*
X10767265Y-14838523D01*
X10767265Y-14838523D02*
X10757741Y-14876618D01*
X10757741Y-14876618D02*
X10748218Y-14895666D01*
X10748218Y-14895666D02*
X10738694Y-14905190D01*
X10738694Y-14905190D02*
X10719646Y-14914714D01*
X10719646Y-14914714D02*
X10700598Y-14914714D01*
X10700598Y-14914714D02*
X10681551Y-14905190D01*
X10681551Y-14905190D02*
X10672027Y-14895666D01*
X10672027Y-14895666D02*
X10662503Y-14876618D01*
X10662503Y-14876618D02*
X10652979Y-14838523D01*
X10652979Y-14838523D02*
X10652979Y-14790904D01*
X10652979Y-14790904D02*
X10662503Y-14752809D01*
X10662503Y-14752809D02*
X10672027Y-14733761D01*
X10672027Y-14733761D02*
X10681551Y-14724238D01*
X10681551Y-14724238D02*
X10700598Y-14714714D01*
X10833932Y-14714714D02*
X10957741Y-14714714D01*
X10957741Y-14714714D02*
X10891075Y-14790904D01*
X10891075Y-14790904D02*
X10919646Y-14790904D01*
X10919646Y-14790904D02*
X10938694Y-14800428D01*
X10938694Y-14800428D02*
X10948218Y-14809952D01*
X10948218Y-14809952D02*
X10957741Y-14828999D01*
X10957741Y-14828999D02*
X10957741Y-14876618D01*
X10957741Y-14876618D02*
X10948218Y-14895666D01*
X10948218Y-14895666D02*
X10938694Y-14905190D01*
X10938694Y-14905190D02*
X10919646Y-14914714D01*
X10919646Y-14914714D02*
X10862503Y-14914714D01*
X10862503Y-14914714D02*
X10843456Y-14905190D01*
X10843456Y-14905190D02*
X10833932Y-14895666D01*
X11024408Y-14714714D02*
X11157741Y-14714714D01*
X11157741Y-14714714D02*
X11072027Y-14914714D01*
X11319646Y-14781380D02*
X11319646Y-14914714D01*
X11272027Y-14705190D02*
X11224408Y-14848047D01*
X11224408Y-14848047D02*
X11348217Y-14848047D01*
X11414884Y-14714714D02*
X11414884Y-14752809D01*
X11491075Y-14714714D02*
X11491075Y-14752809D01*
X11786313Y-14990904D02*
X11776789Y-14981380D01*
X11776789Y-14981380D02*
X11757741Y-14952809D01*
X11757741Y-14952809D02*
X11748218Y-14933761D01*
X11748218Y-14933761D02*
X11738694Y-14905190D01*
X11738694Y-14905190D02*
X11729170Y-14857571D01*
X11729170Y-14857571D02*
X11729170Y-14819476D01*
X11729170Y-14819476D02*
X11738694Y-14771857D01*
X11738694Y-14771857D02*
X11748218Y-14743285D01*
X11748218Y-14743285D02*
X11757741Y-14724238D01*
X11757741Y-14724238D02*
X11776789Y-14695666D01*
X11776789Y-14695666D02*
X11786313Y-14686142D01*
X11843456Y-14714714D02*
X11967265Y-14714714D01*
X11967265Y-14714714D02*
X11900598Y-14790904D01*
X11900598Y-14790904D02*
X11929170Y-14790904D01*
X11929170Y-14790904D02*
X11948218Y-14800428D01*
X11948218Y-14800428D02*
X11957741Y-14809952D01*
X11957741Y-14809952D02*
X11967265Y-14828999D01*
X11967265Y-14828999D02*
X11967265Y-14876618D01*
X11967265Y-14876618D02*
X11957741Y-14895666D01*
X11957741Y-14895666D02*
X11948218Y-14905190D01*
X11948218Y-14905190D02*
X11929170Y-14914714D01*
X11929170Y-14914714D02*
X11872027Y-14914714D01*
X11872027Y-14914714D02*
X11852979Y-14905190D01*
X11852979Y-14905190D02*
X11843456Y-14895666D01*
X12062503Y-14914714D02*
X12100598Y-14914714D01*
X12100598Y-14914714D02*
X12119646Y-14905190D01*
X12119646Y-14905190D02*
X12129170Y-14895666D01*
X12129170Y-14895666D02*
X12148218Y-14867095D01*
X12148218Y-14867095D02*
X12157741Y-14828999D01*
X12157741Y-14828999D02*
X12157741Y-14752809D01*
X12157741Y-14752809D02*
X12148218Y-14733761D01*
X12148218Y-14733761D02*
X12138694Y-14724238D01*
X12138694Y-14724238D02*
X12119646Y-14714714D01*
X12119646Y-14714714D02*
X12081551Y-14714714D01*
X12081551Y-14714714D02*
X12062503Y-14724238D01*
X12062503Y-14724238D02*
X12052979Y-14733761D01*
X12052979Y-14733761D02*
X12043456Y-14752809D01*
X12043456Y-14752809D02*
X12043456Y-14800428D01*
X12043456Y-14800428D02*
X12052979Y-14819476D01*
X12052979Y-14819476D02*
X12062503Y-14828999D01*
X12062503Y-14828999D02*
X12081551Y-14838523D01*
X12081551Y-14838523D02*
X12119646Y-14838523D01*
X12119646Y-14838523D02*
X12138694Y-14828999D01*
X12138694Y-14828999D02*
X12148218Y-14819476D01*
X12148218Y-14819476D02*
X12157741Y-14800428D01*
X12395837Y-14914714D02*
X12395837Y-14714714D01*
X12481551Y-14914714D02*
X12481551Y-14809952D01*
X12481551Y-14809952D02*
X12472027Y-14790904D01*
X12472027Y-14790904D02*
X12452980Y-14781380D01*
X12452980Y-14781380D02*
X12424408Y-14781380D01*
X12424408Y-14781380D02*
X12405360Y-14790904D01*
X12405360Y-14790904D02*
X12395837Y-14800428D01*
X12605360Y-14914714D02*
X12586313Y-14905190D01*
X12586313Y-14905190D02*
X12576789Y-14895666D01*
X12576789Y-14895666D02*
X12567265Y-14876618D01*
X12567265Y-14876618D02*
X12567265Y-14819476D01*
X12567265Y-14819476D02*
X12576789Y-14800428D01*
X12576789Y-14800428D02*
X12586313Y-14790904D01*
X12586313Y-14790904D02*
X12605360Y-14781380D01*
X12605360Y-14781380D02*
X12633932Y-14781380D01*
X12633932Y-14781380D02*
X12652980Y-14790904D01*
X12652980Y-14790904D02*
X12662503Y-14800428D01*
X12662503Y-14800428D02*
X12672027Y-14819476D01*
X12672027Y-14819476D02*
X12672027Y-14876618D01*
X12672027Y-14876618D02*
X12662503Y-14895666D01*
X12662503Y-14895666D02*
X12652980Y-14905190D01*
X12652980Y-14905190D02*
X12633932Y-14914714D01*
X12633932Y-14914714D02*
X12605360Y-14914714D01*
X12786313Y-14914714D02*
X12767265Y-14905190D01*
X12767265Y-14905190D02*
X12757741Y-14886142D01*
X12757741Y-14886142D02*
X12757741Y-14714714D01*
X12938694Y-14905190D02*
X12919646Y-14914714D01*
X12919646Y-14914714D02*
X12881551Y-14914714D01*
X12881551Y-14914714D02*
X12862503Y-14905190D01*
X12862503Y-14905190D02*
X12852980Y-14886142D01*
X12852980Y-14886142D02*
X12852980Y-14809952D01*
X12852980Y-14809952D02*
X12862503Y-14790904D01*
X12862503Y-14790904D02*
X12881551Y-14781380D01*
X12881551Y-14781380D02*
X12919646Y-14781380D01*
X12919646Y-14781380D02*
X12938694Y-14790904D01*
X12938694Y-14790904D02*
X12948218Y-14809952D01*
X12948218Y-14809952D02*
X12948218Y-14828999D01*
X12948218Y-14828999D02*
X12852980Y-14848047D01*
X13024408Y-14905190D02*
X13043456Y-14914714D01*
X13043456Y-14914714D02*
X13081551Y-14914714D01*
X13081551Y-14914714D02*
X13100599Y-14905190D01*
X13100599Y-14905190D02*
X13110122Y-14886142D01*
X13110122Y-14886142D02*
X13110122Y-14876618D01*
X13110122Y-14876618D02*
X13100599Y-14857571D01*
X13100599Y-14857571D02*
X13081551Y-14848047D01*
X13081551Y-14848047D02*
X13052980Y-14848047D01*
X13052980Y-14848047D02*
X13033932Y-14838523D01*
X13033932Y-14838523D02*
X13024408Y-14819476D01*
X13024408Y-14819476D02*
X13024408Y-14809952D01*
X13024408Y-14809952D02*
X13033932Y-14790904D01*
X13033932Y-14790904D02*
X13052980Y-14781380D01*
X13052980Y-14781380D02*
X13081551Y-14781380D01*
X13081551Y-14781380D02*
X13100599Y-14790904D01*
X13176789Y-14990904D02*
X13186313Y-14981380D01*
X13186313Y-14981380D02*
X13205361Y-14952809D01*
X13205361Y-14952809D02*
X13214884Y-14933761D01*
X13214884Y-14933761D02*
X13224408Y-14905190D01*
X13224408Y-14905190D02*
X13233932Y-14857571D01*
X13233932Y-14857571D02*
X13233932Y-14819476D01*
X13233932Y-14819476D02*
X13224408Y-14771857D01*
X13224408Y-14771857D02*
X13214884Y-14743285D01*
X13214884Y-14743285D02*
X13205361Y-14724238D01*
X13205361Y-14724238D02*
X13186313Y-14695666D01*
X13186313Y-14695666D02*
X13176789Y-14686142D01*
D12*
X8196606Y-15122586D02*
X8196606Y-15051874D01*
X8125894Y-15051874D01*
X8125894Y-15122586D01*
X8196606Y-15122586D01*
D11*
X8576789Y-15178714D02*
X8462503Y-15178714D01*
X8519646Y-15178714D02*
X8519646Y-14978714D01*
X8519646Y-14978714D02*
X8500598Y-15007285D01*
X8500598Y-15007285D02*
X8481551Y-15026333D01*
X8481551Y-15026333D02*
X8462503Y-15035857D01*
X8662503Y-15159666D02*
X8672027Y-15169190D01*
X8672027Y-15169190D02*
X8662503Y-15178714D01*
X8662503Y-15178714D02*
X8652979Y-15169190D01*
X8652979Y-15169190D02*
X8662503Y-15159666D01*
X8662503Y-15159666D02*
X8662503Y-15178714D01*
X8795836Y-14978714D02*
X8814884Y-14978714D01*
X8814884Y-14978714D02*
X8833932Y-14988238D01*
X8833932Y-14988238D02*
X8843455Y-14997761D01*
X8843455Y-14997761D02*
X8852979Y-15016809D01*
X8852979Y-15016809D02*
X8862503Y-15054904D01*
X8862503Y-15054904D02*
X8862503Y-15102523D01*
X8862503Y-15102523D02*
X8852979Y-15140618D01*
X8852979Y-15140618D02*
X8843455Y-15159666D01*
X8843455Y-15159666D02*
X8833932Y-15169190D01*
X8833932Y-15169190D02*
X8814884Y-15178714D01*
X8814884Y-15178714D02*
X8795836Y-15178714D01*
X8795836Y-15178714D02*
X8776789Y-15169190D01*
X8776789Y-15169190D02*
X8767265Y-15159666D01*
X8767265Y-15159666D02*
X8757741Y-15140618D01*
X8757741Y-15140618D02*
X8748217Y-15102523D01*
X8748217Y-15102523D02*
X8748217Y-15054904D01*
X8748217Y-15054904D02*
X8757741Y-15016809D01*
X8757741Y-15016809D02*
X8767265Y-14997761D01*
X8767265Y-14997761D02*
X8776789Y-14988238D01*
X8776789Y-14988238D02*
X8795836Y-14978714D01*
X8986313Y-14978714D02*
X9005360Y-14978714D01*
X9005360Y-14978714D02*
X9024408Y-14988238D01*
X9024408Y-14988238D02*
X9033932Y-14997761D01*
X9033932Y-14997761D02*
X9043455Y-15016809D01*
X9043455Y-15016809D02*
X9052979Y-15054904D01*
X9052979Y-15054904D02*
X9052979Y-15102523D01*
X9052979Y-15102523D02*
X9043455Y-15140618D01*
X9043455Y-15140618D02*
X9033932Y-15159666D01*
X9033932Y-15159666D02*
X9024408Y-15169190D01*
X9024408Y-15169190D02*
X9005360Y-15178714D01*
X9005360Y-15178714D02*
X8986313Y-15178714D01*
X8986313Y-15178714D02*
X8967265Y-15169190D01*
X8967265Y-15169190D02*
X8957741Y-15159666D01*
X8957741Y-15159666D02*
X8948217Y-15140618D01*
X8948217Y-15140618D02*
X8938694Y-15102523D01*
X8938694Y-15102523D02*
X8938694Y-15054904D01*
X8938694Y-15054904D02*
X8948217Y-15016809D01*
X8948217Y-15016809D02*
X8957741Y-14997761D01*
X8957741Y-14997761D02*
X8967265Y-14988238D01*
X8967265Y-14988238D02*
X8986313Y-14978714D01*
X9176789Y-14978714D02*
X9195836Y-14978714D01*
X9195836Y-14978714D02*
X9214884Y-14988238D01*
X9214884Y-14988238D02*
X9224408Y-14997761D01*
X9224408Y-14997761D02*
X9233932Y-15016809D01*
X9233932Y-15016809D02*
X9243455Y-15054904D01*
X9243455Y-15054904D02*
X9243455Y-15102523D01*
X9243455Y-15102523D02*
X9233932Y-15140618D01*
X9233932Y-15140618D02*
X9224408Y-15159666D01*
X9224408Y-15159666D02*
X9214884Y-15169190D01*
X9214884Y-15169190D02*
X9195836Y-15178714D01*
X9195836Y-15178714D02*
X9176789Y-15178714D01*
X9176789Y-15178714D02*
X9157741Y-15169190D01*
X9157741Y-15169190D02*
X9148217Y-15159666D01*
X9148217Y-15159666D02*
X9138694Y-15140618D01*
X9138694Y-15140618D02*
X9129170Y-15102523D01*
X9129170Y-15102523D02*
X9129170Y-15054904D01*
X9129170Y-15054904D02*
X9138694Y-15016809D01*
X9138694Y-15016809D02*
X9148217Y-14997761D01*
X9148217Y-14997761D02*
X9157741Y-14988238D01*
X9157741Y-14988238D02*
X9176789Y-14978714D01*
X9329170Y-15178714D02*
X9329170Y-15045380D01*
X9329170Y-15064428D02*
X9338694Y-15054904D01*
X9338694Y-15054904D02*
X9357741Y-15045380D01*
X9357741Y-15045380D02*
X9386313Y-15045380D01*
X9386313Y-15045380D02*
X9405360Y-15054904D01*
X9405360Y-15054904D02*
X9414884Y-15073952D01*
X9414884Y-15073952D02*
X9414884Y-15178714D01*
X9414884Y-15073952D02*
X9424408Y-15054904D01*
X9424408Y-15054904D02*
X9443455Y-15045380D01*
X9443455Y-15045380D02*
X9472027Y-15045380D01*
X9472027Y-15045380D02*
X9491075Y-15054904D01*
X9491075Y-15054904D02*
X9500598Y-15073952D01*
X9500598Y-15073952D02*
X9500598Y-15178714D01*
X9595836Y-15178714D02*
X9595836Y-15045380D01*
X9595836Y-15064428D02*
X9605360Y-15054904D01*
X9605360Y-15054904D02*
X9624408Y-15045380D01*
X9624408Y-15045380D02*
X9652979Y-15045380D01*
X9652979Y-15045380D02*
X9672027Y-15054904D01*
X9672027Y-15054904D02*
X9681551Y-15073952D01*
X9681551Y-15073952D02*
X9681551Y-15178714D01*
X9681551Y-15073952D02*
X9691075Y-15054904D01*
X9691075Y-15054904D02*
X9710122Y-15045380D01*
X9710122Y-15045380D02*
X9738694Y-15045380D01*
X9738694Y-15045380D02*
X9757741Y-15054904D01*
X9757741Y-15054904D02*
X9767265Y-15073952D01*
X9767265Y-15073952D02*
X9767265Y-15178714D01*
X10157741Y-14969190D02*
X9986313Y-15226333D01*
X10414884Y-14978714D02*
X10433932Y-14978714D01*
X10433932Y-14978714D02*
X10452979Y-14988238D01*
X10452979Y-14988238D02*
X10462503Y-14997761D01*
X10462503Y-14997761D02*
X10472027Y-15016809D01*
X10472027Y-15016809D02*
X10481551Y-15054904D01*
X10481551Y-15054904D02*
X10481551Y-15102523D01*
X10481551Y-15102523D02*
X10472027Y-15140618D01*
X10472027Y-15140618D02*
X10462503Y-15159666D01*
X10462503Y-15159666D02*
X10452979Y-15169190D01*
X10452979Y-15169190D02*
X10433932Y-15178714D01*
X10433932Y-15178714D02*
X10414884Y-15178714D01*
X10414884Y-15178714D02*
X10395837Y-15169190D01*
X10395837Y-15169190D02*
X10386313Y-15159666D01*
X10386313Y-15159666D02*
X10376789Y-15140618D01*
X10376789Y-15140618D02*
X10367265Y-15102523D01*
X10367265Y-15102523D02*
X10367265Y-15054904D01*
X10367265Y-15054904D02*
X10376789Y-15016809D01*
X10376789Y-15016809D02*
X10386313Y-14997761D01*
X10386313Y-14997761D02*
X10395837Y-14988238D01*
X10395837Y-14988238D02*
X10414884Y-14978714D01*
X10567265Y-15159666D02*
X10576789Y-15169190D01*
X10576789Y-15169190D02*
X10567265Y-15178714D01*
X10567265Y-15178714D02*
X10557741Y-15169190D01*
X10557741Y-15169190D02*
X10567265Y-15159666D01*
X10567265Y-15159666D02*
X10567265Y-15178714D01*
X10700598Y-14978714D02*
X10719646Y-14978714D01*
X10719646Y-14978714D02*
X10738694Y-14988238D01*
X10738694Y-14988238D02*
X10748218Y-14997761D01*
X10748218Y-14997761D02*
X10757741Y-15016809D01*
X10757741Y-15016809D02*
X10767265Y-15054904D01*
X10767265Y-15054904D02*
X10767265Y-15102523D01*
X10767265Y-15102523D02*
X10757741Y-15140618D01*
X10757741Y-15140618D02*
X10748218Y-15159666D01*
X10748218Y-15159666D02*
X10738694Y-15169190D01*
X10738694Y-15169190D02*
X10719646Y-15178714D01*
X10719646Y-15178714D02*
X10700598Y-15178714D01*
X10700598Y-15178714D02*
X10681551Y-15169190D01*
X10681551Y-15169190D02*
X10672027Y-15159666D01*
X10672027Y-15159666D02*
X10662503Y-15140618D01*
X10662503Y-15140618D02*
X10652979Y-15102523D01*
X10652979Y-15102523D02*
X10652979Y-15054904D01*
X10652979Y-15054904D02*
X10662503Y-15016809D01*
X10662503Y-15016809D02*
X10672027Y-14997761D01*
X10672027Y-14997761D02*
X10681551Y-14988238D01*
X10681551Y-14988238D02*
X10700598Y-14978714D01*
X10833932Y-14978714D02*
X10957741Y-14978714D01*
X10957741Y-14978714D02*
X10891075Y-15054904D01*
X10891075Y-15054904D02*
X10919646Y-15054904D01*
X10919646Y-15054904D02*
X10938694Y-15064428D01*
X10938694Y-15064428D02*
X10948218Y-15073952D01*
X10948218Y-15073952D02*
X10957741Y-15092999D01*
X10957741Y-15092999D02*
X10957741Y-15140618D01*
X10957741Y-15140618D02*
X10948218Y-15159666D01*
X10948218Y-15159666D02*
X10938694Y-15169190D01*
X10938694Y-15169190D02*
X10919646Y-15178714D01*
X10919646Y-15178714D02*
X10862503Y-15178714D01*
X10862503Y-15178714D02*
X10843456Y-15169190D01*
X10843456Y-15169190D02*
X10833932Y-15159666D01*
X11052979Y-15178714D02*
X11091075Y-15178714D01*
X11091075Y-15178714D02*
X11110122Y-15169190D01*
X11110122Y-15169190D02*
X11119646Y-15159666D01*
X11119646Y-15159666D02*
X11138694Y-15131095D01*
X11138694Y-15131095D02*
X11148218Y-15092999D01*
X11148218Y-15092999D02*
X11148218Y-15016809D01*
X11148218Y-15016809D02*
X11138694Y-14997761D01*
X11138694Y-14997761D02*
X11129170Y-14988238D01*
X11129170Y-14988238D02*
X11110122Y-14978714D01*
X11110122Y-14978714D02*
X11072027Y-14978714D01*
X11072027Y-14978714D02*
X11052979Y-14988238D01*
X11052979Y-14988238D02*
X11043456Y-14997761D01*
X11043456Y-14997761D02*
X11033932Y-15016809D01*
X11033932Y-15016809D02*
X11033932Y-15064428D01*
X11033932Y-15064428D02*
X11043456Y-15083476D01*
X11043456Y-15083476D02*
X11052979Y-15092999D01*
X11052979Y-15092999D02*
X11072027Y-15102523D01*
X11072027Y-15102523D02*
X11110122Y-15102523D01*
X11110122Y-15102523D02*
X11129170Y-15092999D01*
X11129170Y-15092999D02*
X11138694Y-15083476D01*
X11138694Y-15083476D02*
X11148218Y-15064428D01*
X11319646Y-15045380D02*
X11319646Y-15178714D01*
X11272027Y-14969190D02*
X11224408Y-15112047D01*
X11224408Y-15112047D02*
X11348217Y-15112047D01*
X11414884Y-14978714D02*
X11414884Y-15016809D01*
X11491075Y-14978714D02*
X11491075Y-15016809D01*
X11786313Y-15254904D02*
X11776789Y-15245380D01*
X11776789Y-15245380D02*
X11757741Y-15216809D01*
X11757741Y-15216809D02*
X11748218Y-15197761D01*
X11748218Y-15197761D02*
X11738694Y-15169190D01*
X11738694Y-15169190D02*
X11729170Y-15121571D01*
X11729170Y-15121571D02*
X11729170Y-15083476D01*
X11729170Y-15083476D02*
X11738694Y-15035857D01*
X11738694Y-15035857D02*
X11748218Y-15007285D01*
X11748218Y-15007285D02*
X11757741Y-14988238D01*
X11757741Y-14988238D02*
X11776789Y-14959666D01*
X11776789Y-14959666D02*
X11786313Y-14950142D01*
X11948218Y-15045380D02*
X11948218Y-15178714D01*
X11900598Y-14969190D02*
X11852979Y-15112047D01*
X11852979Y-15112047D02*
X11976789Y-15112047D01*
X12091075Y-14978714D02*
X12110122Y-14978714D01*
X12110122Y-14978714D02*
X12129170Y-14988238D01*
X12129170Y-14988238D02*
X12138694Y-14997761D01*
X12138694Y-14997761D02*
X12148218Y-15016809D01*
X12148218Y-15016809D02*
X12157741Y-15054904D01*
X12157741Y-15054904D02*
X12157741Y-15102523D01*
X12157741Y-15102523D02*
X12148218Y-15140618D01*
X12148218Y-15140618D02*
X12138694Y-15159666D01*
X12138694Y-15159666D02*
X12129170Y-15169190D01*
X12129170Y-15169190D02*
X12110122Y-15178714D01*
X12110122Y-15178714D02*
X12091075Y-15178714D01*
X12091075Y-15178714D02*
X12072027Y-15169190D01*
X12072027Y-15169190D02*
X12062503Y-15159666D01*
X12062503Y-15159666D02*
X12052979Y-15140618D01*
X12052979Y-15140618D02*
X12043456Y-15102523D01*
X12043456Y-15102523D02*
X12043456Y-15054904D01*
X12043456Y-15054904D02*
X12052979Y-15016809D01*
X12052979Y-15016809D02*
X12062503Y-14997761D01*
X12062503Y-14997761D02*
X12072027Y-14988238D01*
X12072027Y-14988238D02*
X12091075Y-14978714D01*
X12395837Y-15178714D02*
X12395837Y-14978714D01*
X12481551Y-15178714D02*
X12481551Y-15073952D01*
X12481551Y-15073952D02*
X12472027Y-15054904D01*
X12472027Y-15054904D02*
X12452980Y-15045380D01*
X12452980Y-15045380D02*
X12424408Y-15045380D01*
X12424408Y-15045380D02*
X12405360Y-15054904D01*
X12405360Y-15054904D02*
X12395837Y-15064428D01*
X12605360Y-15178714D02*
X12586313Y-15169190D01*
X12586313Y-15169190D02*
X12576789Y-15159666D01*
X12576789Y-15159666D02*
X12567265Y-15140618D01*
X12567265Y-15140618D02*
X12567265Y-15083476D01*
X12567265Y-15083476D02*
X12576789Y-15064428D01*
X12576789Y-15064428D02*
X12586313Y-15054904D01*
X12586313Y-15054904D02*
X12605360Y-15045380D01*
X12605360Y-15045380D02*
X12633932Y-15045380D01*
X12633932Y-15045380D02*
X12652980Y-15054904D01*
X12652980Y-15054904D02*
X12662503Y-15064428D01*
X12662503Y-15064428D02*
X12672027Y-15083476D01*
X12672027Y-15083476D02*
X12672027Y-15140618D01*
X12672027Y-15140618D02*
X12662503Y-15159666D01*
X12662503Y-15159666D02*
X12652980Y-15169190D01*
X12652980Y-15169190D02*
X12633932Y-15178714D01*
X12633932Y-15178714D02*
X12605360Y-15178714D01*
X12786313Y-15178714D02*
X12767265Y-15169190D01*
X12767265Y-15169190D02*
X12757741Y-15150142D01*
X12757741Y-15150142D02*
X12757741Y-14978714D01*
X12938694Y-15169190D02*
X12919646Y-15178714D01*
X12919646Y-15178714D02*
X12881551Y-15178714D01*
X12881551Y-15178714D02*
X12862503Y-15169190D01*
X12862503Y-15169190D02*
X12852980Y-15150142D01*
X12852980Y-15150142D02*
X12852980Y-15073952D01*
X12852980Y-15073952D02*
X12862503Y-15054904D01*
X12862503Y-15054904D02*
X12881551Y-15045380D01*
X12881551Y-15045380D02*
X12919646Y-15045380D01*
X12919646Y-15045380D02*
X12938694Y-15054904D01*
X12938694Y-15054904D02*
X12948218Y-15073952D01*
X12948218Y-15073952D02*
X12948218Y-15092999D01*
X12948218Y-15092999D02*
X12852980Y-15112047D01*
X13024408Y-15169190D02*
X13043456Y-15178714D01*
X13043456Y-15178714D02*
X13081551Y-15178714D01*
X13081551Y-15178714D02*
X13100599Y-15169190D01*
X13100599Y-15169190D02*
X13110122Y-15150142D01*
X13110122Y-15150142D02*
X13110122Y-15140618D01*
X13110122Y-15140618D02*
X13100599Y-15121571D01*
X13100599Y-15121571D02*
X13081551Y-15112047D01*
X13081551Y-15112047D02*
X13052980Y-15112047D01*
X13052980Y-15112047D02*
X13033932Y-15102523D01*
X13033932Y-15102523D02*
X13024408Y-15083476D01*
X13024408Y-15083476D02*
X13024408Y-15073952D01*
X13024408Y-15073952D02*
X13033932Y-15054904D01*
X13033932Y-15054904D02*
X13052980Y-15045380D01*
X13052980Y-15045380D02*
X13081551Y-15045380D01*
X13081551Y-15045380D02*
X13100599Y-15054904D01*
X13176789Y-15254904D02*
X13186313Y-15245380D01*
X13186313Y-15245380D02*
X13205361Y-15216809D01*
X13205361Y-15216809D02*
X13214884Y-15197761D01*
X13214884Y-15197761D02*
X13224408Y-15169190D01*
X13224408Y-15169190D02*
X13233932Y-15121571D01*
X13233932Y-15121571D02*
X13233932Y-15083476D01*
X13233932Y-15083476D02*
X13224408Y-15035857D01*
X13224408Y-15035857D02*
X13214884Y-15007285D01*
X13214884Y-15007285D02*
X13205361Y-14988238D01*
X13205361Y-14988238D02*
X13186313Y-14959666D01*
X13186313Y-14959666D02*
X13176789Y-14950142D01*
D13*
X8156250Y-15406230D02*
X8211250Y-15351230D01*
X8156250Y-15296230D01*
X8101250Y-15351230D01*
X8156250Y-15406230D01*
D11*
X8576789Y-15442714D02*
X8462503Y-15442714D01*
X8519646Y-15442714D02*
X8519646Y-15242714D01*
X8519646Y-15242714D02*
X8500598Y-15271285D01*
X8500598Y-15271285D02*
X8481551Y-15290333D01*
X8481551Y-15290333D02*
X8462503Y-15299857D01*
X8662503Y-15423666D02*
X8672027Y-15433190D01*
X8672027Y-15433190D02*
X8662503Y-15442714D01*
X8662503Y-15442714D02*
X8652979Y-15433190D01*
X8652979Y-15433190D02*
X8662503Y-15423666D01*
X8662503Y-15423666D02*
X8662503Y-15442714D01*
X8862503Y-15442714D02*
X8748217Y-15442714D01*
X8805360Y-15442714D02*
X8805360Y-15242714D01*
X8805360Y-15242714D02*
X8786313Y-15271285D01*
X8786313Y-15271285D02*
X8767265Y-15290333D01*
X8767265Y-15290333D02*
X8748217Y-15299857D01*
X8986313Y-15242714D02*
X9005360Y-15242714D01*
X9005360Y-15242714D02*
X9024408Y-15252238D01*
X9024408Y-15252238D02*
X9033932Y-15261761D01*
X9033932Y-15261761D02*
X9043455Y-15280809D01*
X9043455Y-15280809D02*
X9052979Y-15318904D01*
X9052979Y-15318904D02*
X9052979Y-15366523D01*
X9052979Y-15366523D02*
X9043455Y-15404618D01*
X9043455Y-15404618D02*
X9033932Y-15423666D01*
X9033932Y-15423666D02*
X9024408Y-15433190D01*
X9024408Y-15433190D02*
X9005360Y-15442714D01*
X9005360Y-15442714D02*
X8986313Y-15442714D01*
X8986313Y-15442714D02*
X8967265Y-15433190D01*
X8967265Y-15433190D02*
X8957741Y-15423666D01*
X8957741Y-15423666D02*
X8948217Y-15404618D01*
X8948217Y-15404618D02*
X8938694Y-15366523D01*
X8938694Y-15366523D02*
X8938694Y-15318904D01*
X8938694Y-15318904D02*
X8948217Y-15280809D01*
X8948217Y-15280809D02*
X8957741Y-15261761D01*
X8957741Y-15261761D02*
X8967265Y-15252238D01*
X8967265Y-15252238D02*
X8986313Y-15242714D01*
X9176789Y-15242714D02*
X9195836Y-15242714D01*
X9195836Y-15242714D02*
X9214884Y-15252238D01*
X9214884Y-15252238D02*
X9224408Y-15261761D01*
X9224408Y-15261761D02*
X9233932Y-15280809D01*
X9233932Y-15280809D02*
X9243455Y-15318904D01*
X9243455Y-15318904D02*
X9243455Y-15366523D01*
X9243455Y-15366523D02*
X9233932Y-15404618D01*
X9233932Y-15404618D02*
X9224408Y-15423666D01*
X9224408Y-15423666D02*
X9214884Y-15433190D01*
X9214884Y-15433190D02*
X9195836Y-15442714D01*
X9195836Y-15442714D02*
X9176789Y-15442714D01*
X9176789Y-15442714D02*
X9157741Y-15433190D01*
X9157741Y-15433190D02*
X9148217Y-15423666D01*
X9148217Y-15423666D02*
X9138694Y-15404618D01*
X9138694Y-15404618D02*
X9129170Y-15366523D01*
X9129170Y-15366523D02*
X9129170Y-15318904D01*
X9129170Y-15318904D02*
X9138694Y-15280809D01*
X9138694Y-15280809D02*
X9148217Y-15261761D01*
X9148217Y-15261761D02*
X9157741Y-15252238D01*
X9157741Y-15252238D02*
X9176789Y-15242714D01*
X9329170Y-15442714D02*
X9329170Y-15309380D01*
X9329170Y-15328428D02*
X9338694Y-15318904D01*
X9338694Y-15318904D02*
X9357741Y-15309380D01*
X9357741Y-15309380D02*
X9386313Y-15309380D01*
X9386313Y-15309380D02*
X9405360Y-15318904D01*
X9405360Y-15318904D02*
X9414884Y-15337952D01*
X9414884Y-15337952D02*
X9414884Y-15442714D01*
X9414884Y-15337952D02*
X9424408Y-15318904D01*
X9424408Y-15318904D02*
X9443455Y-15309380D01*
X9443455Y-15309380D02*
X9472027Y-15309380D01*
X9472027Y-15309380D02*
X9491075Y-15318904D01*
X9491075Y-15318904D02*
X9500598Y-15337952D01*
X9500598Y-15337952D02*
X9500598Y-15442714D01*
X9595836Y-15442714D02*
X9595836Y-15309380D01*
X9595836Y-15328428D02*
X9605360Y-15318904D01*
X9605360Y-15318904D02*
X9624408Y-15309380D01*
X9624408Y-15309380D02*
X9652979Y-15309380D01*
X9652979Y-15309380D02*
X9672027Y-15318904D01*
X9672027Y-15318904D02*
X9681551Y-15337952D01*
X9681551Y-15337952D02*
X9681551Y-15442714D01*
X9681551Y-15337952D02*
X9691075Y-15318904D01*
X9691075Y-15318904D02*
X9710122Y-15309380D01*
X9710122Y-15309380D02*
X9738694Y-15309380D01*
X9738694Y-15309380D02*
X9757741Y-15318904D01*
X9757741Y-15318904D02*
X9767265Y-15337952D01*
X9767265Y-15337952D02*
X9767265Y-15442714D01*
X10157741Y-15233190D02*
X9986313Y-15490333D01*
X10414884Y-15242714D02*
X10433932Y-15242714D01*
X10433932Y-15242714D02*
X10452979Y-15252238D01*
X10452979Y-15252238D02*
X10462503Y-15261761D01*
X10462503Y-15261761D02*
X10472027Y-15280809D01*
X10472027Y-15280809D02*
X10481551Y-15318904D01*
X10481551Y-15318904D02*
X10481551Y-15366523D01*
X10481551Y-15366523D02*
X10472027Y-15404618D01*
X10472027Y-15404618D02*
X10462503Y-15423666D01*
X10462503Y-15423666D02*
X10452979Y-15433190D01*
X10452979Y-15433190D02*
X10433932Y-15442714D01*
X10433932Y-15442714D02*
X10414884Y-15442714D01*
X10414884Y-15442714D02*
X10395837Y-15433190D01*
X10395837Y-15433190D02*
X10386313Y-15423666D01*
X10386313Y-15423666D02*
X10376789Y-15404618D01*
X10376789Y-15404618D02*
X10367265Y-15366523D01*
X10367265Y-15366523D02*
X10367265Y-15318904D01*
X10367265Y-15318904D02*
X10376789Y-15280809D01*
X10376789Y-15280809D02*
X10386313Y-15261761D01*
X10386313Y-15261761D02*
X10395837Y-15252238D01*
X10395837Y-15252238D02*
X10414884Y-15242714D01*
X10567265Y-15423666D02*
X10576789Y-15433190D01*
X10576789Y-15433190D02*
X10567265Y-15442714D01*
X10567265Y-15442714D02*
X10557741Y-15433190D01*
X10557741Y-15433190D02*
X10567265Y-15423666D01*
X10567265Y-15423666D02*
X10567265Y-15442714D01*
X10700598Y-15242714D02*
X10719646Y-15242714D01*
X10719646Y-15242714D02*
X10738694Y-15252238D01*
X10738694Y-15252238D02*
X10748218Y-15261761D01*
X10748218Y-15261761D02*
X10757741Y-15280809D01*
X10757741Y-15280809D02*
X10767265Y-15318904D01*
X10767265Y-15318904D02*
X10767265Y-15366523D01*
X10767265Y-15366523D02*
X10757741Y-15404618D01*
X10757741Y-15404618D02*
X10748218Y-15423666D01*
X10748218Y-15423666D02*
X10738694Y-15433190D01*
X10738694Y-15433190D02*
X10719646Y-15442714D01*
X10719646Y-15442714D02*
X10700598Y-15442714D01*
X10700598Y-15442714D02*
X10681551Y-15433190D01*
X10681551Y-15433190D02*
X10672027Y-15423666D01*
X10672027Y-15423666D02*
X10662503Y-15404618D01*
X10662503Y-15404618D02*
X10652979Y-15366523D01*
X10652979Y-15366523D02*
X10652979Y-15318904D01*
X10652979Y-15318904D02*
X10662503Y-15280809D01*
X10662503Y-15280809D02*
X10672027Y-15261761D01*
X10672027Y-15261761D02*
X10681551Y-15252238D01*
X10681551Y-15252238D02*
X10700598Y-15242714D01*
X10938694Y-15309380D02*
X10938694Y-15442714D01*
X10891075Y-15233190D02*
X10843456Y-15376047D01*
X10843456Y-15376047D02*
X10967265Y-15376047D01*
X11024408Y-15242714D02*
X11148218Y-15242714D01*
X11148218Y-15242714D02*
X11081551Y-15318904D01*
X11081551Y-15318904D02*
X11110122Y-15318904D01*
X11110122Y-15318904D02*
X11129170Y-15328428D01*
X11129170Y-15328428D02*
X11138694Y-15337952D01*
X11138694Y-15337952D02*
X11148218Y-15356999D01*
X11148218Y-15356999D02*
X11148218Y-15404618D01*
X11148218Y-15404618D02*
X11138694Y-15423666D01*
X11138694Y-15423666D02*
X11129170Y-15433190D01*
X11129170Y-15433190D02*
X11110122Y-15442714D01*
X11110122Y-15442714D02*
X11052979Y-15442714D01*
X11052979Y-15442714D02*
X11033932Y-15433190D01*
X11033932Y-15433190D02*
X11024408Y-15423666D01*
X11214884Y-15242714D02*
X11338694Y-15242714D01*
X11338694Y-15242714D02*
X11272027Y-15318904D01*
X11272027Y-15318904D02*
X11300598Y-15318904D01*
X11300598Y-15318904D02*
X11319646Y-15328428D01*
X11319646Y-15328428D02*
X11329170Y-15337952D01*
X11329170Y-15337952D02*
X11338694Y-15356999D01*
X11338694Y-15356999D02*
X11338694Y-15404618D01*
X11338694Y-15404618D02*
X11329170Y-15423666D01*
X11329170Y-15423666D02*
X11319646Y-15433190D01*
X11319646Y-15433190D02*
X11300598Y-15442714D01*
X11300598Y-15442714D02*
X11243456Y-15442714D01*
X11243456Y-15442714D02*
X11224408Y-15433190D01*
X11224408Y-15433190D02*
X11214884Y-15423666D01*
X11414884Y-15242714D02*
X11414884Y-15280809D01*
X11491075Y-15242714D02*
X11491075Y-15280809D01*
X11786313Y-15518904D02*
X11776789Y-15509380D01*
X11776789Y-15509380D02*
X11757741Y-15480809D01*
X11757741Y-15480809D02*
X11748218Y-15461761D01*
X11748218Y-15461761D02*
X11738694Y-15433190D01*
X11738694Y-15433190D02*
X11729170Y-15385571D01*
X11729170Y-15385571D02*
X11729170Y-15347476D01*
X11729170Y-15347476D02*
X11738694Y-15299857D01*
X11738694Y-15299857D02*
X11748218Y-15271285D01*
X11748218Y-15271285D02*
X11757741Y-15252238D01*
X11757741Y-15252238D02*
X11776789Y-15223666D01*
X11776789Y-15223666D02*
X11786313Y-15214142D01*
X11843456Y-15242714D02*
X11967265Y-15242714D01*
X11967265Y-15242714D02*
X11900598Y-15318904D01*
X11900598Y-15318904D02*
X11929170Y-15318904D01*
X11929170Y-15318904D02*
X11948218Y-15328428D01*
X11948218Y-15328428D02*
X11957741Y-15337952D01*
X11957741Y-15337952D02*
X11967265Y-15356999D01*
X11967265Y-15356999D02*
X11967265Y-15404618D01*
X11967265Y-15404618D02*
X11957741Y-15423666D01*
X11957741Y-15423666D02*
X11948218Y-15433190D01*
X11948218Y-15433190D02*
X11929170Y-15442714D01*
X11929170Y-15442714D02*
X11872027Y-15442714D01*
X11872027Y-15442714D02*
X11852979Y-15433190D01*
X11852979Y-15433190D02*
X11843456Y-15423666D01*
X12205360Y-15442714D02*
X12205360Y-15242714D01*
X12291075Y-15442714D02*
X12291075Y-15337952D01*
X12291075Y-15337952D02*
X12281551Y-15318904D01*
X12281551Y-15318904D02*
X12262503Y-15309380D01*
X12262503Y-15309380D02*
X12233932Y-15309380D01*
X12233932Y-15309380D02*
X12214884Y-15318904D01*
X12214884Y-15318904D02*
X12205360Y-15328428D01*
X12414884Y-15442714D02*
X12395837Y-15433190D01*
X12395837Y-15433190D02*
X12386313Y-15423666D01*
X12386313Y-15423666D02*
X12376789Y-15404618D01*
X12376789Y-15404618D02*
X12376789Y-15347476D01*
X12376789Y-15347476D02*
X12386313Y-15328428D01*
X12386313Y-15328428D02*
X12395837Y-15318904D01*
X12395837Y-15318904D02*
X12414884Y-15309380D01*
X12414884Y-15309380D02*
X12443456Y-15309380D01*
X12443456Y-15309380D02*
X12462503Y-15318904D01*
X12462503Y-15318904D02*
X12472027Y-15328428D01*
X12472027Y-15328428D02*
X12481551Y-15347476D01*
X12481551Y-15347476D02*
X12481551Y-15404618D01*
X12481551Y-15404618D02*
X12472027Y-15423666D01*
X12472027Y-15423666D02*
X12462503Y-15433190D01*
X12462503Y-15433190D02*
X12443456Y-15442714D01*
X12443456Y-15442714D02*
X12414884Y-15442714D01*
X12595837Y-15442714D02*
X12576789Y-15433190D01*
X12576789Y-15433190D02*
X12567265Y-15414142D01*
X12567265Y-15414142D02*
X12567265Y-15242714D01*
X12748218Y-15433190D02*
X12729170Y-15442714D01*
X12729170Y-15442714D02*
X12691075Y-15442714D01*
X12691075Y-15442714D02*
X12672027Y-15433190D01*
X12672027Y-15433190D02*
X12662503Y-15414142D01*
X12662503Y-15414142D02*
X12662503Y-15337952D01*
X12662503Y-15337952D02*
X12672027Y-15318904D01*
X12672027Y-15318904D02*
X12691075Y-15309380D01*
X12691075Y-15309380D02*
X12729170Y-15309380D01*
X12729170Y-15309380D02*
X12748218Y-15318904D01*
X12748218Y-15318904D02*
X12757741Y-15337952D01*
X12757741Y-15337952D02*
X12757741Y-15356999D01*
X12757741Y-15356999D02*
X12662503Y-15376047D01*
X12833932Y-15433190D02*
X12852980Y-15442714D01*
X12852980Y-15442714D02*
X12891075Y-15442714D01*
X12891075Y-15442714D02*
X12910122Y-15433190D01*
X12910122Y-15433190D02*
X12919646Y-15414142D01*
X12919646Y-15414142D02*
X12919646Y-15404618D01*
X12919646Y-15404618D02*
X12910122Y-15385571D01*
X12910122Y-15385571D02*
X12891075Y-15376047D01*
X12891075Y-15376047D02*
X12862503Y-15376047D01*
X12862503Y-15376047D02*
X12843456Y-15366523D01*
X12843456Y-15366523D02*
X12833932Y-15347476D01*
X12833932Y-15347476D02*
X12833932Y-15337952D01*
X12833932Y-15337952D02*
X12843456Y-15318904D01*
X12843456Y-15318904D02*
X12862503Y-15309380D01*
X12862503Y-15309380D02*
X12891075Y-15309380D01*
X12891075Y-15309380D02*
X12910122Y-15318904D01*
X12986313Y-15518904D02*
X12995837Y-15509380D01*
X12995837Y-15509380D02*
X13014884Y-15480809D01*
X13014884Y-15480809D02*
X13024408Y-15461761D01*
X13024408Y-15461761D02*
X13033932Y-15433190D01*
X13033932Y-15433190D02*
X13043456Y-15385571D01*
X13043456Y-15385571D02*
X13043456Y-15347476D01*
X13043456Y-15347476D02*
X13033932Y-15299857D01*
X13033932Y-15299857D02*
X13024408Y-15271285D01*
X13024408Y-15271285D02*
X13014884Y-15252238D01*
X13014884Y-15252238D02*
X12995837Y-15223666D01*
X12995837Y-15223666D02*
X12986313Y-15214142D01*
D14*
X8084250Y-15551730D02*
X8211250Y-15678730D01*
X8211250Y-15551730D02*
X8084250Y-15678730D01*
X8211250Y-15615230D02*
G75*
G02*
X8084250Y-15615230I-63500J0D01*
G01*
X8084250Y-15615230D02*
G75*
G02*
X8211250Y-15615230I63500J0D01*
G01*
D11*
X8576789Y-15706714D02*
X8462503Y-15706714D01*
X8519646Y-15706714D02*
X8519646Y-15506714D01*
X8519646Y-15506714D02*
X8500598Y-15535285D01*
X8500598Y-15535285D02*
X8481551Y-15554333D01*
X8481551Y-15554333D02*
X8462503Y-15563857D01*
X8662503Y-15687666D02*
X8672027Y-15697190D01*
X8672027Y-15697190D02*
X8662503Y-15706714D01*
X8662503Y-15706714D02*
X8652979Y-15697190D01*
X8652979Y-15697190D02*
X8662503Y-15687666D01*
X8662503Y-15687666D02*
X8662503Y-15706714D01*
X8748217Y-15525761D02*
X8757741Y-15516238D01*
X8757741Y-15516238D02*
X8776789Y-15506714D01*
X8776789Y-15506714D02*
X8824408Y-15506714D01*
X8824408Y-15506714D02*
X8843455Y-15516238D01*
X8843455Y-15516238D02*
X8852979Y-15525761D01*
X8852979Y-15525761D02*
X8862503Y-15544809D01*
X8862503Y-15544809D02*
X8862503Y-15563857D01*
X8862503Y-15563857D02*
X8852979Y-15592428D01*
X8852979Y-15592428D02*
X8738694Y-15706714D01*
X8738694Y-15706714D02*
X8862503Y-15706714D01*
X8929170Y-15506714D02*
X9062503Y-15506714D01*
X9062503Y-15506714D02*
X8976789Y-15706714D01*
X9176789Y-15506714D02*
X9195836Y-15506714D01*
X9195836Y-15506714D02*
X9214884Y-15516238D01*
X9214884Y-15516238D02*
X9224408Y-15525761D01*
X9224408Y-15525761D02*
X9233932Y-15544809D01*
X9233932Y-15544809D02*
X9243455Y-15582904D01*
X9243455Y-15582904D02*
X9243455Y-15630523D01*
X9243455Y-15630523D02*
X9233932Y-15668618D01*
X9233932Y-15668618D02*
X9224408Y-15687666D01*
X9224408Y-15687666D02*
X9214884Y-15697190D01*
X9214884Y-15697190D02*
X9195836Y-15706714D01*
X9195836Y-15706714D02*
X9176789Y-15706714D01*
X9176789Y-15706714D02*
X9157741Y-15697190D01*
X9157741Y-15697190D02*
X9148217Y-15687666D01*
X9148217Y-15687666D02*
X9138694Y-15668618D01*
X9138694Y-15668618D02*
X9129170Y-15630523D01*
X9129170Y-15630523D02*
X9129170Y-15582904D01*
X9129170Y-15582904D02*
X9138694Y-15544809D01*
X9138694Y-15544809D02*
X9148217Y-15525761D01*
X9148217Y-15525761D02*
X9157741Y-15516238D01*
X9157741Y-15516238D02*
X9176789Y-15506714D01*
X9329170Y-15706714D02*
X9329170Y-15573380D01*
X9329170Y-15592428D02*
X9338694Y-15582904D01*
X9338694Y-15582904D02*
X9357741Y-15573380D01*
X9357741Y-15573380D02*
X9386313Y-15573380D01*
X9386313Y-15573380D02*
X9405360Y-15582904D01*
X9405360Y-15582904D02*
X9414884Y-15601952D01*
X9414884Y-15601952D02*
X9414884Y-15706714D01*
X9414884Y-15601952D02*
X9424408Y-15582904D01*
X9424408Y-15582904D02*
X9443455Y-15573380D01*
X9443455Y-15573380D02*
X9472027Y-15573380D01*
X9472027Y-15573380D02*
X9491075Y-15582904D01*
X9491075Y-15582904D02*
X9500598Y-15601952D01*
X9500598Y-15601952D02*
X9500598Y-15706714D01*
X9595836Y-15706714D02*
X9595836Y-15573380D01*
X9595836Y-15592428D02*
X9605360Y-15582904D01*
X9605360Y-15582904D02*
X9624408Y-15573380D01*
X9624408Y-15573380D02*
X9652979Y-15573380D01*
X9652979Y-15573380D02*
X9672027Y-15582904D01*
X9672027Y-15582904D02*
X9681551Y-15601952D01*
X9681551Y-15601952D02*
X9681551Y-15706714D01*
X9681551Y-15601952D02*
X9691075Y-15582904D01*
X9691075Y-15582904D02*
X9710122Y-15573380D01*
X9710122Y-15573380D02*
X9738694Y-15573380D01*
X9738694Y-15573380D02*
X9757741Y-15582904D01*
X9757741Y-15582904D02*
X9767265Y-15601952D01*
X9767265Y-15601952D02*
X9767265Y-15706714D01*
X10157741Y-15497190D02*
X9986313Y-15754333D01*
X10414884Y-15506714D02*
X10433932Y-15506714D01*
X10433932Y-15506714D02*
X10452979Y-15516238D01*
X10452979Y-15516238D02*
X10462503Y-15525761D01*
X10462503Y-15525761D02*
X10472027Y-15544809D01*
X10472027Y-15544809D02*
X10481551Y-15582904D01*
X10481551Y-15582904D02*
X10481551Y-15630523D01*
X10481551Y-15630523D02*
X10472027Y-15668618D01*
X10472027Y-15668618D02*
X10462503Y-15687666D01*
X10462503Y-15687666D02*
X10452979Y-15697190D01*
X10452979Y-15697190D02*
X10433932Y-15706714D01*
X10433932Y-15706714D02*
X10414884Y-15706714D01*
X10414884Y-15706714D02*
X10395837Y-15697190D01*
X10395837Y-15697190D02*
X10386313Y-15687666D01*
X10386313Y-15687666D02*
X10376789Y-15668618D01*
X10376789Y-15668618D02*
X10367265Y-15630523D01*
X10367265Y-15630523D02*
X10367265Y-15582904D01*
X10367265Y-15582904D02*
X10376789Y-15544809D01*
X10376789Y-15544809D02*
X10386313Y-15525761D01*
X10386313Y-15525761D02*
X10395837Y-15516238D01*
X10395837Y-15516238D02*
X10414884Y-15506714D01*
X10567265Y-15687666D02*
X10576789Y-15697190D01*
X10576789Y-15697190D02*
X10567265Y-15706714D01*
X10567265Y-15706714D02*
X10557741Y-15697190D01*
X10557741Y-15697190D02*
X10567265Y-15687666D01*
X10567265Y-15687666D02*
X10567265Y-15706714D01*
X10700598Y-15506714D02*
X10719646Y-15506714D01*
X10719646Y-15506714D02*
X10738694Y-15516238D01*
X10738694Y-15516238D02*
X10748218Y-15525761D01*
X10748218Y-15525761D02*
X10757741Y-15544809D01*
X10757741Y-15544809D02*
X10767265Y-15582904D01*
X10767265Y-15582904D02*
X10767265Y-15630523D01*
X10767265Y-15630523D02*
X10757741Y-15668618D01*
X10757741Y-15668618D02*
X10748218Y-15687666D01*
X10748218Y-15687666D02*
X10738694Y-15697190D01*
X10738694Y-15697190D02*
X10719646Y-15706714D01*
X10719646Y-15706714D02*
X10700598Y-15706714D01*
X10700598Y-15706714D02*
X10681551Y-15697190D01*
X10681551Y-15697190D02*
X10672027Y-15687666D01*
X10672027Y-15687666D02*
X10662503Y-15668618D01*
X10662503Y-15668618D02*
X10652979Y-15630523D01*
X10652979Y-15630523D02*
X10652979Y-15582904D01*
X10652979Y-15582904D02*
X10662503Y-15544809D01*
X10662503Y-15544809D02*
X10672027Y-15525761D01*
X10672027Y-15525761D02*
X10681551Y-15516238D01*
X10681551Y-15516238D02*
X10700598Y-15506714D01*
X10948218Y-15506714D02*
X10852979Y-15506714D01*
X10852979Y-15506714D02*
X10843456Y-15601952D01*
X10843456Y-15601952D02*
X10852979Y-15592428D01*
X10852979Y-15592428D02*
X10872027Y-15582904D01*
X10872027Y-15582904D02*
X10919646Y-15582904D01*
X10919646Y-15582904D02*
X10938694Y-15592428D01*
X10938694Y-15592428D02*
X10948218Y-15601952D01*
X10948218Y-15601952D02*
X10957741Y-15620999D01*
X10957741Y-15620999D02*
X10957741Y-15668618D01*
X10957741Y-15668618D02*
X10948218Y-15687666D01*
X10948218Y-15687666D02*
X10938694Y-15697190D01*
X10938694Y-15697190D02*
X10919646Y-15706714D01*
X10919646Y-15706714D02*
X10872027Y-15706714D01*
X10872027Y-15706714D02*
X10852979Y-15697190D01*
X10852979Y-15697190D02*
X10843456Y-15687666D01*
X11081551Y-15506714D02*
X11100599Y-15506714D01*
X11100599Y-15506714D02*
X11119646Y-15516238D01*
X11119646Y-15516238D02*
X11129170Y-15525761D01*
X11129170Y-15525761D02*
X11138694Y-15544809D01*
X11138694Y-15544809D02*
X11148218Y-15582904D01*
X11148218Y-15582904D02*
X11148218Y-15630523D01*
X11148218Y-15630523D02*
X11138694Y-15668618D01*
X11138694Y-15668618D02*
X11129170Y-15687666D01*
X11129170Y-15687666D02*
X11119646Y-15697190D01*
X11119646Y-15697190D02*
X11100599Y-15706714D01*
X11100599Y-15706714D02*
X11081551Y-15706714D01*
X11081551Y-15706714D02*
X11062503Y-15697190D01*
X11062503Y-15697190D02*
X11052979Y-15687666D01*
X11052979Y-15687666D02*
X11043456Y-15668618D01*
X11043456Y-15668618D02*
X11033932Y-15630523D01*
X11033932Y-15630523D02*
X11033932Y-15582904D01*
X11033932Y-15582904D02*
X11043456Y-15544809D01*
X11043456Y-15544809D02*
X11052979Y-15525761D01*
X11052979Y-15525761D02*
X11062503Y-15516238D01*
X11062503Y-15516238D02*
X11081551Y-15506714D01*
X11272027Y-15506714D02*
X11291075Y-15506714D01*
X11291075Y-15506714D02*
X11310122Y-15516238D01*
X11310122Y-15516238D02*
X11319646Y-15525761D01*
X11319646Y-15525761D02*
X11329170Y-15544809D01*
X11329170Y-15544809D02*
X11338694Y-15582904D01*
X11338694Y-15582904D02*
X11338694Y-15630523D01*
X11338694Y-15630523D02*
X11329170Y-15668618D01*
X11329170Y-15668618D02*
X11319646Y-15687666D01*
X11319646Y-15687666D02*
X11310122Y-15697190D01*
X11310122Y-15697190D02*
X11291075Y-15706714D01*
X11291075Y-15706714D02*
X11272027Y-15706714D01*
X11272027Y-15706714D02*
X11252979Y-15697190D01*
X11252979Y-15697190D02*
X11243456Y-15687666D01*
X11243456Y-15687666D02*
X11233932Y-15668618D01*
X11233932Y-15668618D02*
X11224408Y-15630523D01*
X11224408Y-15630523D02*
X11224408Y-15582904D01*
X11224408Y-15582904D02*
X11233932Y-15544809D01*
X11233932Y-15544809D02*
X11243456Y-15525761D01*
X11243456Y-15525761D02*
X11252979Y-15516238D01*
X11252979Y-15516238D02*
X11272027Y-15506714D01*
X11414884Y-15506714D02*
X11414884Y-15544809D01*
X11491075Y-15506714D02*
X11491075Y-15544809D01*
X11786313Y-15782904D02*
X11776789Y-15773380D01*
X11776789Y-15773380D02*
X11757741Y-15744809D01*
X11757741Y-15744809D02*
X11748218Y-15725761D01*
X11748218Y-15725761D02*
X11738694Y-15697190D01*
X11738694Y-15697190D02*
X11729170Y-15649571D01*
X11729170Y-15649571D02*
X11729170Y-15611476D01*
X11729170Y-15611476D02*
X11738694Y-15563857D01*
X11738694Y-15563857D02*
X11748218Y-15535285D01*
X11748218Y-15535285D02*
X11757741Y-15516238D01*
X11757741Y-15516238D02*
X11776789Y-15487666D01*
X11776789Y-15487666D02*
X11786313Y-15478142D01*
X11891075Y-15592428D02*
X11872027Y-15582904D01*
X11872027Y-15582904D02*
X11862503Y-15573380D01*
X11862503Y-15573380D02*
X11852979Y-15554333D01*
X11852979Y-15554333D02*
X11852979Y-15544809D01*
X11852979Y-15544809D02*
X11862503Y-15525761D01*
X11862503Y-15525761D02*
X11872027Y-15516238D01*
X11872027Y-15516238D02*
X11891075Y-15506714D01*
X11891075Y-15506714D02*
X11929170Y-15506714D01*
X11929170Y-15506714D02*
X11948218Y-15516238D01*
X11948218Y-15516238D02*
X11957741Y-15525761D01*
X11957741Y-15525761D02*
X11967265Y-15544809D01*
X11967265Y-15544809D02*
X11967265Y-15554333D01*
X11967265Y-15554333D02*
X11957741Y-15573380D01*
X11957741Y-15573380D02*
X11948218Y-15582904D01*
X11948218Y-15582904D02*
X11929170Y-15592428D01*
X11929170Y-15592428D02*
X11891075Y-15592428D01*
X11891075Y-15592428D02*
X11872027Y-15601952D01*
X11872027Y-15601952D02*
X11862503Y-15611476D01*
X11862503Y-15611476D02*
X11852979Y-15630523D01*
X11852979Y-15630523D02*
X11852979Y-15668618D01*
X11852979Y-15668618D02*
X11862503Y-15687666D01*
X11862503Y-15687666D02*
X11872027Y-15697190D01*
X11872027Y-15697190D02*
X11891075Y-15706714D01*
X11891075Y-15706714D02*
X11929170Y-15706714D01*
X11929170Y-15706714D02*
X11948218Y-15697190D01*
X11948218Y-15697190D02*
X11957741Y-15687666D01*
X11957741Y-15687666D02*
X11967265Y-15668618D01*
X11967265Y-15668618D02*
X11967265Y-15630523D01*
X11967265Y-15630523D02*
X11957741Y-15611476D01*
X11957741Y-15611476D02*
X11948218Y-15601952D01*
X11948218Y-15601952D02*
X11929170Y-15592428D01*
X12205360Y-15706714D02*
X12205360Y-15506714D01*
X12291075Y-15706714D02*
X12291075Y-15601952D01*
X12291075Y-15601952D02*
X12281551Y-15582904D01*
X12281551Y-15582904D02*
X12262503Y-15573380D01*
X12262503Y-15573380D02*
X12233932Y-15573380D01*
X12233932Y-15573380D02*
X12214884Y-15582904D01*
X12214884Y-15582904D02*
X12205360Y-15592428D01*
X12414884Y-15706714D02*
X12395837Y-15697190D01*
X12395837Y-15697190D02*
X12386313Y-15687666D01*
X12386313Y-15687666D02*
X12376789Y-15668618D01*
X12376789Y-15668618D02*
X12376789Y-15611476D01*
X12376789Y-15611476D02*
X12386313Y-15592428D01*
X12386313Y-15592428D02*
X12395837Y-15582904D01*
X12395837Y-15582904D02*
X12414884Y-15573380D01*
X12414884Y-15573380D02*
X12443456Y-15573380D01*
X12443456Y-15573380D02*
X12462503Y-15582904D01*
X12462503Y-15582904D02*
X12472027Y-15592428D01*
X12472027Y-15592428D02*
X12481551Y-15611476D01*
X12481551Y-15611476D02*
X12481551Y-15668618D01*
X12481551Y-15668618D02*
X12472027Y-15687666D01*
X12472027Y-15687666D02*
X12462503Y-15697190D01*
X12462503Y-15697190D02*
X12443456Y-15706714D01*
X12443456Y-15706714D02*
X12414884Y-15706714D01*
X12595837Y-15706714D02*
X12576789Y-15697190D01*
X12576789Y-15697190D02*
X12567265Y-15678142D01*
X12567265Y-15678142D02*
X12567265Y-15506714D01*
X12748218Y-15697190D02*
X12729170Y-15706714D01*
X12729170Y-15706714D02*
X12691075Y-15706714D01*
X12691075Y-15706714D02*
X12672027Y-15697190D01*
X12672027Y-15697190D02*
X12662503Y-15678142D01*
X12662503Y-15678142D02*
X12662503Y-15601952D01*
X12662503Y-15601952D02*
X12672027Y-15582904D01*
X12672027Y-15582904D02*
X12691075Y-15573380D01*
X12691075Y-15573380D02*
X12729170Y-15573380D01*
X12729170Y-15573380D02*
X12748218Y-15582904D01*
X12748218Y-15582904D02*
X12757741Y-15601952D01*
X12757741Y-15601952D02*
X12757741Y-15620999D01*
X12757741Y-15620999D02*
X12662503Y-15640047D01*
X12833932Y-15697190D02*
X12852980Y-15706714D01*
X12852980Y-15706714D02*
X12891075Y-15706714D01*
X12891075Y-15706714D02*
X12910122Y-15697190D01*
X12910122Y-15697190D02*
X12919646Y-15678142D01*
X12919646Y-15678142D02*
X12919646Y-15668618D01*
X12919646Y-15668618D02*
X12910122Y-15649571D01*
X12910122Y-15649571D02*
X12891075Y-15640047D01*
X12891075Y-15640047D02*
X12862503Y-15640047D01*
X12862503Y-15640047D02*
X12843456Y-15630523D01*
X12843456Y-15630523D02*
X12833932Y-15611476D01*
X12833932Y-15611476D02*
X12833932Y-15601952D01*
X12833932Y-15601952D02*
X12843456Y-15582904D01*
X12843456Y-15582904D02*
X12862503Y-15573380D01*
X12862503Y-15573380D02*
X12891075Y-15573380D01*
X12891075Y-15573380D02*
X12910122Y-15582904D01*
X12986313Y-15782904D02*
X12995837Y-15773380D01*
X12995837Y-15773380D02*
X13014884Y-15744809D01*
X13014884Y-15744809D02*
X13024408Y-15725761D01*
X13024408Y-15725761D02*
X13033932Y-15697190D01*
X13033932Y-15697190D02*
X13043456Y-15649571D01*
X13043456Y-15649571D02*
X13043456Y-15611476D01*
X13043456Y-15611476D02*
X13033932Y-15563857D01*
X13033932Y-15563857D02*
X13024408Y-15535285D01*
X13024408Y-15535285D02*
X13014884Y-15516238D01*
X13014884Y-15516238D02*
X12995837Y-15487666D01*
X12995837Y-15487666D02*
X12986313Y-15478142D01*
D15*
X8081250Y-15814230D02*
X8211250Y-15944230D01*
X8211250Y-15814230D02*
X8081250Y-15944230D01*
X8146250Y-15814230D02*
X8146250Y-15944230D01*
X8081250Y-15879230D02*
X8211250Y-15879230D01*
D11*
X8576789Y-15970714D02*
X8462503Y-15970714D01*
X8519646Y-15970714D02*
X8519646Y-15770714D01*
X8519646Y-15770714D02*
X8500598Y-15799285D01*
X8500598Y-15799285D02*
X8481551Y-15818333D01*
X8481551Y-15818333D02*
X8462503Y-15827857D01*
X8662503Y-15951666D02*
X8672027Y-15961190D01*
X8672027Y-15961190D02*
X8662503Y-15970714D01*
X8662503Y-15970714D02*
X8652979Y-15961190D01*
X8652979Y-15961190D02*
X8662503Y-15951666D01*
X8662503Y-15951666D02*
X8662503Y-15970714D01*
X8738694Y-15770714D02*
X8862503Y-15770714D01*
X8862503Y-15770714D02*
X8795836Y-15846904D01*
X8795836Y-15846904D02*
X8824408Y-15846904D01*
X8824408Y-15846904D02*
X8843455Y-15856428D01*
X8843455Y-15856428D02*
X8852979Y-15865952D01*
X8852979Y-15865952D02*
X8862503Y-15884999D01*
X8862503Y-15884999D02*
X8862503Y-15932618D01*
X8862503Y-15932618D02*
X8852979Y-15951666D01*
X8852979Y-15951666D02*
X8843455Y-15961190D01*
X8843455Y-15961190D02*
X8824408Y-15970714D01*
X8824408Y-15970714D02*
X8767265Y-15970714D01*
X8767265Y-15970714D02*
X8748217Y-15961190D01*
X8748217Y-15961190D02*
X8738694Y-15951666D01*
X8986313Y-15770714D02*
X9005360Y-15770714D01*
X9005360Y-15770714D02*
X9024408Y-15780238D01*
X9024408Y-15780238D02*
X9033932Y-15789761D01*
X9033932Y-15789761D02*
X9043455Y-15808809D01*
X9043455Y-15808809D02*
X9052979Y-15846904D01*
X9052979Y-15846904D02*
X9052979Y-15894523D01*
X9052979Y-15894523D02*
X9043455Y-15932618D01*
X9043455Y-15932618D02*
X9033932Y-15951666D01*
X9033932Y-15951666D02*
X9024408Y-15961190D01*
X9024408Y-15961190D02*
X9005360Y-15970714D01*
X9005360Y-15970714D02*
X8986313Y-15970714D01*
X8986313Y-15970714D02*
X8967265Y-15961190D01*
X8967265Y-15961190D02*
X8957741Y-15951666D01*
X8957741Y-15951666D02*
X8948217Y-15932618D01*
X8948217Y-15932618D02*
X8938694Y-15894523D01*
X8938694Y-15894523D02*
X8938694Y-15846904D01*
X8938694Y-15846904D02*
X8948217Y-15808809D01*
X8948217Y-15808809D02*
X8957741Y-15789761D01*
X8957741Y-15789761D02*
X8967265Y-15780238D01*
X8967265Y-15780238D02*
X8986313Y-15770714D01*
X9176789Y-15770714D02*
X9195836Y-15770714D01*
X9195836Y-15770714D02*
X9214884Y-15780238D01*
X9214884Y-15780238D02*
X9224408Y-15789761D01*
X9224408Y-15789761D02*
X9233932Y-15808809D01*
X9233932Y-15808809D02*
X9243455Y-15846904D01*
X9243455Y-15846904D02*
X9243455Y-15894523D01*
X9243455Y-15894523D02*
X9233932Y-15932618D01*
X9233932Y-15932618D02*
X9224408Y-15951666D01*
X9224408Y-15951666D02*
X9214884Y-15961190D01*
X9214884Y-15961190D02*
X9195836Y-15970714D01*
X9195836Y-15970714D02*
X9176789Y-15970714D01*
X9176789Y-15970714D02*
X9157741Y-15961190D01*
X9157741Y-15961190D02*
X9148217Y-15951666D01*
X9148217Y-15951666D02*
X9138694Y-15932618D01*
X9138694Y-15932618D02*
X9129170Y-15894523D01*
X9129170Y-15894523D02*
X9129170Y-15846904D01*
X9129170Y-15846904D02*
X9138694Y-15808809D01*
X9138694Y-15808809D02*
X9148217Y-15789761D01*
X9148217Y-15789761D02*
X9157741Y-15780238D01*
X9157741Y-15780238D02*
X9176789Y-15770714D01*
X9329170Y-15970714D02*
X9329170Y-15837380D01*
X9329170Y-15856428D02*
X9338694Y-15846904D01*
X9338694Y-15846904D02*
X9357741Y-15837380D01*
X9357741Y-15837380D02*
X9386313Y-15837380D01*
X9386313Y-15837380D02*
X9405360Y-15846904D01*
X9405360Y-15846904D02*
X9414884Y-15865952D01*
X9414884Y-15865952D02*
X9414884Y-15970714D01*
X9414884Y-15865952D02*
X9424408Y-15846904D01*
X9424408Y-15846904D02*
X9443455Y-15837380D01*
X9443455Y-15837380D02*
X9472027Y-15837380D01*
X9472027Y-15837380D02*
X9491075Y-15846904D01*
X9491075Y-15846904D02*
X9500598Y-15865952D01*
X9500598Y-15865952D02*
X9500598Y-15970714D01*
X9595836Y-15970714D02*
X9595836Y-15837380D01*
X9595836Y-15856428D02*
X9605360Y-15846904D01*
X9605360Y-15846904D02*
X9624408Y-15837380D01*
X9624408Y-15837380D02*
X9652979Y-15837380D01*
X9652979Y-15837380D02*
X9672027Y-15846904D01*
X9672027Y-15846904D02*
X9681551Y-15865952D01*
X9681551Y-15865952D02*
X9681551Y-15970714D01*
X9681551Y-15865952D02*
X9691075Y-15846904D01*
X9691075Y-15846904D02*
X9710122Y-15837380D01*
X9710122Y-15837380D02*
X9738694Y-15837380D01*
X9738694Y-15837380D02*
X9757741Y-15846904D01*
X9757741Y-15846904D02*
X9767265Y-15865952D01*
X9767265Y-15865952D02*
X9767265Y-15970714D01*
X10157741Y-15761190D02*
X9986313Y-16018333D01*
X10414884Y-15770714D02*
X10433932Y-15770714D01*
X10433932Y-15770714D02*
X10452979Y-15780238D01*
X10452979Y-15780238D02*
X10462503Y-15789761D01*
X10462503Y-15789761D02*
X10472027Y-15808809D01*
X10472027Y-15808809D02*
X10481551Y-15846904D01*
X10481551Y-15846904D02*
X10481551Y-15894523D01*
X10481551Y-15894523D02*
X10472027Y-15932618D01*
X10472027Y-15932618D02*
X10462503Y-15951666D01*
X10462503Y-15951666D02*
X10452979Y-15961190D01*
X10452979Y-15961190D02*
X10433932Y-15970714D01*
X10433932Y-15970714D02*
X10414884Y-15970714D01*
X10414884Y-15970714D02*
X10395837Y-15961190D01*
X10395837Y-15961190D02*
X10386313Y-15951666D01*
X10386313Y-15951666D02*
X10376789Y-15932618D01*
X10376789Y-15932618D02*
X10367265Y-15894523D01*
X10367265Y-15894523D02*
X10367265Y-15846904D01*
X10367265Y-15846904D02*
X10376789Y-15808809D01*
X10376789Y-15808809D02*
X10386313Y-15789761D01*
X10386313Y-15789761D02*
X10395837Y-15780238D01*
X10395837Y-15780238D02*
X10414884Y-15770714D01*
X10567265Y-15951666D02*
X10576789Y-15961190D01*
X10576789Y-15961190D02*
X10567265Y-15970714D01*
X10567265Y-15970714D02*
X10557741Y-15961190D01*
X10557741Y-15961190D02*
X10567265Y-15951666D01*
X10567265Y-15951666D02*
X10567265Y-15970714D01*
X10700598Y-15770714D02*
X10719646Y-15770714D01*
X10719646Y-15770714D02*
X10738694Y-15780238D01*
X10738694Y-15780238D02*
X10748218Y-15789761D01*
X10748218Y-15789761D02*
X10757741Y-15808809D01*
X10757741Y-15808809D02*
X10767265Y-15846904D01*
X10767265Y-15846904D02*
X10767265Y-15894523D01*
X10767265Y-15894523D02*
X10757741Y-15932618D01*
X10757741Y-15932618D02*
X10748218Y-15951666D01*
X10748218Y-15951666D02*
X10738694Y-15961190D01*
X10738694Y-15961190D02*
X10719646Y-15970714D01*
X10719646Y-15970714D02*
X10700598Y-15970714D01*
X10700598Y-15970714D02*
X10681551Y-15961190D01*
X10681551Y-15961190D02*
X10672027Y-15951666D01*
X10672027Y-15951666D02*
X10662503Y-15932618D01*
X10662503Y-15932618D02*
X10652979Y-15894523D01*
X10652979Y-15894523D02*
X10652979Y-15846904D01*
X10652979Y-15846904D02*
X10662503Y-15808809D01*
X10662503Y-15808809D02*
X10672027Y-15789761D01*
X10672027Y-15789761D02*
X10681551Y-15780238D01*
X10681551Y-15780238D02*
X10700598Y-15770714D01*
X10948218Y-15770714D02*
X10852979Y-15770714D01*
X10852979Y-15770714D02*
X10843456Y-15865952D01*
X10843456Y-15865952D02*
X10852979Y-15856428D01*
X10852979Y-15856428D02*
X10872027Y-15846904D01*
X10872027Y-15846904D02*
X10919646Y-15846904D01*
X10919646Y-15846904D02*
X10938694Y-15856428D01*
X10938694Y-15856428D02*
X10948218Y-15865952D01*
X10948218Y-15865952D02*
X10957741Y-15884999D01*
X10957741Y-15884999D02*
X10957741Y-15932618D01*
X10957741Y-15932618D02*
X10948218Y-15951666D01*
X10948218Y-15951666D02*
X10938694Y-15961190D01*
X10938694Y-15961190D02*
X10919646Y-15970714D01*
X10919646Y-15970714D02*
X10872027Y-15970714D01*
X10872027Y-15970714D02*
X10852979Y-15961190D01*
X10852979Y-15961190D02*
X10843456Y-15951666D01*
X11148218Y-15970714D02*
X11033932Y-15970714D01*
X11091075Y-15970714D02*
X11091075Y-15770714D01*
X11091075Y-15770714D02*
X11072027Y-15799285D01*
X11072027Y-15799285D02*
X11052979Y-15818333D01*
X11052979Y-15818333D02*
X11033932Y-15827857D01*
X11224408Y-15789761D02*
X11233932Y-15780238D01*
X11233932Y-15780238D02*
X11252979Y-15770714D01*
X11252979Y-15770714D02*
X11300598Y-15770714D01*
X11300598Y-15770714D02*
X11319646Y-15780238D01*
X11319646Y-15780238D02*
X11329170Y-15789761D01*
X11329170Y-15789761D02*
X11338694Y-15808809D01*
X11338694Y-15808809D02*
X11338694Y-15827857D01*
X11338694Y-15827857D02*
X11329170Y-15856428D01*
X11329170Y-15856428D02*
X11214884Y-15970714D01*
X11214884Y-15970714D02*
X11338694Y-15970714D01*
X11414884Y-15770714D02*
X11414884Y-15808809D01*
X11491075Y-15770714D02*
X11491075Y-15808809D01*
X11786313Y-16046904D02*
X11776789Y-16037380D01*
X11776789Y-16037380D02*
X11757741Y-16008809D01*
X11757741Y-16008809D02*
X11748218Y-15989761D01*
X11748218Y-15989761D02*
X11738694Y-15961190D01*
X11738694Y-15961190D02*
X11729170Y-15913571D01*
X11729170Y-15913571D02*
X11729170Y-15875476D01*
X11729170Y-15875476D02*
X11738694Y-15827857D01*
X11738694Y-15827857D02*
X11748218Y-15799285D01*
X11748218Y-15799285D02*
X11757741Y-15780238D01*
X11757741Y-15780238D02*
X11776789Y-15751666D01*
X11776789Y-15751666D02*
X11786313Y-15742142D01*
X11852979Y-15789761D02*
X11862503Y-15780238D01*
X11862503Y-15780238D02*
X11881551Y-15770714D01*
X11881551Y-15770714D02*
X11929170Y-15770714D01*
X11929170Y-15770714D02*
X11948218Y-15780238D01*
X11948218Y-15780238D02*
X11957741Y-15789761D01*
X11957741Y-15789761D02*
X11967265Y-15808809D01*
X11967265Y-15808809D02*
X11967265Y-15827857D01*
X11967265Y-15827857D02*
X11957741Y-15856428D01*
X11957741Y-15856428D02*
X11843456Y-15970714D01*
X11843456Y-15970714D02*
X11967265Y-15970714D01*
X12205360Y-15970714D02*
X12205360Y-15770714D01*
X12291075Y-15970714D02*
X12291075Y-15865952D01*
X12291075Y-15865952D02*
X12281551Y-15846904D01*
X12281551Y-15846904D02*
X12262503Y-15837380D01*
X12262503Y-15837380D02*
X12233932Y-15837380D01*
X12233932Y-15837380D02*
X12214884Y-15846904D01*
X12214884Y-15846904D02*
X12205360Y-15856428D01*
X12414884Y-15970714D02*
X12395837Y-15961190D01*
X12395837Y-15961190D02*
X12386313Y-15951666D01*
X12386313Y-15951666D02*
X12376789Y-15932618D01*
X12376789Y-15932618D02*
X12376789Y-15875476D01*
X12376789Y-15875476D02*
X12386313Y-15856428D01*
X12386313Y-15856428D02*
X12395837Y-15846904D01*
X12395837Y-15846904D02*
X12414884Y-15837380D01*
X12414884Y-15837380D02*
X12443456Y-15837380D01*
X12443456Y-15837380D02*
X12462503Y-15846904D01*
X12462503Y-15846904D02*
X12472027Y-15856428D01*
X12472027Y-15856428D02*
X12481551Y-15875476D01*
X12481551Y-15875476D02*
X12481551Y-15932618D01*
X12481551Y-15932618D02*
X12472027Y-15951666D01*
X12472027Y-15951666D02*
X12462503Y-15961190D01*
X12462503Y-15961190D02*
X12443456Y-15970714D01*
X12443456Y-15970714D02*
X12414884Y-15970714D01*
X12595837Y-15970714D02*
X12576789Y-15961190D01*
X12576789Y-15961190D02*
X12567265Y-15942142D01*
X12567265Y-15942142D02*
X12567265Y-15770714D01*
X12748218Y-15961190D02*
X12729170Y-15970714D01*
X12729170Y-15970714D02*
X12691075Y-15970714D01*
X12691075Y-15970714D02*
X12672027Y-15961190D01*
X12672027Y-15961190D02*
X12662503Y-15942142D01*
X12662503Y-15942142D02*
X12662503Y-15865952D01*
X12662503Y-15865952D02*
X12672027Y-15846904D01*
X12672027Y-15846904D02*
X12691075Y-15837380D01*
X12691075Y-15837380D02*
X12729170Y-15837380D01*
X12729170Y-15837380D02*
X12748218Y-15846904D01*
X12748218Y-15846904D02*
X12757741Y-15865952D01*
X12757741Y-15865952D02*
X12757741Y-15884999D01*
X12757741Y-15884999D02*
X12662503Y-15904047D01*
X12833932Y-15961190D02*
X12852980Y-15970714D01*
X12852980Y-15970714D02*
X12891075Y-15970714D01*
X12891075Y-15970714D02*
X12910122Y-15961190D01*
X12910122Y-15961190D02*
X12919646Y-15942142D01*
X12919646Y-15942142D02*
X12919646Y-15932618D01*
X12919646Y-15932618D02*
X12910122Y-15913571D01*
X12910122Y-15913571D02*
X12891075Y-15904047D01*
X12891075Y-15904047D02*
X12862503Y-15904047D01*
X12862503Y-15904047D02*
X12843456Y-15894523D01*
X12843456Y-15894523D02*
X12833932Y-15875476D01*
X12833932Y-15875476D02*
X12833932Y-15865952D01*
X12833932Y-15865952D02*
X12843456Y-15846904D01*
X12843456Y-15846904D02*
X12862503Y-15837380D01*
X12862503Y-15837380D02*
X12891075Y-15837380D01*
X12891075Y-15837380D02*
X12910122Y-15846904D01*
X12986313Y-16046904D02*
X12995837Y-16037380D01*
X12995837Y-16037380D02*
X13014884Y-16008809D01*
X13014884Y-16008809D02*
X13024408Y-15989761D01*
X13024408Y-15989761D02*
X13033932Y-15961190D01*
X13033932Y-15961190D02*
X13043456Y-15913571D01*
X13043456Y-15913571D02*
X13043456Y-15875476D01*
X13043456Y-15875476D02*
X13033932Y-15827857D01*
X13033932Y-15827857D02*
X13024408Y-15799285D01*
X13024408Y-15799285D02*
X13014884Y-15780238D01*
X13014884Y-15780238D02*
X12995837Y-15751666D01*
X12995837Y-15751666D02*
X12986313Y-15742142D01*
X8011250Y-16043230D02*
X8211250Y-16243230D01*
X8211250Y-16043230D02*
X8011250Y-16243230D01*
X8181961Y-16213941D02*
X8181961Y-16072519D01*
X8040539Y-16072519D01*
X8040539Y-16213941D01*
X8181961Y-16213941D01*
X8452979Y-16034714D02*
X8576789Y-16034714D01*
X8576789Y-16034714D02*
X8510122Y-16110904D01*
X8510122Y-16110904D02*
X8538694Y-16110904D01*
X8538694Y-16110904D02*
X8557741Y-16120428D01*
X8557741Y-16120428D02*
X8567265Y-16129952D01*
X8567265Y-16129952D02*
X8576789Y-16148999D01*
X8576789Y-16148999D02*
X8576789Y-16196618D01*
X8576789Y-16196618D02*
X8567265Y-16215666D01*
X8567265Y-16215666D02*
X8557741Y-16225190D01*
X8557741Y-16225190D02*
X8538694Y-16234714D01*
X8538694Y-16234714D02*
X8481551Y-16234714D01*
X8481551Y-16234714D02*
X8462503Y-16225190D01*
X8462503Y-16225190D02*
X8452979Y-16215666D01*
X8662503Y-16215666D02*
X8672027Y-16225190D01*
X8672027Y-16225190D02*
X8662503Y-16234714D01*
X8662503Y-16234714D02*
X8652979Y-16225190D01*
X8652979Y-16225190D02*
X8662503Y-16215666D01*
X8662503Y-16215666D02*
X8662503Y-16234714D01*
X8748217Y-16053761D02*
X8757741Y-16044238D01*
X8757741Y-16044238D02*
X8776789Y-16034714D01*
X8776789Y-16034714D02*
X8824408Y-16034714D01*
X8824408Y-16034714D02*
X8843455Y-16044238D01*
X8843455Y-16044238D02*
X8852979Y-16053761D01*
X8852979Y-16053761D02*
X8862503Y-16072809D01*
X8862503Y-16072809D02*
X8862503Y-16091857D01*
X8862503Y-16091857D02*
X8852979Y-16120428D01*
X8852979Y-16120428D02*
X8738694Y-16234714D01*
X8738694Y-16234714D02*
X8862503Y-16234714D01*
X8986313Y-16034714D02*
X9005360Y-16034714D01*
X9005360Y-16034714D02*
X9024408Y-16044238D01*
X9024408Y-16044238D02*
X9033932Y-16053761D01*
X9033932Y-16053761D02*
X9043455Y-16072809D01*
X9043455Y-16072809D02*
X9052979Y-16110904D01*
X9052979Y-16110904D02*
X9052979Y-16158523D01*
X9052979Y-16158523D02*
X9043455Y-16196618D01*
X9043455Y-16196618D02*
X9033932Y-16215666D01*
X9033932Y-16215666D02*
X9024408Y-16225190D01*
X9024408Y-16225190D02*
X9005360Y-16234714D01*
X9005360Y-16234714D02*
X8986313Y-16234714D01*
X8986313Y-16234714D02*
X8967265Y-16225190D01*
X8967265Y-16225190D02*
X8957741Y-16215666D01*
X8957741Y-16215666D02*
X8948217Y-16196618D01*
X8948217Y-16196618D02*
X8938694Y-16158523D01*
X8938694Y-16158523D02*
X8938694Y-16110904D01*
X8938694Y-16110904D02*
X8948217Y-16072809D01*
X8948217Y-16072809D02*
X8957741Y-16053761D01*
X8957741Y-16053761D02*
X8967265Y-16044238D01*
X8967265Y-16044238D02*
X8986313Y-16034714D01*
X9176789Y-16034714D02*
X9195836Y-16034714D01*
X9195836Y-16034714D02*
X9214884Y-16044238D01*
X9214884Y-16044238D02*
X9224408Y-16053761D01*
X9224408Y-16053761D02*
X9233932Y-16072809D01*
X9233932Y-16072809D02*
X9243455Y-16110904D01*
X9243455Y-16110904D02*
X9243455Y-16158523D01*
X9243455Y-16158523D02*
X9233932Y-16196618D01*
X9233932Y-16196618D02*
X9224408Y-16215666D01*
X9224408Y-16215666D02*
X9214884Y-16225190D01*
X9214884Y-16225190D02*
X9195836Y-16234714D01*
X9195836Y-16234714D02*
X9176789Y-16234714D01*
X9176789Y-16234714D02*
X9157741Y-16225190D01*
X9157741Y-16225190D02*
X9148217Y-16215666D01*
X9148217Y-16215666D02*
X9138694Y-16196618D01*
X9138694Y-16196618D02*
X9129170Y-16158523D01*
X9129170Y-16158523D02*
X9129170Y-16110904D01*
X9129170Y-16110904D02*
X9138694Y-16072809D01*
X9138694Y-16072809D02*
X9148217Y-16053761D01*
X9148217Y-16053761D02*
X9157741Y-16044238D01*
X9157741Y-16044238D02*
X9176789Y-16034714D01*
X9329170Y-16234714D02*
X9329170Y-16101380D01*
X9329170Y-16120428D02*
X9338694Y-16110904D01*
X9338694Y-16110904D02*
X9357741Y-16101380D01*
X9357741Y-16101380D02*
X9386313Y-16101380D01*
X9386313Y-16101380D02*
X9405360Y-16110904D01*
X9405360Y-16110904D02*
X9414884Y-16129952D01*
X9414884Y-16129952D02*
X9414884Y-16234714D01*
X9414884Y-16129952D02*
X9424408Y-16110904D01*
X9424408Y-16110904D02*
X9443455Y-16101380D01*
X9443455Y-16101380D02*
X9472027Y-16101380D01*
X9472027Y-16101380D02*
X9491075Y-16110904D01*
X9491075Y-16110904D02*
X9500598Y-16129952D01*
X9500598Y-16129952D02*
X9500598Y-16234714D01*
X9595836Y-16234714D02*
X9595836Y-16101380D01*
X9595836Y-16120428D02*
X9605360Y-16110904D01*
X9605360Y-16110904D02*
X9624408Y-16101380D01*
X9624408Y-16101380D02*
X9652979Y-16101380D01*
X9652979Y-16101380D02*
X9672027Y-16110904D01*
X9672027Y-16110904D02*
X9681551Y-16129952D01*
X9681551Y-16129952D02*
X9681551Y-16234714D01*
X9681551Y-16129952D02*
X9691075Y-16110904D01*
X9691075Y-16110904D02*
X9710122Y-16101380D01*
X9710122Y-16101380D02*
X9738694Y-16101380D01*
X9738694Y-16101380D02*
X9757741Y-16110904D01*
X9757741Y-16110904D02*
X9767265Y-16129952D01*
X9767265Y-16129952D02*
X9767265Y-16234714D01*
X10157741Y-16025190D02*
X9986313Y-16282333D01*
X10414884Y-16034714D02*
X10433932Y-16034714D01*
X10433932Y-16034714D02*
X10452979Y-16044238D01*
X10452979Y-16044238D02*
X10462503Y-16053761D01*
X10462503Y-16053761D02*
X10472027Y-16072809D01*
X10472027Y-16072809D02*
X10481551Y-16110904D01*
X10481551Y-16110904D02*
X10481551Y-16158523D01*
X10481551Y-16158523D02*
X10472027Y-16196618D01*
X10472027Y-16196618D02*
X10462503Y-16215666D01*
X10462503Y-16215666D02*
X10452979Y-16225190D01*
X10452979Y-16225190D02*
X10433932Y-16234714D01*
X10433932Y-16234714D02*
X10414884Y-16234714D01*
X10414884Y-16234714D02*
X10395837Y-16225190D01*
X10395837Y-16225190D02*
X10386313Y-16215666D01*
X10386313Y-16215666D02*
X10376789Y-16196618D01*
X10376789Y-16196618D02*
X10367265Y-16158523D01*
X10367265Y-16158523D02*
X10367265Y-16110904D01*
X10367265Y-16110904D02*
X10376789Y-16072809D01*
X10376789Y-16072809D02*
X10386313Y-16053761D01*
X10386313Y-16053761D02*
X10395837Y-16044238D01*
X10395837Y-16044238D02*
X10414884Y-16034714D01*
X10567265Y-16215666D02*
X10576789Y-16225190D01*
X10576789Y-16225190D02*
X10567265Y-16234714D01*
X10567265Y-16234714D02*
X10557741Y-16225190D01*
X10557741Y-16225190D02*
X10567265Y-16215666D01*
X10567265Y-16215666D02*
X10567265Y-16234714D01*
X10767265Y-16234714D02*
X10652979Y-16234714D01*
X10710122Y-16234714D02*
X10710122Y-16034714D01*
X10710122Y-16034714D02*
X10691075Y-16063285D01*
X10691075Y-16063285D02*
X10672027Y-16082333D01*
X10672027Y-16082333D02*
X10652979Y-16091857D01*
X10843456Y-16053761D02*
X10852979Y-16044238D01*
X10852979Y-16044238D02*
X10872027Y-16034714D01*
X10872027Y-16034714D02*
X10919646Y-16034714D01*
X10919646Y-16034714D02*
X10938694Y-16044238D01*
X10938694Y-16044238D02*
X10948218Y-16053761D01*
X10948218Y-16053761D02*
X10957741Y-16072809D01*
X10957741Y-16072809D02*
X10957741Y-16091857D01*
X10957741Y-16091857D02*
X10948218Y-16120428D01*
X10948218Y-16120428D02*
X10833932Y-16234714D01*
X10833932Y-16234714D02*
X10957741Y-16234714D01*
X11129170Y-16034714D02*
X11091075Y-16034714D01*
X11091075Y-16034714D02*
X11072027Y-16044238D01*
X11072027Y-16044238D02*
X11062503Y-16053761D01*
X11062503Y-16053761D02*
X11043456Y-16082333D01*
X11043456Y-16082333D02*
X11033932Y-16120428D01*
X11033932Y-16120428D02*
X11033932Y-16196618D01*
X11033932Y-16196618D02*
X11043456Y-16215666D01*
X11043456Y-16215666D02*
X11052979Y-16225190D01*
X11052979Y-16225190D02*
X11072027Y-16234714D01*
X11072027Y-16234714D02*
X11110122Y-16234714D01*
X11110122Y-16234714D02*
X11129170Y-16225190D01*
X11129170Y-16225190D02*
X11138694Y-16215666D01*
X11138694Y-16215666D02*
X11148218Y-16196618D01*
X11148218Y-16196618D02*
X11148218Y-16148999D01*
X11148218Y-16148999D02*
X11138694Y-16129952D01*
X11138694Y-16129952D02*
X11129170Y-16120428D01*
X11129170Y-16120428D02*
X11110122Y-16110904D01*
X11110122Y-16110904D02*
X11072027Y-16110904D01*
X11072027Y-16110904D02*
X11052979Y-16120428D01*
X11052979Y-16120428D02*
X11043456Y-16129952D01*
X11043456Y-16129952D02*
X11033932Y-16148999D01*
X11272027Y-16034714D02*
X11291075Y-16034714D01*
X11291075Y-16034714D02*
X11310122Y-16044238D01*
X11310122Y-16044238D02*
X11319646Y-16053761D01*
X11319646Y-16053761D02*
X11329170Y-16072809D01*
X11329170Y-16072809D02*
X11338694Y-16110904D01*
X11338694Y-16110904D02*
X11338694Y-16158523D01*
X11338694Y-16158523D02*
X11329170Y-16196618D01*
X11329170Y-16196618D02*
X11319646Y-16215666D01*
X11319646Y-16215666D02*
X11310122Y-16225190D01*
X11310122Y-16225190D02*
X11291075Y-16234714D01*
X11291075Y-16234714D02*
X11272027Y-16234714D01*
X11272027Y-16234714D02*
X11252979Y-16225190D01*
X11252979Y-16225190D02*
X11243456Y-16215666D01*
X11243456Y-16215666D02*
X11233932Y-16196618D01*
X11233932Y-16196618D02*
X11224408Y-16158523D01*
X11224408Y-16158523D02*
X11224408Y-16110904D01*
X11224408Y-16110904D02*
X11233932Y-16072809D01*
X11233932Y-16072809D02*
X11243456Y-16053761D01*
X11243456Y-16053761D02*
X11252979Y-16044238D01*
X11252979Y-16044238D02*
X11272027Y-16034714D01*
X11414884Y-16034714D02*
X11414884Y-16072809D01*
X11491075Y-16034714D02*
X11491075Y-16072809D01*
X11786313Y-16310904D02*
X11776789Y-16301380D01*
X11776789Y-16301380D02*
X11757741Y-16272809D01*
X11757741Y-16272809D02*
X11748218Y-16253761D01*
X11748218Y-16253761D02*
X11738694Y-16225190D01*
X11738694Y-16225190D02*
X11729170Y-16177571D01*
X11729170Y-16177571D02*
X11729170Y-16139476D01*
X11729170Y-16139476D02*
X11738694Y-16091857D01*
X11738694Y-16091857D02*
X11748218Y-16063285D01*
X11748218Y-16063285D02*
X11757741Y-16044238D01*
X11757741Y-16044238D02*
X11776789Y-16015666D01*
X11776789Y-16015666D02*
X11786313Y-16006142D01*
X11948218Y-16101380D02*
X11948218Y-16234714D01*
X11900598Y-16025190D02*
X11852979Y-16168047D01*
X11852979Y-16168047D02*
X11976789Y-16168047D01*
X12205360Y-16234714D02*
X12205360Y-16034714D01*
X12291075Y-16234714D02*
X12291075Y-16129952D01*
X12291075Y-16129952D02*
X12281551Y-16110904D01*
X12281551Y-16110904D02*
X12262503Y-16101380D01*
X12262503Y-16101380D02*
X12233932Y-16101380D01*
X12233932Y-16101380D02*
X12214884Y-16110904D01*
X12214884Y-16110904D02*
X12205360Y-16120428D01*
X12414884Y-16234714D02*
X12395837Y-16225190D01*
X12395837Y-16225190D02*
X12386313Y-16215666D01*
X12386313Y-16215666D02*
X12376789Y-16196618D01*
X12376789Y-16196618D02*
X12376789Y-16139476D01*
X12376789Y-16139476D02*
X12386313Y-16120428D01*
X12386313Y-16120428D02*
X12395837Y-16110904D01*
X12395837Y-16110904D02*
X12414884Y-16101380D01*
X12414884Y-16101380D02*
X12443456Y-16101380D01*
X12443456Y-16101380D02*
X12462503Y-16110904D01*
X12462503Y-16110904D02*
X12472027Y-16120428D01*
X12472027Y-16120428D02*
X12481551Y-16139476D01*
X12481551Y-16139476D02*
X12481551Y-16196618D01*
X12481551Y-16196618D02*
X12472027Y-16215666D01*
X12472027Y-16215666D02*
X12462503Y-16225190D01*
X12462503Y-16225190D02*
X12443456Y-16234714D01*
X12443456Y-16234714D02*
X12414884Y-16234714D01*
X12595837Y-16234714D02*
X12576789Y-16225190D01*
X12576789Y-16225190D02*
X12567265Y-16206142D01*
X12567265Y-16206142D02*
X12567265Y-16034714D01*
X12748218Y-16225190D02*
X12729170Y-16234714D01*
X12729170Y-16234714D02*
X12691075Y-16234714D01*
X12691075Y-16234714D02*
X12672027Y-16225190D01*
X12672027Y-16225190D02*
X12662503Y-16206142D01*
X12662503Y-16206142D02*
X12662503Y-16129952D01*
X12662503Y-16129952D02*
X12672027Y-16110904D01*
X12672027Y-16110904D02*
X12691075Y-16101380D01*
X12691075Y-16101380D02*
X12729170Y-16101380D01*
X12729170Y-16101380D02*
X12748218Y-16110904D01*
X12748218Y-16110904D02*
X12757741Y-16129952D01*
X12757741Y-16129952D02*
X12757741Y-16148999D01*
X12757741Y-16148999D02*
X12662503Y-16168047D01*
X12833932Y-16225190D02*
X12852980Y-16234714D01*
X12852980Y-16234714D02*
X12891075Y-16234714D01*
X12891075Y-16234714D02*
X12910122Y-16225190D01*
X12910122Y-16225190D02*
X12919646Y-16206142D01*
X12919646Y-16206142D02*
X12919646Y-16196618D01*
X12919646Y-16196618D02*
X12910122Y-16177571D01*
X12910122Y-16177571D02*
X12891075Y-16168047D01*
X12891075Y-16168047D02*
X12862503Y-16168047D01*
X12862503Y-16168047D02*
X12843456Y-16158523D01*
X12843456Y-16158523D02*
X12833932Y-16139476D01*
X12833932Y-16139476D02*
X12833932Y-16129952D01*
X12833932Y-16129952D02*
X12843456Y-16110904D01*
X12843456Y-16110904D02*
X12862503Y-16101380D01*
X12862503Y-16101380D02*
X12891075Y-16101380D01*
X12891075Y-16101380D02*
X12910122Y-16110904D01*
X12986313Y-16310904D02*
X12995837Y-16301380D01*
X12995837Y-16301380D02*
X13014884Y-16272809D01*
X13014884Y-16272809D02*
X13024408Y-16253761D01*
X13024408Y-16253761D02*
X13033932Y-16225190D01*
X13033932Y-16225190D02*
X13043456Y-16177571D01*
X13043456Y-16177571D02*
X13043456Y-16139476D01*
X13043456Y-16139476D02*
X13033932Y-16091857D01*
X13033932Y-16091857D02*
X13024408Y-16063285D01*
X13024408Y-16063285D02*
X13014884Y-16044238D01*
X13014884Y-16044238D02*
X12995837Y-16015666D01*
X12995837Y-16015666D02*
X12986313Y-16006142D01*
X13348218Y-16310904D02*
X13338694Y-16301380D01*
X13338694Y-16301380D02*
X13319646Y-16272809D01*
X13319646Y-16272809D02*
X13310122Y-16253761D01*
X13310122Y-16253761D02*
X13300599Y-16225190D01*
X13300599Y-16225190D02*
X13291075Y-16177571D01*
X13291075Y-16177571D02*
X13291075Y-16139476D01*
X13291075Y-16139476D02*
X13300599Y-16091857D01*
X13300599Y-16091857D02*
X13310122Y-16063285D01*
X13310122Y-16063285D02*
X13319646Y-16044238D01*
X13319646Y-16044238D02*
X13338694Y-16015666D01*
X13338694Y-16015666D02*
X13348218Y-16006142D01*
X13424408Y-16101380D02*
X13424408Y-16234714D01*
X13424408Y-16120428D02*
X13433932Y-16110904D01*
X13433932Y-16110904D02*
X13452980Y-16101380D01*
X13452980Y-16101380D02*
X13481551Y-16101380D01*
X13481551Y-16101380D02*
X13500599Y-16110904D01*
X13500599Y-16110904D02*
X13510122Y-16129952D01*
X13510122Y-16129952D02*
X13510122Y-16234714D01*
X13633932Y-16234714D02*
X13614884Y-16225190D01*
X13614884Y-16225190D02*
X13605361Y-16215666D01*
X13605361Y-16215666D02*
X13595837Y-16196618D01*
X13595837Y-16196618D02*
X13595837Y-16139476D01*
X13595837Y-16139476D02*
X13605361Y-16120428D01*
X13605361Y-16120428D02*
X13614884Y-16110904D01*
X13614884Y-16110904D02*
X13633932Y-16101380D01*
X13633932Y-16101380D02*
X13662503Y-16101380D01*
X13662503Y-16101380D02*
X13681551Y-16110904D01*
X13681551Y-16110904D02*
X13691075Y-16120428D01*
X13691075Y-16120428D02*
X13700599Y-16139476D01*
X13700599Y-16139476D02*
X13700599Y-16196618D01*
X13700599Y-16196618D02*
X13691075Y-16215666D01*
X13691075Y-16215666D02*
X13681551Y-16225190D01*
X13681551Y-16225190D02*
X13662503Y-16234714D01*
X13662503Y-16234714D02*
X13633932Y-16234714D01*
X13757742Y-16101380D02*
X13833932Y-16101380D01*
X13786313Y-16034714D02*
X13786313Y-16206142D01*
X13786313Y-16206142D02*
X13795837Y-16225190D01*
X13795837Y-16225190D02*
X13814884Y-16234714D01*
X13814884Y-16234714D02*
X13833932Y-16234714D01*
X14052980Y-16101380D02*
X14052980Y-16301380D01*
X14052980Y-16110904D02*
X14072027Y-16101380D01*
X14072027Y-16101380D02*
X14110123Y-16101380D01*
X14110123Y-16101380D02*
X14129170Y-16110904D01*
X14129170Y-16110904D02*
X14138694Y-16120428D01*
X14138694Y-16120428D02*
X14148218Y-16139476D01*
X14148218Y-16139476D02*
X14148218Y-16196618D01*
X14148218Y-16196618D02*
X14138694Y-16215666D01*
X14138694Y-16215666D02*
X14129170Y-16225190D01*
X14129170Y-16225190D02*
X14110123Y-16234714D01*
X14110123Y-16234714D02*
X14072027Y-16234714D01*
X14072027Y-16234714D02*
X14052980Y-16225190D01*
X14262503Y-16234714D02*
X14243456Y-16225190D01*
X14243456Y-16225190D02*
X14233932Y-16206142D01*
X14233932Y-16206142D02*
X14233932Y-16034714D01*
X14424408Y-16234714D02*
X14424408Y-16129952D01*
X14424408Y-16129952D02*
X14414884Y-16110904D01*
X14414884Y-16110904D02*
X14395837Y-16101380D01*
X14395837Y-16101380D02*
X14357742Y-16101380D01*
X14357742Y-16101380D02*
X14338694Y-16110904D01*
X14424408Y-16225190D02*
X14405361Y-16234714D01*
X14405361Y-16234714D02*
X14357742Y-16234714D01*
X14357742Y-16234714D02*
X14338694Y-16225190D01*
X14338694Y-16225190D02*
X14329170Y-16206142D01*
X14329170Y-16206142D02*
X14329170Y-16187095D01*
X14329170Y-16187095D02*
X14338694Y-16168047D01*
X14338694Y-16168047D02*
X14357742Y-16158523D01*
X14357742Y-16158523D02*
X14405361Y-16158523D01*
X14405361Y-16158523D02*
X14424408Y-16148999D01*
X14491075Y-16101380D02*
X14567265Y-16101380D01*
X14519646Y-16034714D02*
X14519646Y-16206142D01*
X14519646Y-16206142D02*
X14529170Y-16225190D01*
X14529170Y-16225190D02*
X14548218Y-16234714D01*
X14548218Y-16234714D02*
X14567265Y-16234714D01*
X14710123Y-16225190D02*
X14691075Y-16234714D01*
X14691075Y-16234714D02*
X14652980Y-16234714D01*
X14652980Y-16234714D02*
X14633932Y-16225190D01*
X14633932Y-16225190D02*
X14624408Y-16206142D01*
X14624408Y-16206142D02*
X14624408Y-16129952D01*
X14624408Y-16129952D02*
X14633932Y-16110904D01*
X14633932Y-16110904D02*
X14652980Y-16101380D01*
X14652980Y-16101380D02*
X14691075Y-16101380D01*
X14691075Y-16101380D02*
X14710123Y-16110904D01*
X14710123Y-16110904D02*
X14719646Y-16129952D01*
X14719646Y-16129952D02*
X14719646Y-16148999D01*
X14719646Y-16148999D02*
X14624408Y-16168047D01*
X14891075Y-16234714D02*
X14891075Y-16034714D01*
X14891075Y-16225190D02*
X14872027Y-16234714D01*
X14872027Y-16234714D02*
X14833932Y-16234714D01*
X14833932Y-16234714D02*
X14814884Y-16225190D01*
X14814884Y-16225190D02*
X14805361Y-16215666D01*
X14805361Y-16215666D02*
X14795837Y-16196618D01*
X14795837Y-16196618D02*
X14795837Y-16139476D01*
X14795837Y-16139476D02*
X14805361Y-16120428D01*
X14805361Y-16120428D02*
X14814884Y-16110904D01*
X14814884Y-16110904D02*
X14833932Y-16101380D01*
X14833932Y-16101380D02*
X14872027Y-16101380D01*
X14872027Y-16101380D02*
X14891075Y-16110904D01*
X14967265Y-16310904D02*
X14976789Y-16301380D01*
X14976789Y-16301380D02*
X14995837Y-16272809D01*
X14995837Y-16272809D02*
X15005361Y-16253761D01*
X15005361Y-16253761D02*
X15014884Y-16225190D01*
X15014884Y-16225190D02*
X15024408Y-16177571D01*
X15024408Y-16177571D02*
X15024408Y-16139476D01*
X15024408Y-16139476D02*
X15014884Y-16091857D01*
X15014884Y-16091857D02*
X15005361Y-16063285D01*
X15005361Y-16063285D02*
X14995837Y-16044238D01*
X14995837Y-16044238D02*
X14976789Y-16015666D01*
X14976789Y-16015666D02*
X14967265Y-16006142D01*
M02*
