%TF.GenerationSoftware,KiCad,Pcbnew,9.0.6*%
%TF.CreationDate,2026-04-28T18:06:23+03:00*%
%TF.ProjectId,GP_STM32,47505f53-544d-4333-922e-6b696361645f,rev?*%
%TF.SameCoordinates,Original*%
%TF.FileFunction,Soldermask,Top*%
%TF.FilePolarity,Negative*%
%FSLAX46Y46*%
G04 Gerber Fmt 4.6, Leading zero omitted, Abs format (unit mm)*
G04 Created by KiCad (PCBNEW 9.0.6) date 2026-04-28 18:06:23*
%MOMM*%
%LPD*%
G01*
G04 APERTURE LIST*
G04 Aperture macros list*
%AMRoundRect*
0 Rectangle with rounded corners*
0 $1 Rounding radius*
0 $2 $3 $4 $5 $6 $7 $8 $9 X,Y pos of 4 corners*
0 Add a 4 corners polygon primitive as box body*
4,1,4,$2,$3,$4,$5,$6,$7,$8,$9,$2,$3,0*
0 Add four circle primitives for the rounded corners*
1,1,$1+$1,$2,$3*
1,1,$1+$1,$4,$5*
1,1,$1+$1,$6,$7*
1,1,$1+$1,$8,$9*
0 Add four rect primitives between the rounded corners*
20,1,$1+$1,$2,$3,$4,$5,0*
20,1,$1+$1,$4,$5,$6,$7,0*
20,1,$1+$1,$6,$7,$8,$9,0*
20,1,$1+$1,$8,$9,$2,$3,0*%
G04 Aperture macros list end*
%ADD10C,1.600000*%
%ADD11C,2.109000*%
%ADD12C,3.200000*%
%ADD13R,1.700000X1.700000*%
%ADD14C,1.700000*%
%ADD15RoundRect,0.250000X-0.600000X-0.725000X0.600000X-0.725000X0.600000X0.725000X-0.600000X0.725000X0*%
%ADD16O,1.700000X1.950000*%
%ADD17RoundRect,0.250001X-1.149999X1.149999X-1.149999X-1.149999X1.149999X-1.149999X1.149999X1.149999X0*%
%ADD18C,2.800000*%
%ADD19R,2.000000X1.905000*%
%ADD20O,2.000000X1.905000*%
%ADD21RoundRect,0.250000X-0.550000X0.550000X-0.550000X-0.550000X0.550000X-0.550000X0.550000X0.550000X0*%
%ADD22RoundRect,0.250000X0.725000X-0.600000X0.725000X0.600000X-0.725000X0.600000X-0.725000X-0.600000X0*%
%ADD23O,1.950000X1.700000*%
%ADD24RoundRect,0.250000X-0.725000X0.600000X-0.725000X-0.600000X0.725000X-0.600000X0.725000X0.600000X0*%
%ADD25RoundRect,0.250000X-0.550000X-0.550000X0.550000X-0.550000X0.550000X0.550000X-0.550000X0.550000X0*%
G04 APERTURE END LIST*
D10*
%TO.C,C1*%
X120800000Y-112000000D03*
X120800000Y-117000000D03*
%TD*%
D11*
%TO.C,U2*%
X124500000Y-100160000D03*
X124500000Y-102700000D03*
X124500000Y-105240000D03*
X124500000Y-115400000D03*
X124500000Y-107780000D03*
X124500000Y-110320000D03*
X124500000Y-97620000D03*
X124500000Y-112860000D03*
%TD*%
D12*
%TO.C,REF\u002A\u002A*%
X181137500Y-44527300D03*
%TD*%
D10*
%TO.C,C3*%
X161975800Y-74930000D03*
X156975800Y-74930000D03*
%TD*%
D13*
%TO.C,J102*%
X134047000Y-68365600D03*
D14*
X134047000Y-70905600D03*
X134047000Y-73445600D03*
X134047000Y-75985600D03*
X134047000Y-78525600D03*
X134047000Y-81065600D03*
X134047000Y-83605600D03*
X134047000Y-86145600D03*
X134047000Y-88685600D03*
X134047000Y-91225600D03*
X134047000Y-93765600D03*
X134047000Y-96305600D03*
X134047000Y-98845600D03*
X134047000Y-101385600D03*
X134047000Y-103925600D03*
X134047000Y-106465600D03*
X134047000Y-109005600D03*
X134047000Y-111545600D03*
X134047000Y-114085600D03*
X134047000Y-116625600D03*
%TD*%
D15*
%TO.C,Encoder_M1*%
X157465800Y-118081900D03*
D16*
X159965800Y-118081900D03*
X162465800Y-118081900D03*
X164965800Y-118081900D03*
X167465800Y-118081900D03*
X169965800Y-118081900D03*
%TD*%
D12*
%TO.C,REF\u002A\u002A*%
X86137500Y-132527300D03*
%TD*%
D17*
%TO.C,Power_Head1*%
X172498500Y-45019400D03*
D18*
X172498500Y-50019400D03*
%TD*%
D10*
%TO.C,C6*%
X152831800Y-120991000D03*
X152831800Y-115991000D03*
%TD*%
%TO.C,C8*%
X151493000Y-64301600D03*
X146493000Y-64301600D03*
%TD*%
D12*
%TO.C,REF\u002A\u002A*%
X181137500Y-132527300D03*
%TD*%
D15*
%TO.C,Motor2_Connectors1*%
X95435400Y-48133000D03*
D16*
X97935400Y-48133000D03*
X100435400Y-48133000D03*
X102935400Y-48133000D03*
X105435400Y-48133000D03*
X107935400Y-48133000D03*
%TD*%
D19*
%TO.C,U4*%
X156819600Y-43992800D03*
D20*
X156819600Y-46532800D03*
X156819600Y-49072800D03*
%TD*%
D21*
%TO.C,C4*%
X144094200Y-45048800D03*
D10*
X144094200Y-47548800D03*
%TD*%
D15*
%TO.C,USART_Conn1*%
X139856200Y-121843800D03*
D16*
X142356200Y-121843800D03*
X144856200Y-121843800D03*
%TD*%
D10*
%TO.C,C5*%
X97510600Y-80336400D03*
X97510600Y-75336400D03*
%TD*%
D13*
%TO.C,J103*%
X149287000Y-68365600D03*
D14*
X149287000Y-70905600D03*
X149287000Y-73445600D03*
X149287000Y-75985600D03*
X149287000Y-78525600D03*
X149287000Y-81065600D03*
X149287000Y-83605600D03*
X149287000Y-86145600D03*
X149287000Y-88685600D03*
X149287000Y-91225600D03*
X149287000Y-93765600D03*
X149287000Y-96305600D03*
X149287000Y-98845600D03*
X149287000Y-101385600D03*
X149287000Y-103925600D03*
X149287000Y-106465600D03*
X149287000Y-109005600D03*
X149287000Y-111545600D03*
X149287000Y-114085600D03*
X149287000Y-116625600D03*
%TD*%
D15*
%TO.C,Encoder_M2*%
X158946600Y-80583000D03*
D16*
X161446600Y-80583000D03*
X163946600Y-80583000D03*
X166446600Y-80583000D03*
X168946600Y-80583000D03*
X171446600Y-80583000D03*
%TD*%
D12*
%TO.C,REF\u002A\u002A*%
X86137500Y-44527300D03*
%TD*%
D10*
%TO.C,C2*%
X112800000Y-69700000D03*
X117800000Y-69700000D03*
%TD*%
%TO.C,C7*%
X173507400Y-110000000D03*
X173507400Y-105000000D03*
%TD*%
D22*
%TO.C,Motor3_Connectors1*%
X89890600Y-68489200D03*
D23*
X89890600Y-65989200D03*
X89890600Y-63489200D03*
X89890600Y-60989200D03*
X89890600Y-58489200D03*
X89890600Y-55989200D03*
%TD*%
D24*
%TO.C,Encoder_M3*%
X105273809Y-77326800D03*
D23*
X105273809Y-79826800D03*
X105273809Y-82326800D03*
X105273809Y-84826800D03*
X105273809Y-87326800D03*
X105273809Y-89826800D03*
%TD*%
D15*
%TO.C,Motor1_Connectors1*%
X115247400Y-48133000D03*
D16*
X117747400Y-48133000D03*
X120247400Y-48133000D03*
X122747400Y-48133000D03*
X125247400Y-48133000D03*
X127747400Y-48133000D03*
%TD*%
D25*
%TO.C,U3*%
X112972209Y-74760000D03*
D10*
X112972209Y-77300000D03*
X112972209Y-79840000D03*
X112972209Y-82380000D03*
X112972209Y-84920000D03*
X112972209Y-87460000D03*
X112972209Y-90000000D03*
X112972209Y-92540000D03*
X120592209Y-92540000D03*
X120592209Y-90000000D03*
X120592209Y-87460000D03*
X120592209Y-84920000D03*
X120592209Y-82380000D03*
X120592209Y-79840000D03*
X120592209Y-77300000D03*
X120592209Y-74760000D03*
%TD*%
D25*
%TO.C,U1*%
X160000000Y-110000000D03*
D10*
X160000000Y-107460000D03*
X160000000Y-104920000D03*
X160000000Y-102380000D03*
X160000000Y-99840000D03*
X160000000Y-97300000D03*
X160000000Y-94760000D03*
X160000000Y-92220000D03*
X167620000Y-92220000D03*
X167620000Y-94760000D03*
X167620000Y-97300000D03*
X167620000Y-99840000D03*
X167620000Y-102380000D03*
X167620000Y-104920000D03*
X167620000Y-107460000D03*
X167620000Y-110000000D03*
%TD*%
M02*
