M48
; DRILL file {KiCad 9.0.6} date 2026-04-28T18:06:26+0300
; FORMAT={-:-/ absolute / metric / decimal}
; #@! TF.CreationDate,2026-04-28T18:06:26+03:00
; #@! TF.GenerationSoftware,Kicad,Pcbnew,9.0.6
; #@! TF.FileFunction,MixedPlating,1,2
FMAT,2
METRIC
; #@! TA.AperFunction,Plated,PTH,ViaDrill
T1C0.600
; #@! TA.AperFunction,Plated,PTH,ComponentDrill
T2C0.800
; #@! TA.AperFunction,Plated,PTH,ComponentDrill
T3C0.950
; #@! TA.AperFunction,Plated,PTH,ComponentDrill
T4C1.000
; #@! TA.AperFunction,Plated,PTH,ComponentDrill
T5C1.100
; #@! TA.AperFunction,Plated,PTH,ComponentDrill
T6C1.270
; #@! TA.AperFunction,Plated,PTH,ComponentDrill
T7C1.300
; #@! TA.AperFunction,NonPlated,NPTH,ComponentDrill
T8C3.200
%
G90
G05
T1
X90.043Y-52.07
X91.211Y-45.034
X109.3Y-89.9
X110.0Y-75.0
X110.0Y-80.0
X111.557Y-42.926
X126.441Y-44.653
X127.1Y-89.3
X127.5Y-110.3
X130.934Y-106.466
X154.646Y-87.898
X155.3Y-92.6
X155.358Y-109.768
X156.805Y-102.579
X157.277Y-85.954
X157.3Y-91.6
X163.855Y-68.275
X167.284Y-64.872
X175.946Y-109.347
X179.502Y-109.372
T2
X97.511Y-75.336
X97.511Y-80.336
X112.8Y-69.7
X112.972Y-74.76
X112.972Y-77.3
X112.972Y-79.84
X112.972Y-82.38
X112.972Y-84.92
X112.972Y-87.46
X112.972Y-90.0
X112.972Y-92.54
X117.8Y-69.7
X120.592Y-74.76
X120.592Y-77.3
X120.592Y-79.84
X120.592Y-82.38
X120.592Y-84.92
X120.592Y-87.46
X120.592Y-90.0
X120.592Y-92.54
X120.8Y-112.0
X120.8Y-117.0
X144.094Y-45.049
X144.094Y-47.549
X146.493Y-64.302
X151.493Y-64.302
X152.832Y-115.991
X152.832Y-120.991
X156.976Y-74.93
X160.0Y-92.22
X160.0Y-94.76
X160.0Y-97.3
X160.0Y-99.84
X160.0Y-102.38
X160.0Y-104.92
X160.0Y-107.46
X160.0Y-110.0
X161.976Y-74.93
X167.62Y-92.22
X167.62Y-94.76
X167.62Y-97.3
X167.62Y-99.84
X167.62Y-102.38
X167.62Y-104.92
X167.62Y-107.46
X167.62Y-110.0
X173.507Y-105.0
X173.507Y-110.0
T3
X89.891Y-55.989
X89.891Y-58.489
X89.891Y-60.989
X89.891Y-63.489
X89.891Y-65.989
X89.891Y-68.489
X95.435Y-48.133
X97.935Y-48.133
X100.435Y-48.133
X102.935Y-48.133
X105.274Y-77.327
X105.274Y-79.827
X105.274Y-82.327
X105.274Y-84.827
X105.274Y-87.327
X105.274Y-89.827
X105.435Y-48.133
X107.935Y-48.133
X115.247Y-48.133
X117.747Y-48.133
X120.247Y-48.133
X122.747Y-48.133
X125.247Y-48.133
X127.747Y-48.133
X139.856Y-121.844
X142.356Y-121.844
X144.856Y-121.844
X157.466Y-118.082
X158.947Y-80.583
X159.966Y-118.082
X161.447Y-80.583
X162.466Y-118.082
X163.947Y-80.583
X164.966Y-118.082
X166.447Y-80.583
X167.466Y-118.082
X168.947Y-80.583
X169.966Y-118.082
X171.447Y-80.583
T4
X134.047Y-68.366
X134.047Y-70.906
X134.047Y-73.446
X134.047Y-75.986
X134.047Y-78.526
X134.047Y-81.066
X134.047Y-83.606
X134.047Y-86.146
X134.047Y-88.686
X134.047Y-91.226
X134.047Y-93.766
X134.047Y-96.306
X134.047Y-98.846
X134.047Y-101.386
X134.047Y-103.926
X134.047Y-106.466
X134.047Y-109.006
X134.047Y-111.546
X134.047Y-114.086
X134.047Y-116.626
X149.287Y-68.366
X149.287Y-70.906
X149.287Y-73.446
X149.287Y-75.986
X149.287Y-78.526
X149.287Y-81.066
X149.287Y-83.606
X149.287Y-86.146
X149.287Y-88.686
X149.287Y-91.226
X149.287Y-93.766
X149.287Y-96.306
X149.287Y-98.846
X149.287Y-101.386
X149.287Y-103.926
X149.287Y-106.466
X149.287Y-109.006
X149.287Y-111.546
X149.287Y-114.086
X149.287Y-116.626
T5
X156.82Y-43.993
X156.82Y-46.533
X156.82Y-49.073
T6
X124.5Y-97.62
X124.5Y-100.16
X124.5Y-102.7
X124.5Y-105.24
X124.5Y-107.78
X124.5Y-110.32
X124.5Y-112.86
X124.5Y-115.4
T7
X172.498Y-45.019
X172.498Y-50.019
T8
X86.138Y-44.527
X86.138Y-132.527
X181.137Y-44.527
X181.137Y-132.527
M30
